<svg width="1380" height="880" viewBox="0 0 1380 880" fill="none" xmlns="http://www.w3.org/2000/svg">
<g opacity="0.4" filter="url(#filter0_f_1002_3797)">
<g opacity="0.4" filter="url(#filter1_f_1002_3797)">
<path fill-rule="evenodd" clip-rule="evenodd" d="M220.206 -267.002C219.594 -267 218.982 -266.956 218.375 -266.87C215.852 -266.522 213.489 -265.441 211.588 -263.765C209.687 -262.088 208.332 -259.891 207.695 -257.453C207.058 -255.014 207.169 -252.444 208.012 -250.068C208.855 -247.691 210.393 -245.616 212.431 -244.104L390.06 -112.003C391.41 -110.997 392.949 -110.264 394.586 -109.846C396.224 -109.428 397.929 -109.333 399.603 -109.566C401.278 -109.799 402.89 -110.355 404.347 -111.204C405.804 -112.053 407.078 -113.176 408.096 -114.511C409.113 -115.847 409.855 -117.367 410.278 -118.985C410.701 -120.603 410.797 -122.288 410.562 -123.943C410.326 -125.598 409.763 -127.191 408.904 -128.631C408.045 -130.071 406.908 -131.33 405.557 -132.335L227.943 -264.427C225.717 -266.096 223 -267 220.206 -267.002ZM-119.929 908.448C-123.256 908.442 -126.455 909.714 -128.85 911.996L-203.048 982.078C-204.889 983.819 -206.165 986.061 -206.715 988.52C-207.266 990.979 -207.065 993.544 -206.139 995.891C-205.214 998.237 -203.604 1000.26 -201.515 1001.7C-199.425 1003.14 -196.95 1003.94 -194.402 1003.99C-190.989 1004.02 -187.694 1002.75 -185.194 1000.46L-111.001 930.357C-109.161 928.616 -107.885 926.374 -107.335 923.916C-106.785 921.458 -106.986 918.893 -107.911 916.548C-108.837 914.202 -110.446 912.18 -112.535 910.739C-114.623 909.297 -117.098 908.501 -119.645 908.45L-119.929 908.448ZM1539.77 369.233C1538.56 369.232 1537.37 369.396 1536.21 369.723L1437.49 397.422C1434.21 398.346 1431.43 400.522 1429.77 403.471C1428.11 406.42 1427.7 409.899 1428.64 413.145C1429.57 416.391 1431.78 419.136 1434.76 420.777C1437.74 422.418 1441.26 422.821 1444.55 421.896L1543.27 394.199C1546.26 393.362 1548.85 391.485 1550.54 388.913C1552.24 386.341 1552.94 383.25 1552.52 380.208C1552.09 377.166 1550.56 374.38 1548.22 372.363C1545.88 370.346 1542.87 369.234 1539.77 369.233ZM-364.742 -171.776C-367.135 -171.777 -369.526 -171.613 -371.896 -171.287C-384.973 -169.472 -396.825 -162.713 -404.958 -152.433C-413.09 -142.152 -416.867 -129.154 -415.493 -116.176C-414.118 -103.198 -407.7 -91.2542 -397.589 -82.8606C-387.479 -74.4672 -374.467 -70.2795 -361.294 -71.1802C-348.121 -72.0807 -335.816 -77.999 -326.972 -87.6884C-318.127 -97.3778 -313.434 -110.081 -313.881 -123.123C-314.328 -136.164 -319.881 -148.525 -329.368 -157.6C-338.856 -166.676 -351.538 -171.759 -364.742 -171.776ZM-364.936 -90.4023C-373.106 -90.4146 -380.952 -93.5603 -386.82 -99.1768C-392.689 -104.793 -396.122 -112.442 -396.396 -120.511C-396.67 -128.58 -393.764 -136.438 -388.289 -142.431C-382.815 -148.424 -375.201 -152.083 -367.05 -152.636C-358.9 -153.19 -350.85 -150.595 -344.598 -145.399C-338.345 -140.203 -334.378 -132.811 -333.532 -124.781C-332.686 -116.751 -335.028 -108.71 -340.064 -102.353C-345.099 -95.9959 -352.436 -91.8189 -360.527 -90.7019C-361.988 -90.5045 -363.461 -90.4044 -364.936 -90.4023ZM1049.33 897.916C1038.95 897.928 1028.83 901.069 1020.32 906.918C1011.8 912.767 1005.29 921.046 1001.67 930.649C998.039 940.251 997.464 950.719 1000.02 960.652C1002.57 970.586 1008.14 979.512 1015.96 986.238C1023.79 992.963 1033.51 997.168 1043.82 998.289C1054.12 999.409 1064.53 997.393 1073.65 992.51C1082.77 987.627 1090.16 980.109 1094.84 970.962C1099.52 961.814 1101.26 951.473 1099.84 941.321C1098.13 929.284 1092.07 918.262 1082.79 910.285C1073.51 902.309 1061.63 897.917 1049.33 897.916ZM1049.28 979.29C1041.7 979.279 1034.38 976.567 1028.66 971.653C1022.95 966.739 1019.22 959.952 1018.15 952.538C1017.01 944.384 1019.2 936.115 1024.22 929.55C1029.25 922.985 1036.71 918.661 1044.96 917.53C1049.04 916.967 1053.2 917.204 1057.19 918.228C1061.18 919.253 1064.93 921.044 1068.22 923.499C1071.51 925.955 1074.28 929.027 1076.37 932.54C1078.46 936.053 1079.82 939.938 1080.39 943.974C1080.96 948.01 1080.72 952.117 1079.69 956.061C1078.65 960.006 1076.84 963.709 1074.35 966.961C1071.87 970.213 1068.76 972.95 1065.21 975.015C1061.65 977.08 1057.72 978.432 1053.64 978.995C1052.19 979.19 1050.73 979.289 1049.28 979.29ZM1394.41 918.097C1390.67 918.606 1386.86 918.009 1383.46 916.381C1380.07 914.752 1377.24 912.165 1375.33 908.947C1373.42 905.728 1372.52 902.023 1372.74 898.299C1372.96 894.575 1374.29 891 1376.57 888.024C1378.85 885.049 1381.97 882.808 1385.53 881.584C1389.1 880.36 1392.95 880.207 1396.6 881.147C1400.26 882.086 1403.55 884.074 1406.06 886.86C1408.57 889.646 1410.19 893.105 1410.71 896.8C1411.4 901.76 1410.07 906.788 1407.02 910.781C1403.96 914.774 1399.42 917.405 1394.41 918.097ZM1391.82 876.674C1390.74 876.675 1389.66 876.753 1388.59 876.908C1385.6 877.32 1382.72 878.311 1380.11 879.824C1377.51 881.336 1375.23 883.341 1373.41 885.723C1369.74 890.534 1368.14 896.591 1368.99 902.562C1369.83 908.532 1373.04 913.927 1377.91 917.56C1382.78 921.193 1388.9 922.765 1394.95 921.932C1400.74 921.166 1406.01 918.252 1409.71 913.781C1413.4 909.31 1415.24 903.618 1414.84 897.859C1414.44 892.101 1411.84 886.707 1407.57 882.774C1403.29 878.841 1397.66 876.655 1391.82 876.674ZM1391.75 914.406C1388.09 914.399 1384.55 913.087 1381.79 910.711C1379.03 908.336 1377.22 905.055 1376.71 901.471C1376.15 897.524 1377.21 893.521 1379.64 890.342C1382.07 887.163 1385.68 885.068 1389.67 884.519C1393.67 883.97 1397.72 885.012 1400.93 887.414C1404.15 889.817 1406.27 893.384 1406.83 897.331C1407.38 901.275 1406.32 905.272 1403.89 908.447C1401.46 911.622 1397.85 913.714 1393.86 914.266C1393.16 914.362 1392.46 914.404 1391.75 914.406ZM1687.15 668.934C1684.63 668.877 1682.19 668.084 1680.12 666.656C1678.06 665.227 1676.48 663.227 1675.56 660.907C1674.65 658.588 1674.46 656.054 1675 653.625C1675.55 651.196 1676.81 648.981 1678.63 647.26C1680.45 645.54 1682.74 644.39 1685.22 643.957C1687.7 643.524 1690.25 643.827 1692.56 644.828C1694.86 645.828 1696.82 647.482 1698.17 649.579C1699.53 651.676 1700.22 654.123 1700.17 656.61C1700.13 658.265 1699.77 659.896 1699.1 661.412C1698.42 662.927 1697.45 664.296 1696.24 665.44C1695.03 666.585 1693.61 667.483 1692.05 668.082C1690.49 668.682 1688.82 668.971 1687.15 668.934ZM1687.4 639.903C1683.02 639.918 1678.83 641.636 1675.73 644.683C1672.62 647.731 1670.86 651.864 1670.81 656.188C1670.77 660.512 1672.45 664.679 1675.49 667.787C1678.53 670.896 1682.69 672.696 1687.06 672.798C1691.48 672.869 1695.74 671.218 1698.93 668.203C1702.11 665.187 1703.97 661.051 1704.09 656.692C1704.18 652.325 1702.5 648.103 1699.44 644.954C1696.37 641.806 1692.17 639.99 1687.75 639.905L1687.4 639.903ZM1687.24 665.073C1685.49 665.039 1683.79 664.494 1682.36 663.507C1680.93 662.519 1679.82 661.134 1679.19 659.527C1678.55 657.919 1678.41 656.161 1678.79 654.475C1679.16 652.79 1680.04 651.252 1681.3 650.057C1683.04 648.525 1685.27 647.664 1687.6 647.631C1688.76 647.652 1689.9 647.9 1690.97 648.359C1692.03 648.818 1692.99 649.479 1693.79 650.305C1694.6 651.13 1695.23 652.105 1695.65 653.172C1696.08 654.239 1696.28 655.378 1696.26 656.524C1696.19 658.831 1695.21 661.02 1693.52 662.618C1691.84 664.216 1689.58 665.095 1687.24 665.066L1687.24 665.073ZM1795.84 84.4869C1795.06 84.4889 1794.27 84.542 1793.5 84.6459C1789.22 85.2207 1785.33 87.4144 1782.66 90.7648C1779.98 94.1152 1778.73 98.3608 1779.16 102.607C1779.59 106.853 1781.67 110.768 1784.97 113.527C1788.26 116.287 1792.51 117.674 1796.82 117.399C1801.13 117.123 1805.16 115.205 1808.07 112.049C1810.97 108.892 1812.53 104.745 1812.4 100.479C1812.27 96.2135 1810.48 92.1634 1807.39 89.1819C1804.3 86.2005 1800.16 84.5206 1795.84 84.4963L1795.84 84.4869ZM1492.43 -325.67C1489.94 -325.33 1487.4 -325.729 1485.13 -326.816C1482.87 -327.903 1480.98 -329.629 1479.71 -331.777C1478.43 -333.924 1477.83 -336.396 1477.98 -338.88C1478.13 -341.364 1479.02 -343.749 1480.54 -345.733C1482.06 -347.718 1484.14 -349.212 1486.52 -350.028C1488.9 -350.844 1491.47 -350.945 1493.91 -350.318C1496.34 -349.691 1498.54 -348.364 1500.21 -346.505C1501.88 -344.646 1502.96 -342.338 1503.31 -339.873C1503.77 -336.564 1502.89 -333.21 1500.85 -330.547C1498.81 -327.883 1495.78 -326.129 1492.43 -325.67ZM1490.7 -354.593C1489.92 -354.592 1489.15 -354.538 1488.38 -354.432C1486.2 -354.148 1484.1 -353.441 1482.2 -352.352C1480.3 -351.263 1478.63 -349.813 1477.3 -348.085C1475.97 -346.357 1475 -344.387 1474.44 -342.286C1473.89 -340.186 1473.76 -337.997 1474.06 -335.847C1474.36 -333.697 1475.09 -331.627 1476.21 -329.757C1477.33 -327.887 1478.81 -326.254 1480.57 -324.952C1482.32 -323.65 1484.32 -322.704 1486.45 -322.17C1488.58 -321.636 1490.8 -321.523 1492.97 -321.839C1497.14 -322.424 1500.93 -324.545 1503.57 -327.777C1506.22 -331.008 1507.53 -335.11 1507.24 -339.258C1506.96 -343.406 1505.09 -347.293 1502.02 -350.137C1498.95 -352.981 1494.91 -354.576 1490.7 -354.593ZM1490.65 -329.412C1488.52 -329.418 1486.47 -330.182 1484.86 -331.565C1483.26 -332.948 1482.21 -334.856 1481.91 -336.941C1481.67 -338.656 1481.94 -340.406 1482.7 -341.967C1483.46 -343.529 1484.68 -344.832 1486.19 -345.712C1487.7 -346.591 1489.44 -347.008 1491.19 -346.909C1492.94 -346.81 1494.62 -346.199 1496.02 -345.155C1497.42 -344.11 1498.47 -342.679 1499.05 -341.042C1499.63 -339.405 1499.7 -337.635 1499.25 -335.959C1498.81 -334.282 1497.87 -332.773 1496.56 -331.623C1495.25 -330.473 1493.62 -329.734 1491.88 -329.499C1491.48 -329.443 1491.06 -329.412 1490.65 -329.412ZM14.0059 894.057C11.5107 894.397 8.9694 893.999 6.70338 892.912C4.43733 891.825 2.54829 890.098 1.27491 887.951C0.00156773 885.803 -0.598896 883.33 -0.450551 880.846C-0.302235 878.361 0.588206 875.975 2.10826 873.99C3.62828 872.005 5.70967 870.51 8.08927 869.694C10.4689 868.878 13.04 868.778 15.4775 869.405C17.915 870.033 20.1094 871.36 21.7835 873.22C23.4577 875.08 24.5363 877.389 24.883 879.854C25.3423 883.164 24.4535 886.518 22.4119 889.181C20.3702 891.844 17.3427 893.597 13.9941 894.055L14.0059 894.057ZM12.2535 865.136C9.96714 865.131 7.70439 865.592 5.60612 866.489C3.50788 867.387 1.61912 868.702 0.0575051 870.352C-1.50408 872.002 -2.7051 873.952 -3.47057 876.081C-4.23607 878.21 -4.54967 880.472 -4.39187 882.726C-4.23409 884.98 -3.6083 887.178 -2.55346 889.182C-1.49861 891.187 -0.0372805 892.955 1.73936 894.377C3.51603 895.799 5.56999 896.844 7.7733 897.448C9.97657 898.051 12.282 898.199 14.5459 897.884C18.7267 897.314 22.5324 895.196 25.1931 891.958C27.8539 888.721 29.1711 884.605 28.8784 880.445C28.5856 876.284 26.7048 872.389 23.6163 869.546C20.5278 866.704 16.462 865.127 12.2416 865.134L12.2535 865.136ZM12.2535 890.315C10.1214 890.314 8.06147 889.552 6.45189 888.17C4.84227 886.789 3.79106 884.88 3.49119 882.794C3.33122 881.658 3.39927 880.503 3.69148 879.393C3.98365 878.284 4.49421 877.242 5.19407 876.327C5.8939 875.413 6.7693 874.644 7.77009 874.064C8.77091 873.484 9.87751 873.105 11.0267 872.948C13.347 872.635 15.6983 873.242 17.5678 874.636C19.4373 876.029 20.6733 878.097 21.0063 880.388C21.166 881.523 21.0977 882.679 20.8054 883.788C20.5131 884.898 20.0025 885.94 19.3027 886.854C18.6029 887.769 17.7277 888.538 16.7271 889.118C15.7264 889.698 14.6199 890.078 13.4707 890.236C13.0601 890.29 12.6463 890.315 12.2321 890.313L12.2535 890.315ZM715.785 -285.806C719.522 -286.327 723.019 -287.931 725.834 -290.416C728.649 -292.9 730.656 -296.154 731.601 -299.765C732.545 -303.376 732.386 -307.183 731.142 -310.704C729.899 -314.226 727.627 -317.304 724.613 -319.55C721.6 -321.796 717.981 -323.11 714.212 -323.324C710.444 -323.538 706.697 -322.644 703.443 -320.754C700.188 -318.864 697.574 -316.063 695.93 -312.706C694.286 -309.348 693.686 -305.585 694.206 -301.89C694.552 -299.433 695.385 -297.067 696.657 -294.929C697.93 -292.79 699.616 -290.92 701.62 -289.426C703.624 -287.932 705.907 -286.844 708.338 -286.223C710.768 -285.601 713.299 -285.46 715.785 -285.806ZM713.208 -327.229C712.125 -327.226 711.044 -327.153 709.971 -327.011C704.049 -326.209 698.673 -323.167 694.976 -318.526C691.279 -313.884 689.55 -308.006 690.152 -302.129C690.755 -296.253 693.642 -290.837 698.206 -287.023C702.77 -283.208 708.654 -281.294 714.618 -281.682C720.583 -282.071 726.161 -284.733 730.179 -289.106C734.197 -293.479 736.339 -299.223 736.156 -305.127C735.973 -311.031 733.477 -316.634 729.195 -320.755C724.914 -324.877 719.18 -327.195 713.203 -327.221L713.208 -327.229ZM713.111 -289.494C709.266 -289.497 705.566 -290.941 702.757 -293.536C699.949 -296.13 698.241 -299.682 697.98 -303.472C697.718 -307.263 698.922 -311.01 701.348 -313.958C703.774 -316.905 707.242 -318.832 711.051 -319.351C713.026 -319.625 715.037 -319.513 716.968 -319.019C718.9 -318.525 720.714 -317.661 722.307 -316.474C723.9 -315.287 725.241 -313.802 726.253 -312.104C727.265 -310.405 727.929 -308.525 728.206 -306.573C728.758 -302.631 727.703 -298.633 725.274 -295.459C722.845 -292.285 719.24 -290.193 715.252 -289.644C714.543 -289.54 713.827 -289.494 713.111 -289.494ZM1804.75 -229.18C1808.49 -229.701 1811.99 -231.305 1814.8 -233.79C1817.62 -236.274 1819.62 -239.528 1820.57 -243.139C1821.51 -246.751 1821.36 -250.558 1820.11 -254.079C1818.87 -257.601 1816.6 -260.68 1813.58 -262.926C1810.57 -265.172 1806.95 -266.485 1803.18 -266.699C1799.41 -266.913 1795.66 -266.019 1792.41 -264.128C1789.16 -262.238 1786.54 -259.437 1784.9 -256.079C1783.26 -252.721 1782.66 -248.957 1783.18 -245.263C1783.52 -242.805 1784.35 -240.44 1785.63 -238.301C1786.9 -236.162 1788.58 -234.292 1790.59 -232.798C1792.59 -231.303 1794.87 -230.214 1797.31 -229.592C1799.74 -228.97 1802.27 -228.835 1804.75 -229.18ZM1802.15 -270.603C1801.07 -270.6 1800 -270.528 1798.93 -270.386C1795.94 -269.974 1793.06 -268.983 1790.46 -267.471C1787.85 -265.959 1785.57 -263.955 1783.75 -261.572C1781.93 -259.19 1780.6 -256.477 1779.84 -253.587C1779.08 -250.698 1778.91 -247.689 1779.32 -244.732C1779.74 -241.775 1780.74 -238.928 1782.27 -236.353C1783.8 -233.779 1785.83 -231.528 1788.24 -229.729C1790.65 -227.929 1793.4 -226.616 1796.32 -225.865C1799.25 -225.114 1802.29 -224.94 1805.28 -225.352C1811.04 -226.153 1816.28 -229.081 1819.94 -233.545C1823.61 -238.008 1825.42 -243.678 1825.03 -249.412C1824.63 -255.145 1822.05 -260.518 1817.81 -264.449C1813.56 -268.379 1807.97 -270.576 1802.16 -270.596L1802.15 -270.603ZM1802.11 -232.859C1798.16 -232.848 1794.36 -234.353 1791.51 -237.057C1788.67 -239.76 1786.99 -243.451 1786.84 -247.351C1786.7 -251.251 1788.09 -255.055 1790.72 -257.961C1793.36 -260.868 1797.03 -262.649 1800.97 -262.93C1804.91 -263.211 1808.81 -261.969 1811.84 -259.467C1814.87 -256.964 1816.8 -253.397 1817.22 -249.516C1817.64 -245.636 1816.52 -241.746 1814.09 -238.666C1811.66 -235.587 1808.12 -233.558 1804.21 -233.009C1803.52 -232.907 1802.82 -232.855 1802.12 -232.852L1802.11 -232.859ZM569.531 884.52C567.792 884.524 566.085 884.987 564.588 885.861C563.09 886.734 561.855 887.987 561.01 889.489C560.166 890.992 559.742 892.689 559.783 894.408C559.823 896.126 560.327 897.802 561.243 899.264L582.585 933.125L548.298 954.155C547.207 954.823 546.261 955.697 545.512 956.727C544.764 957.758 544.228 958.923 543.936 960.158C543.644 961.393 543.601 962.673 543.81 963.924C544.019 965.175 544.475 966.373 545.153 967.45L566.49 1001.31L532.197 1022.35C531.105 1023.02 530.157 1023.89 529.408 1024.92C528.659 1025.95 528.123 1027.12 527.831 1028.35C527.538 1029.59 527.496 1030.87 527.705 1032.12C527.915 1033.37 528.373 1034.57 529.052 1035.65L550.387 1069.51L516.117 1090.54C513.916 1091.89 512.35 1094.06 511.763 1096.55C511.176 1099.05 511.616 1101.67 512.986 1103.84C514.356 1106.02 516.544 1107.57 519.069 1108.15C521.594 1108.73 524.249 1108.29 526.449 1106.94L569.046 1080.81C570.138 1080.15 571.085 1079.27 571.834 1078.24C572.583 1077.21 573.12 1076.04 573.411 1074.81C573.703 1073.57 573.746 1072.29 573.536 1071.04C573.326 1069.79 572.868 1068.59 572.188 1067.52L550.853 1033.65L585.142 1012.63C587.343 1011.28 588.911 1009.12 589.501 1006.62C590.091 1004.13 589.655 1001.51 588.29 999.332L566.948 965.468L601.229 944.441C602.32 943.772 603.266 942.898 604.015 941.867C604.763 940.837 605.299 939.671 605.591 938.436C605.883 937.201 605.926 935.922 605.718 934.67C605.51 933.419 605.054 932.22 604.377 931.143L577.858 889.074C576.976 887.678 575.749 886.527 574.292 885.731C572.835 884.934 571.196 884.517 569.531 884.52ZM681.616 476.542C682.229 476.544 682.841 476.588 683.447 476.673C685.971 477.023 688.333 478.105 690.233 479.782C692.134 481.459 693.489 483.656 694.126 486.094C694.762 488.533 694.652 491.103 693.809 493.479C692.966 495.856 691.429 497.932 689.391 499.444L511.763 631.534C510.412 632.54 508.874 633.273 507.236 633.691C505.598 634.109 503.893 634.205 502.218 633.972C500.543 633.739 498.931 633.182 497.473 632.333C496.016 631.485 494.742 630.361 493.725 629.025C492.707 627.69 491.965 626.17 491.542 624.552C491.119 622.933 491.022 621.248 491.258 619.593C491.494 617.938 492.057 616.344 492.916 614.904C493.775 613.464 494.912 612.205 496.263 611.2L673.877 479.107C676.106 477.442 678.823 476.541 681.616 476.542ZM1123.15 285.184C1125.54 285.185 1127.93 285.349 1130.3 285.674C1143.38 287.488 1155.22 294.246 1163.36 304.524C1171.49 314.802 1175.26 327.797 1173.89 340.772C1172.51 353.746 1166.1 365.688 1155.99 374.079C1145.88 382.471 1132.87 386.658 1119.7 385.757C1106.53 384.857 1094.23 378.941 1085.39 369.254C1076.55 359.567 1071.85 346.867 1072.3 333.829C1072.75 320.79 1078.3 308.432 1087.78 299.359C1097.27 290.285 1109.94 285.203 1123.15 285.184ZM1123.34 366.556C1131.52 366.548 1139.37 363.403 1145.25 357.783C1151.13 352.164 1154.57 344.509 1154.85 336.432C1155.12 328.355 1152.22 320.486 1146.74 314.484C1141.27 308.482 1133.64 304.816 1125.49 304.257C1117.33 303.699 1109.27 306.293 1103.01 311.491C1096.74 316.69 1092.77 324.088 1091.92 332.126C1091.07 340.164 1093.41 348.214 1098.45 354.581C1103.48 360.947 1110.83 365.132 1118.93 366.254C1120.39 366.455 1121.86 366.556 1123.34 366.556ZM188.622 416.315C189.703 416.318 190.784 416.39 191.857 416.53C197.791 417.324 203.181 420.363 206.892 425.007C210.604 429.651 212.346 435.538 211.752 441.426C211.158 447.314 208.274 452.745 203.708 456.573C199.142 460.402 193.25 462.329 187.274 461.95C181.299 461.57 175.705 458.913 171.673 454.539C167.641 450.164 165.484 444.413 165.658 438.498C165.832 432.583 168.322 426.965 172.604 422.829C176.887 418.693 182.627 416.361 188.615 416.324L188.622 416.315Z" fill="#FA9531"/>
</g>
<g filter="url(#filter2_f_1002_3797)">
<path fill-rule="evenodd" clip-rule="evenodd" d="M1627.89 158.414C1627.5 158.414 1627.1 158.432 1626.7 158.462C1624.16 158.691 1621.74 159.654 1619.75 161.23C1617.77 162.806 1616.3 164.923 1615.54 167.315C1614.78 169.707 1614.76 172.267 1615.48 174.67C1616.2 177.073 1617.64 179.213 1619.6 180.818L1790.84 320.825C1792.8 322.432 1795.21 323.433 1797.75 323.7C1800.29 323.966 1802.86 323.487 1805.13 322.323C1807.39 321.159 1809.25 319.363 1810.48 317.16C1811.7 314.958 1812.23 312.45 1812 309.952C1811.85 308.292 1811.37 306.677 1810.58 305.202C1809.78 303.727 1808.7 302.422 1807.39 301.362L1636.15 161.344C1633.84 159.443 1630.91 158.406 1627.88 158.414L1627.89 158.414ZM-369.853 348.311C-371.42 348.312 -372.986 348.419 -374.538 348.63C-381.16 349.528 -387.361 352.332 -392.357 356.687C-397.353 361.041 -400.919 366.751 -402.602 373.094C-404.286 379.436 -404.012 386.125 -401.816 392.315C-399.62 398.505 -395.599 403.916 -390.263 407.865C-386.727 410.501 -382.692 412.422 -378.392 413.516C-374.092 414.61 -369.614 414.856 -365.216 414.238C-356.741 413.085 -349.027 408.822 -343.633 402.31C-338.24 395.798 -335.568 387.522 -336.156 379.154C-336.745 370.785 -340.55 362.947 -346.805 357.223C-353.059 351.498 -361.296 348.313 -369.853 348.311ZM-369.901 395.33C-373.578 395.326 -377.109 393.922 -379.751 391.415C-382.393 388.908 -383.939 385.493 -384.063 381.891C-384.186 378.288 -382.879 374.779 -380.415 372.104C-377.951 369.428 -374.524 367.795 -370.855 367.548C-367.187 367.301 -363.564 368.46 -360.751 370.78C-357.937 373.1 -356.152 376.401 -355.772 379.986C-355.393 383.572 -356.448 387.161 -358.715 389.999C-360.982 392.837 -364.285 394.7 -367.927 395.197C-368.581 395.287 -369.241 395.329 -369.901 395.33ZM1508.99 -118.092C1500.09 -118.086 1491.55 -114.639 1485.23 -108.499C1478.91 -102.358 1475.31 -94.0203 1475.22 -85.2959C1475.13 -76.5716 1478.56 -68.1652 1484.76 -61.9025C1490.95 -55.6398 1499.42 -52.0264 1508.32 -51.8472C1517.26 -51.7898 1525.89 -55.0895 1532.43 -61.0693C1537.26 -65.6061 1540.6 -71.4446 1542.04 -77.8454C1543.48 -84.2463 1542.95 -90.9216 1540.52 -97.0268C1538.08 -103.132 1533.86 -108.392 1528.37 -112.142C1522.89 -115.892 1516.39 -117.962 1509.71 -118.092C1509.47 -118.092 1509.23 -118.092 1508.99 -118.092ZM1508.71 -71.0794C1504.95 -71.1582 1501.38 -72.6952 1498.78 -75.3532C1496.17 -78.0113 1494.75 -81.5732 1494.83 -85.2575C1494.96 -88.9233 1496.55 -92.3931 1499.25 -94.9312C1501.95 -97.4692 1505.56 -98.8758 1509.3 -98.8527C1512.1 -98.7967 1514.82 -97.9278 1517.12 -96.3556C1519.42 -94.7834 1521.19 -92.5784 1522.21 -90.0197C1523.23 -87.4611 1523.45 -84.6635 1522.85 -81.9805C1522.25 -79.2977 1520.85 -76.8498 1518.83 -74.9466C1516.05 -72.4931 1512.45 -71.118 1508.71 -71.0794ZM1365.58 1049.38C1361.82 1049.89 1358 1049.3 1354.59 1047.68C1351.18 1046.06 1348.34 1043.48 1346.42 1040.28C1344.51 1037.08 1343.6 1033.39 1343.82 1029.68C1344.04 1025.97 1345.38 1022.41 1347.67 1019.45C1349.95 1016.49 1353.08 1014.26 1356.66 1013.04C1360.24 1011.82 1364.11 1011.67 1367.77 1012.6C1371.44 1013.54 1374.74 1015.52 1377.26 1018.29C1379.78 1021.07 1381.4 1024.51 1381.93 1028.19C1382.62 1033.13 1381.29 1038.13 1378.23 1042.1C1375.16 1046.08 1370.61 1048.7 1365.58 1049.38ZM1362.94 1008.14C1361.87 1008.15 1360.81 1008.22 1359.75 1008.36C1353.68 1009.2 1348.2 1012.35 1344.51 1017.14C1340.82 1021.93 1339.22 1027.96 1340.05 1033.91C1340.46 1036.85 1341.47 1039.69 1343 1042.25C1344.54 1044.81 1346.58 1047.05 1349.01 1048.83C1353.9 1052.44 1360.05 1054 1366.12 1053.18C1371.89 1052.38 1377.14 1049.46 1380.81 1045.01C1384.48 1040.57 1386.3 1034.92 1385.9 1029.22C1385.49 1023.51 1382.9 1018.17 1378.65 1014.26C1374.39 1010.35 1368.78 1008.16 1362.94 1008.14ZM1362.89 1045.72C1358.89 1045.74 1355.04 1044.23 1352.15 1041.51C1349.26 1038.8 1347.56 1035.09 1347.41 1031.17C1347.25 1027.25 1348.66 1023.42 1351.33 1020.5C1353.99 1017.57 1357.71 1015.78 1361.71 1015.49C1365.7 1015.2 1369.65 1016.45 1372.72 1018.96C1375.8 1021.47 1377.75 1025.06 1378.19 1028.96C1378.62 1032.86 1377.49 1036.77 1375.03 1039.87C1372.58 1042.97 1368.99 1045.01 1365.03 1045.57C1364.32 1045.67 1363.61 1045.72 1362.89 1045.72ZM1649.69 -194.931C1645.94 -194.421 1642.11 -195.014 1638.7 -196.634C1635.29 -198.254 1632.45 -200.829 1630.53 -204.033C1628.61 -207.237 1627.71 -210.927 1627.93 -214.635C1628.15 -218.344 1629.49 -221.905 1631.78 -224.868C1634.06 -227.831 1637.19 -230.063 1640.77 -231.282C1644.35 -232.501 1648.22 -232.653 1651.89 -231.717C1655.55 -230.782 1658.86 -228.801 1661.37 -226.026C1663.89 -223.251 1665.52 -219.806 1666.04 -216.127C1666.74 -211.191 1665.41 -206.185 1662.34 -202.21C1659.28 -198.235 1654.72 -195.617 1649.69 -194.931ZM1647.09 -236.167C1646.01 -236.166 1644.93 -236.093 1643.87 -235.95C1640.86 -235.541 1637.97 -234.557 1635.36 -233.052C1632.74 -231.548 1630.46 -229.553 1628.63 -227.182C1626.8 -224.811 1625.47 -222.11 1624.7 -219.234C1623.94 -216.358 1623.76 -213.362 1624.18 -210.419C1624.6 -207.475 1625.6 -204.641 1627.13 -202.077C1628.67 -199.514 1630.7 -197.272 1633.12 -195.48C1635.54 -193.688 1638.3 -192.38 1641.23 -191.632C1644.16 -190.883 1647.22 -190.709 1650.22 -191.118C1656.02 -191.901 1661.29 -194.809 1664.98 -199.256C1668.67 -203.703 1670.5 -209.357 1670.1 -215.076C1669.7 -220.795 1667.11 -226.153 1662.84 -230.068C1658.56 -233.983 1652.94 -236.163 1647.09 -236.167ZM1647.04 -198.589C1643.36 -198.598 1639.81 -199.906 1637.04 -202.274C1634.27 -204.642 1632.46 -207.91 1631.94 -211.48C1631.53 -214.409 1632 -217.393 1633.32 -220.054C1634.63 -222.716 1636.72 -224.936 1639.32 -226.434C1641.92 -227.932 1644.92 -228.64 1647.93 -228.468C1650.94 -228.297 1653.83 -227.254 1656.24 -225.471C1658.64 -223.689 1660.46 -221.247 1661.45 -218.454C1662.44 -215.661 1662.56 -212.643 1661.8 -209.781C1661.04 -206.92 1659.43 -204.344 1657.18 -202.378C1654.93 -200.413 1652.13 -199.147 1649.14 -198.741C1648.45 -198.638 1647.74 -198.588 1647.04 -198.589ZM230.259 913.185C227.732 913.131 225.278 912.345 223.207 910.925C221.135 909.505 219.54 907.515 218.623 905.206C217.705 902.898 217.506 900.374 218.052 897.955C218.597 895.535 219.861 893.329 221.685 891.614C223.51 889.899 225.812 888.753 228.3 888.32C230.789 887.887 233.352 888.187 235.667 889.183C237.981 890.178 239.943 891.824 241.304 893.912C242.665 896 243.363 898.436 243.312 900.913C243.277 902.559 242.911 904.182 242.236 905.69C241.562 907.197 240.59 908.56 239.378 909.699C238.166 910.839 236.737 911.733 235.172 912.331C233.607 912.929 231.938 913.219 230.259 913.185ZM230.52 884.278C226.128 884.291 221.917 885.999 218.799 889.032C215.681 892.066 213.908 896.181 213.862 900.487C213.816 904.793 215.502 908.943 218.555 912.039C221.608 915.136 225.782 916.929 230.173 917.031C232.383 917.102 234.585 916.741 236.651 915.972C238.718 915.202 240.608 914.038 242.212 912.547C243.817 911.056 245.103 909.267 245.997 907.285C246.892 905.303 247.376 903.167 247.421 901C247.467 898.833 247.074 896.679 246.264 894.663C245.454 892.646 244.245 890.807 242.705 889.252C241.165 887.697 239.325 886.457 237.293 885.604C235.261 884.751 233.076 884.302 230.865 884.283C230.751 884.276 230.634 884.278 230.52 884.278ZM230.337 909.343C227.989 909.293 225.756 908.333 224.128 906.673C222.5 905.012 221.61 902.787 221.653 900.484C221.742 898.193 222.736 896.026 224.424 894.44C226.112 892.853 228.363 891.971 230.701 891.98C231.865 892.003 233.012 892.25 234.079 892.707C235.145 893.164 236.109 893.823 236.915 894.646C237.722 895.468 238.355 896.439 238.779 897.501C239.203 898.564 239.409 899.698 239.385 900.839C239.308 903.134 238.318 905.308 236.628 906.898C234.937 908.488 232.68 909.362 230.337 909.343ZM-62.4306 315.653C-63.2164 315.656 -64.0013 315.709 -64.7801 315.811C-69.0592 316.4 -72.9382 318.593 -75.6 321.93C-78.2618 325.267 -79.4986 329.486 -79.0498 333.699C-78.601 337.912 -76.5017 341.79 -73.1941 344.515C-69.8864 347.241 -65.6288 348.602 -61.318 348.311C-57.0072 348.02 -52.9798 346.1 -50.0843 342.956C-47.1888 339.812 -45.6512 335.689 -45.7955 331.455C-45.9397 327.222 -47.7545 323.208 -50.8575 320.261C-53.9606 317.313 -58.1096 315.661 -62.4306 315.653ZM1554.99 689.449C1554.65 689.449 1554.3 689.465 1553.96 689.498L1503.89 694.643C1502.58 694.734 1501.3 695.083 1500.12 695.669C1498.95 696.256 1497.91 697.068 1497.06 698.056C1496.22 699.045 1495.58 700.191 1495.2 701.425C1494.82 702.659 1494.69 703.957 1494.83 705.24C1494.96 706.523 1495.36 707.766 1496 708.895C1496.64 710.024 1497.5 711.015 1498.54 711.81C1499.58 712.605 1500.77 713.187 1502.04 713.522C1503.31 713.856 1504.64 713.937 1505.94 713.758L1546.25 709.618L1550.48 749.047C1550.61 750.305 1550.99 751.526 1551.6 752.638C1552.21 753.751 1553.05 754.733 1554.05 755.529C1555.05 756.324 1556.21 756.917 1557.44 757.273C1558.68 757.629 1559.98 757.741 1561.26 757.602L1601.57 753.462L1605.8 792.896C1606.07 795.432 1607.36 797.757 1609.39 799.361C1611.41 800.965 1614 801.718 1616.58 801.454L1656.89 797.321L1661.12 836.755C1661.42 839.278 1662.72 841.585 1664.73 843.183C1666.74 844.782 1669.31 845.544 1671.9 845.308C1674.48 845.041 1676.86 843.778 1678.49 841.795C1680.13 839.813 1680.9 837.275 1680.63 834.738L1675.37 785.747C1675.24 784.49 1674.86 783.272 1674.24 782.163C1673.63 781.053 1672.79 780.074 1671.79 779.282C1669.77 777.682 1667.18 776.928 1664.59 777.184L1624.29 781.334L1620.06 741.902C1619.78 739.37 1618.49 737.051 1616.47 735.448C1614.45 733.846 1611.86 733.09 1609.28 733.344L1568.97 737.485L1564.74 698.058C1564.49 695.695 1563.35 693.508 1561.55 691.918C1559.75 690.329 1557.41 689.449 1554.99 689.449ZM-147.392 966.374C-149.993 966.372 -152.489 967.383 -154.33 969.184C-156.171 970.986 -157.206 973.43 -157.209 975.98L-157.278 1043.51C-157.281 1044.78 -157.031 1046.03 -156.541 1047.19C-156.051 1048.36 -155.332 1049.42 -154.424 1050.32C-153.513 1051.21 -152.431 1051.92 -151.241 1052.4C-150.05 1052.89 -148.774 1053.14 -147.485 1053.14L-78.5562 1053.18C-75.9548 1053.19 -73.4592 1052.17 -71.618 1050.37C-69.7767 1048.57 -68.7406 1046.13 -68.7375 1043.58L-68.6614 976.043C-68.6614 973.492 -69.695 971.045 -71.5349 969.24C-73.3748 967.436 -75.8703 966.422 -78.473 966.42L-147.402 966.374L-147.392 966.374ZM-137.642 1033.91L-137.588 985.61L-88.2894 985.648L-88.3488 1033.95L-137.642 1033.91ZM389.366 276.515C390.411 277.655 391.373 278.865 392.245 280.138C397.238 287.438 399.071 296.382 397.342 305.006C395.613 313.63 390.464 321.229 383.024 326.134C375.585 331.04 366.464 332.85 357.664 331.169C348.864 329.487 341.104 324.451 336.089 317.166C331.323 310.195 329.428 301.713 330.787 293.427C332.146 285.142 336.658 277.669 343.413 272.515C350.169 267.36 358.666 264.907 367.193 265.65C375.719 266.392 383.643 270.274 389.366 276.515ZM353.61 307.95C356.066 310.621 359.484 312.253 363.144 312.502C366.803 312.752 370.419 311.598 373.228 309.286C376.037 306.973 377.821 303.682 378.203 300.106C378.586 296.529 377.537 292.947 375.279 290.113C373.02 287.28 369.727 285.416 366.094 284.916C362.462 284.416 358.773 285.317 355.805 287.43C352.837 289.544 350.822 292.704 350.184 296.245C349.546 299.786 350.335 303.432 352.385 306.414C352.757 306.953 353.166 307.467 353.61 307.95ZM758.003 266.817C758.227 267.05 758.448 267.33 758.655 267.603L788.17 307.536C789.697 309.607 790.321 312.187 789.906 314.71C789.492 317.232 788.072 319.49 785.959 320.986C784.913 321.727 783.728 322.259 782.472 322.551C781.216 322.843 779.914 322.889 778.64 322.688C776.067 322.282 773.764 320.889 772.238 318.818L748.474 286.669L715.651 309.925C714.609 310.672 713.426 311.21 712.171 311.506C710.916 311.803 709.613 311.853 708.338 311.654C707.063 311.454 705.841 311.009 704.742 310.345C703.644 309.68 702.69 308.808 701.937 307.78L678.178 275.641L645.348 298.899C643.238 300.393 640.61 301.007 638.039 300.605C635.469 300.204 633.165 298.82 631.634 296.756L607.88 264.61L575.049 287.87C572.931 289.339 570.31 289.937 567.748 289.536C565.185 289.136 562.885 287.768 561.338 285.725C560.583 284.702 560.042 283.542 559.744 282.313C559.447 281.085 559.399 279.81 559.605 278.563C559.81 277.316 560.264 276.121 560.941 275.047C561.618 273.972 562.505 273.039 563.55 272.3L604.342 243.394C606.452 241.901 609.079 241.289 611.649 241.691C614.219 242.093 616.521 243.476 618.053 245.538L641.807 277.685L674.638 254.427C676.751 252.942 679.376 252.333 681.944 252.734C684.512 253.135 686.814 254.514 688.352 256.57L712.115 288.719L744.931 265.465C746.895 264.067 749.318 263.432 751.732 263.682C754.146 263.931 756.38 265.048 758.003 266.817Z" fill="#BEC2C9"/>
</g>
<path fill-rule="evenodd" clip-rule="evenodd" d="M271.132 -31.6941C270.065 -31.6927 268.998 -31.6208 267.94 -31.4788C261.893 -30.6456 256.429 -27.4752 252.75 -22.6652C249.071 -17.8551 247.478 -11.7992 248.322 -5.82992C249.167 0.139443 252.378 5.5333 257.251 9.16514C262.124 12.797 268.258 14.3691 274.305 13.5359C280.087 12.7532 285.353 9.83127 289.035 5.36149C292.717 0.891636 294.542 -4.79226 294.14 -10.5399C293.738 -16.2876 291.138 -21.6696 286.868 -25.597C282.598 -29.5244 276.969 -31.7039 271.132 -31.6941ZM1808.4 408.528C1807.62 408.527 1806.85 408.581 1806.09 408.69C1803.38 409.068 1800.81 410.1 1798.6 411.695C1796.39 413.289 1794.61 415.397 1793.42 417.831C1792.23 420.265 1791.67 422.951 1791.78 425.651C1791.89 428.351 1792.68 430.981 1794.07 433.31C1795.46 435.639 1797.41 437.593 1799.74 439.002C1802.08 440.41 1804.73 441.229 1807.46 441.384C1810.2 441.54 1812.93 441.029 1815.41 439.895C1817.9 438.762 1820.06 437.041 1821.71 434.886C1823.03 433.168 1824 431.208 1824.55 429.118C1825.11 427.029 1825.23 424.852 1824.92 422.714C1824.36 418.781 1822.38 415.182 1819.34 412.576C1816.3 409.97 1812.42 408.533 1808.4 408.528ZM8.60906 -270.109C11.1041 -270.458 13.4383 -271.529 15.317 -273.187C17.1957 -274.845 18.5345 -277.015 19.1644 -279.424C19.7942 -281.832 19.6868 -284.371 18.8558 -286.719C18.0247 -289.068 16.5073 -291.12 14.4951 -292.618C12.483 -294.115 10.0664 -294.99 7.55058 -295.133C5.0348 -295.275 2.53272 -294.678 0.360341 -293.418C-1.81204 -292.157 -3.55724 -290.289 -4.6548 -288.05C-5.75236 -285.811 -6.15307 -283.301 -5.80628 -280.837C-5.57519 -279.198 -5.01872 -277.619 -4.16877 -276.192C-3.31883 -274.765 -2.19213 -273.518 -0.853109 -272.521C0.485917 -271.525 2.01096 -270.799 3.63462 -270.385C5.25828 -269.971 6.94867 -269.877 8.60906 -270.109ZM6.88036 -299.018C6.09655 -299.016 5.3138 -298.961 4.53748 -298.855C2.3693 -298.559 0.281345 -297.845 -1.60718 -296.753C-3.49571 -295.661 -5.14782 -294.212 -6.46907 -292.49C-7.79032 -290.767 -8.75486 -288.805 -9.3076 -286.714C-9.86035 -284.624 -9.99047 -282.446 -9.69053 -280.306C-9.04436 -275.996 -6.70776 -272.11 -3.18486 -269.486C0.338034 -266.862 4.7648 -265.71 9.14026 -266.279C13.3202 -266.849 17.1254 -268.963 19.7878 -272.194C22.4502 -275.426 23.7713 -279.534 23.4845 -283.69C23.1976 -287.846 21.3242 -291.739 18.2423 -294.584C15.1605 -297.429 11.0999 -299.014 6.88036 -299.018ZM6.84241 -273.845C4.70771 -273.849 2.64581 -274.611 1.03443 -275.993C-0.576944 -277.376 -1.62991 -279.285 -1.93153 -281.371C-2.17354 -283.124 -1.86852 -284.908 -1.05712 -286.485C-0.245722 -288.063 1.03352 -289.358 2.61001 -290.2C4.18649 -291.041 5.98534 -291.388 7.76672 -291.195C9.54809 -291.001 11.2273 -290.276 12.5806 -289.116C13.9339 -287.956 14.8969 -286.417 15.3411 -284.703C15.7854 -282.989 15.6899 -281.182 15.0673 -279.523C14.4447 -277.864 13.3246 -276.432 11.8564 -275.418C10.3882 -274.403 8.63453 -273.855 6.84241 -273.845ZM297.257 561.677C295.565 561.671 293.889 561.997 292.325 562.634C290.761 563.271 289.34 564.208 288.144 565.389L261.042 592.089L233.95 565.403C231.529 563.026 228.253 561.692 224.838 561.692C221.423 561.692 218.147 563.026 215.726 565.403C214.529 566.58 213.58 567.978 212.932 569.518C212.284 571.058 211.951 572.708 211.951 574.376C211.951 576.043 212.284 577.694 212.932 579.234C213.58 580.773 214.529 582.172 215.726 583.348L242.821 610.034L215.717 636.72C214.52 637.896 213.571 639.294 212.923 640.834C212.275 642.373 211.941 644.024 211.941 645.691C211.941 647.358 212.275 649.009 212.923 650.549C213.571 652.088 214.52 653.486 215.717 654.663C218.172 656.966 221.43 658.251 224.818 658.251C228.205 658.251 231.464 656.966 233.919 654.663L233.931 654.663L261.023 627.965L288.125 654.651C290.582 656.957 293.842 658.243 297.232 658.243C300.623 658.243 303.883 656.957 306.34 654.651C308.746 652.269 310.097 649.042 310.097 645.678C310.097 642.314 308.746 639.088 306.34 636.706L279.226 610.02L306.34 583.334C308.134 581.559 309.355 579.299 309.85 576.84C310.345 574.38 310.09 571.831 309.118 569.514C308.147 567.197 306.502 565.216 304.391 563.821C302.28 562.427 299.798 561.68 297.257 561.677ZM870.318 417.788C868.207 417.789 866.132 418.33 864.295 419.357C862.457 420.384 860.921 421.863 859.834 423.65C858.747 425.436 858.148 427.471 858.094 429.554C858.039 431.638 858.532 433.7 859.524 435.539L883.46 479.695L858.914 492.401C857.485 493.139 856.218 494.149 855.186 495.374C854.154 496.598 853.379 498.012 852.904 499.533C852.429 501.055 852.264 502.655 852.419 504.24C852.574 505.825 853.046 507.364 853.807 508.768L883.55 563.622C885.077 566.451 887.68 568.565 890.786 569.499C893.892 570.434 897.247 570.112 900.113 568.604C902.979 567.097 905.12 564.528 906.067 561.461C907.013 558.395 906.687 555.083 905.16 552.255L881.224 508.108L905.772 495.4C907.201 494.662 908.468 493.652 909.5 492.428C910.531 491.205 911.307 489.791 911.782 488.27C912.257 486.748 912.421 485.149 912.267 483.564C912.112 481.98 911.641 480.441 910.88 479.037L881.136 424.17C880.088 422.238 878.528 420.624 876.622 419.501C874.717 418.377 872.538 417.785 870.318 417.788Z" fill="#BEC2C9"/>
<g filter="url(#filter3_f_1002_3797)">
<path fill-rule="evenodd" clip-rule="evenodd" d="M443.986 -315.201C441.435 -315.205 438.941 -314.467 436.819 -313.08C434.697 -311.692 433.042 -309.718 432.065 -307.407C431.089 -305.097 430.833 -302.554 431.331 -300.101C431.83 -297.648 433.059 -295.395 434.865 -293.628L462.002 -267.049L434.862 -240.47C432.45 -238.1 431.094 -234.888 431.094 -231.539C431.094 -228.191 432.45 -224.978 434.862 -222.609C437.32 -220.308 440.588 -219.024 443.986 -219.024C447.383 -219.024 450.651 -220.308 453.109 -222.609L480.246 -249.188L507.393 -222.609C509.851 -220.308 513.118 -219.024 516.516 -219.024C519.914 -219.024 523.181 -220.308 525.64 -222.609C528.049 -224.978 529.402 -228.188 529.402 -231.535C529.402 -234.881 528.049 -238.091 525.64 -240.461L498.49 -267.04L525.635 -293.618C526.832 -294.79 527.782 -296.183 528.43 -297.716C529.078 -299.249 529.412 -300.892 529.412 -302.551C529.412 -304.211 529.078 -305.854 528.43 -307.387C527.782 -308.92 526.832 -310.312 525.635 -311.484C523.211 -313.85 519.931 -315.179 516.511 -315.179C513.092 -315.179 509.812 -313.85 507.388 -311.484L480.246 -284.889L453.099 -311.484C451.904 -312.661 450.484 -313.595 448.92 -314.233C447.356 -314.87 445.679 -315.199 443.986 -315.201ZM693.087 7.93594L618.683 77.7029C617.834 78.5252 616.828 79.1739 615.721 79.6111C614.615 80.0484 613.43 80.2655 612.238 80.2499C611.045 80.2343 609.867 79.9864 608.773 79.5203C607.678 79.0542 606.69 78.3795 605.864 77.5353C605.038 76.6911 604.391 75.6941 603.962 74.6025C603.532 73.511 603.328 72.3467 603.361 71.1771C603.395 70.0075 603.665 68.8561 604.156 67.7898C604.647 66.7235 605.349 65.7636 606.222 64.9659L680.626 -4.80088C681.475 -5.62326 682.481 -6.27195 683.588 -6.7092C684.694 -7.14646 685.878 -7.36362 687.071 -7.348C688.264 -7.33237 689.442 -7.08432 690.536 -6.61826C691.63 -6.1522 692.619 -5.47739 693.445 -4.63315C694.271 -3.78892 694.917 -2.79209 695.347 -1.70054C695.777 -0.608984 695.981 0.555323 695.948 1.72488C695.914 2.89443 695.644 4.0458 695.153 5.11209C694.662 6.17837 693.96 7.13833 693.087 7.93594ZM686.856 -11.0934C683.524 -11.0995 680.319 -9.8414 677.911 -7.58225L603.507 62.1869C602.28 63.3363 601.297 64.7119 600.612 66.2347C599.928 67.7575 599.556 69.3977 599.519 71.0615C599.482 72.7253 599.78 74.38 600.395 75.9308C601.01 77.4817 601.931 78.8983 603.106 80.0996C605.486 82.517 608.744 83.9137 612.169 83.9853C615.595 84.0569 618.91 82.7976 621.393 80.482L695.797 10.7151C697.664 8.96816 698.954 6.71206 699.5 4.23843C700.047 1.7648 699.824 -0.812597 698.862 -3.16086C697.899 -5.50913 696.241 -7.52012 694.1 -8.9343C691.96 -10.3485 689.437 -11.1004 686.856 -11.0934ZM612.453 76.304C611.44 76.3066 610.449 76.0116 609.609 75.4568C608.769 74.902 608.117 74.1128 607.738 73.1914C607.36 72.27 607.271 71.2585 607.484 70.2873C607.698 69.3161 608.203 68.4299 608.934 67.7429L683.338 -2.0217C684.313 -2.93357 685.616 -3.42991 686.963 -3.40244C688.31 -3.37497 689.591 -2.8259 690.527 -1.87497C690.988 -1.40391 691.35 -0.848119 691.593 -0.239477C691.835 0.369166 691.953 1.01882 691.938 1.67202C691.924 2.32522 691.779 2.96914 691.511 3.56716C691.242 4.16519 690.856 4.70535 690.375 5.15676L615.971 74.9238C615.023 75.8105 613.763 76.3047 612.453 76.304ZM1752.51 -91.6247C1745.49 -91.6409 1738.55 -90.2399 1732.11 -87.5085C1725.67 -84.777 1719.87 -80.774 1715.07 -75.7487C1710.28 -70.7235 1706.59 -64.7838 1704.24 -58.2997C1701.89 -51.8157 1700.93 -44.9263 1701.41 -38.0611C1701.9 -31.1959 1703.82 -24.5018 1707.05 -18.3961C1710.29 -12.2903 1714.77 -6.90399 1720.23 -2.57245C1725.68 1.75909 1731.98 4.94305 1738.74 6.78057C1745.5 8.6181 1752.58 9.07025 1759.53 8.10845C1772.35 6.37566 1784.03 -0.0695281 1792.2 -9.92365C1800.36 -19.7778 1804.41 -32.3057 1803.52 -44.9743C1802.63 -57.6429 1796.86 -69.5065 1787.39 -78.1667C1777.92 -86.8269 1765.45 -91.637 1752.51 -91.6247ZM1752.39 -10.6319C1744.18 -10.6354 1736.29 -13.7656 1730.39 -19.3629C1724.48 -24.9601 1721.02 -32.5873 1720.74 -40.637C1720.45 -48.6867 1723.36 -56.5303 1728.86 -62.5148C1734.36 -68.4993 1742.01 -72.1574 1750.2 -72.7181C1758.39 -73.2788 1766.49 -70.6983 1772.78 -65.5205C1779.07 -60.3426 1783.06 -52.9719 1783.92 -44.9615C1784.78 -36.9511 1782.43 -28.9266 1777.38 -22.5792C1772.32 -16.2318 1764.95 -12.057 1756.82 -10.9349C1755.35 -10.736 1753.87 -10.6348 1752.39 -10.6319ZM931.703 943.657C930.41 943.657 929.13 943.907 927.936 944.393C926.742 944.879 925.658 945.591 924.745 946.489L876.059 994.284C875.149 995.178 874.428 996.239 873.936 997.407C873.445 998.574 873.193 999.825 873.195 1001.09C873.196 1002.35 873.452 1003.6 873.947 1004.77C874.442 1005.93 875.166 1006.99 876.078 1007.88L924.869 1055.56C926.714 1057.36 929.211 1058.37 931.813 1058.37C934.415 1058.36 936.91 1057.35 938.751 1055.55L987.434 1007.75C988.345 1006.86 989.066 1005.8 989.558 1004.63C990.05 1003.46 990.302 1002.21 990.301 1000.95C990.299 999.686 990.043 998.435 989.548 997.269C989.053 996.103 988.328 995.045 987.415 994.154L938.632 946.464C937.722 945.572 936.642 944.865 935.453 944.383C934.264 943.901 932.989 943.654 931.703 943.657ZM896.897 1001.05L931.722 966.871L966.613 1000.97L931.789 1035.14L896.897 1001.05ZM1078.72 -265.909C1074.97 -265.401 1071.15 -265.996 1067.74 -267.617C1064.33 -269.238 1061.49 -271.813 1059.58 -275.017C1057.67 -278.22 1056.76 -281.909 1056.99 -285.616C1057.21 -289.323 1058.55 -292.882 1060.83 -295.843C1063.11 -298.805 1066.24 -301.035 1069.82 -302.253C1073.4 -303.472 1077.26 -303.622 1080.92 -302.687C1084.59 -301.751 1087.89 -299.771 1090.4 -296.997C1092.92 -294.223 1094.54 -290.78 1095.07 -287.102C1095.76 -282.166 1094.43 -277.162 1091.36 -273.189C1088.3 -269.216 1083.75 -266.597 1078.72 -265.909ZM1076.14 -307.134C1075.05 -307.131 1073.96 -307.06 1072.89 -306.92C1066.93 -306.112 1061.53 -303.069 1057.82 -298.433C1054.11 -293.796 1052.38 -287.927 1053 -282.064C1053.61 -276.201 1056.52 -270.801 1061.12 -267.002C1065.71 -263.203 1071.63 -261.301 1077.63 -261.699C1083.62 -262.096 1089.23 -264.761 1093.26 -269.131C1097.29 -273.502 1099.44 -279.237 1099.24 -285.128C1099.05 -291.019 1096.53 -296.606 1092.21 -300.711C1087.9 -304.816 1082.13 -307.119 1076.12 -307.134L1076.14 -307.134ZM1076.06 -269.572C1072.38 -269.58 1068.84 -270.887 1066.06 -273.254C1063.29 -275.62 1061.48 -278.887 1060.97 -282.455C1060.69 -284.398 1060.81 -286.375 1061.32 -288.274C1061.82 -290.172 1062.7 -291.954 1063.91 -293.518C1065.12 -295.082 1066.63 -296.397 1068.35 -297.388C1070.08 -298.379 1071.99 -299.026 1073.97 -299.293C1075.95 -299.586 1077.98 -299.482 1079.92 -298.989C1081.86 -298.496 1083.68 -297.623 1085.27 -296.423C1087.67 -294.645 1089.49 -292.206 1090.48 -289.416C1091.47 -286.625 1091.59 -283.609 1090.83 -280.75C1090.08 -277.89 1088.47 -275.316 1086.22 -273.354C1083.96 -271.391 1081.17 -270.128 1078.19 -269.725C1077.48 -269.62 1076.76 -269.569 1076.05 -269.572L1076.06 -269.572ZM732.873 91.7616C728.463 91.7428 724.224 93.4364 721.083 96.4726C717.941 99.5088 716.153 103.641 716.107 107.966C716.062 112.292 717.763 116.459 720.84 119.558C723.916 122.657 728.119 124.436 732.528 124.507C736.95 124.565 741.222 122.936 744.442 119.963C746.831 117.72 748.487 114.833 749.201 111.667C749.915 108.5 749.654 105.197 748.452 102.176C747.251 99.1547 745.161 96.5515 742.45 94.6958C739.738 92.8402 736.526 91.8157 733.22 91.7522L732.873 91.7522L732.873 91.7616ZM870.175 783C867.65 782.944 865.199 782.156 863.13 780.734C861.062 779.313 859.469 777.322 858.554 775.013C857.639 772.704 857.442 770.181 857.989 767.762C858.536 765.344 859.801 763.138 861.625 761.425C863.449 759.711 865.75 758.567 868.237 758.135C870.724 757.704 873.286 758.006 875.599 759.002C877.911 759.998 879.87 761.644 881.229 763.733C882.588 765.821 883.285 768.257 883.233 770.734C883.197 772.38 882.831 774.003 882.155 775.511C881.48 777.019 880.508 778.381 879.295 779.52C878.083 780.659 876.653 781.553 875.088 782.15C873.524 782.747 871.854 783.036 870.175 783ZM870.437 754.089C866.047 754.102 861.839 755.81 858.724 758.844C855.609 761.877 853.837 765.991 853.791 770.297C853.746 774.602 855.431 778.751 858.482 781.847C861.533 784.943 865.704 786.735 870.092 786.837C872.289 786.901 874.475 786.53 876.523 785.747C878.57 784.965 880.436 783.786 882.009 782.282C884.398 780.04 886.054 777.153 886.767 773.986C887.481 770.82 887.219 767.517 886.015 764.497C884.811 761.477 882.719 758.876 880.005 757.024C877.292 755.171 874.078 754.152 870.772 754.094C870.665 754.103 870.551 754.103 870.437 754.103L870.437 754.089ZM870.263 779.15C868.806 779.122 867.378 778.742 866.107 778.043C864.835 777.344 863.759 776.349 862.974 775.144C862.188 773.939 861.719 772.563 861.606 771.138C861.493 769.712 861.74 768.282 862.326 766.973C862.912 765.664 863.819 764.517 864.965 763.633C866.111 762.75 867.462 762.158 868.898 761.91C870.333 761.662 871.809 761.765 873.194 762.21C874.58 762.655 875.831 763.429 876.838 764.462C878.464 766.125 879.35 768.353 879.301 770.656C879.253 772.959 878.274 775.149 876.58 776.744C874.842 778.274 872.598 779.132 870.263 779.16L870.263 779.15ZM1692.09 1072.77C1689.56 1072.71 1687.11 1071.92 1685.04 1070.5C1682.97 1069.08 1681.38 1067.09 1680.46 1064.78C1679.55 1062.47 1679.35 1059.95 1679.9 1057.53C1680.44 1055.11 1681.71 1052.91 1683.53 1051.19C1685.35 1049.48 1687.65 1048.33 1690.14 1047.9C1692.63 1047.47 1695.19 1047.77 1697.5 1048.77C1699.81 1049.76 1701.78 1051.41 1703.13 1053.5C1704.49 1055.58 1705.19 1058.02 1705.14 1060.5C1705.1 1062.14 1704.74 1063.77 1704.06 1065.27C1703.39 1066.78 1702.42 1068.14 1701.2 1069.28C1699.99 1070.42 1698.56 1071.32 1697 1071.91C1695.43 1072.51 1693.76 1072.8 1692.09 1072.77ZM1692.34 1043.86C1687.93 1043.84 1683.69 1045.53 1680.55 1048.57C1677.41 1051.6 1675.62 1055.74 1675.57 1060.06C1675.53 1064.39 1677.23 1068.56 1680.3 1071.66C1683.38 1074.76 1687.58 1076.54 1691.99 1076.61C1694.19 1076.68 1696.39 1076.32 1698.43 1075.54C1700.48 1074.75 1702.35 1073.57 1703.91 1072.05C1706.3 1069.81 1707.95 1066.92 1708.67 1063.75C1709.38 1060.59 1709.12 1057.29 1707.91 1054.27C1706.71 1051.25 1704.62 1048.65 1701.91 1046.79C1699.19 1044.94 1695.98 1043.92 1692.68 1043.86L1692.34 1043.86ZM1692.17 1068.92C1690.42 1068.88 1688.72 1068.34 1687.28 1067.36C1685.84 1066.37 1684.74 1064.99 1684.1 1063.39C1683.46 1061.79 1683.32 1060.04 1683.69 1058.37C1684.07 1056.69 1684.94 1055.16 1686.2 1053.97C1687.93 1052.4 1690.19 1051.54 1692.53 1051.55C1694.28 1051.58 1695.98 1052.13 1697.42 1053.11C1698.86 1054.09 1699.96 1055.47 1700.6 1057.07C1701.23 1058.67 1701.37 1060.42 1700.99 1062.1C1700.62 1063.78 1699.74 1065.31 1698.47 1066.5C1696.72 1067.99 1694.49 1068.85 1692.16 1068.92L1692.17 1068.92ZM1876.71 10.7049C1875.17 10.7018 1873.65 11.0553 1872.27 11.7367C1870.89 12.4181 1869.7 13.408 1868.79 14.6264L1843 49.0389L1807.82 23.9522C1805.72 22.459 1803.1 21.8403 1800.54 22.2306C1797.97 22.621 1795.67 23.9891 1794.13 26.0367L1768.34 60.4421L1733.17 35.3578C1731.07 33.8592 1728.45 33.2371 1725.89 33.6277C1723.32 34.0184 1721.02 35.39 1719.48 37.4422L1687.92 79.5717C1686.41 81.6319 1685.8 84.1909 1686.2 86.6932C1686.61 89.1956 1688.01 91.4392 1690.09 92.9374C1692.18 94.4357 1694.78 95.0675 1697.33 94.6957C1699.89 94.324 1702.19 92.9786 1703.74 90.9517L1729.52 56.5392L1764.7 81.6235C1766.81 83.1161 1769.42 83.7344 1771.99 83.3441C1774.55 82.9538 1776.85 81.5862 1778.39 79.5391L1804.18 45.1337L1839.36 70.2202C1841.46 71.7112 1844.08 72.3285 1846.64 71.9377C1849.21 71.547 1851.51 70.1799 1853.05 68.1336L1878.83 33.7258L1914.01 58.81C1915.05 59.5722 1916.23 60.1244 1917.49 60.4345C1918.75 60.7446 1920.06 60.8066 1921.34 60.6167C1922.63 60.4269 1923.86 59.9891 1924.97 59.3286C1926.08 58.6681 1927.04 57.7983 1927.81 56.7693C1928.57 55.7404 1929.12 54.5729 1929.42 53.3344C1929.72 52.096 1929.77 50.8112 1929.56 49.5547C1929.35 48.2983 1928.89 47.0951 1928.2 46.0148C1927.52 44.9345 1926.62 43.9987 1925.56 43.2615L1882.48 12.542C1880.8 11.3457 1878.78 10.7024 1876.71 10.7049ZM313.234 941.539C307.339 941.543 301.585 943.312 296.743 946.61C291.9 949.908 288.2 954.577 286.136 959.993C284.073 965.409 283.744 971.314 285.195 976.918C286.645 982.522 289.806 987.559 294.253 991.353C298.701 995.148 304.224 997.521 310.084 998.154C315.943 998.787 321.86 997.65 327.044 994.896C332.227 992.141 336.429 987.901 339.089 982.74C341.748 977.58 342.738 971.747 341.925 966.02C340.967 959.227 337.533 953.005 332.258 948.505C326.983 944.004 320.225 941.53 313.234 941.539ZM313.205 979.099C311.412 979.097 309.657 978.589 308.15 977.635C306.643 976.682 305.448 975.323 304.706 973.721C303.965 972.119 303.709 970.342 303.97 968.602C304.23 966.862 304.995 965.231 306.174 963.906C307.353 962.58 308.895 961.615 310.618 961.126C312.341 960.637 314.171 960.644 315.889 961.147C317.608 961.65 319.142 962.627 320.31 963.962C321.478 965.297 322.23 966.933 322.476 968.675C322.646 969.868 322.574 971.082 322.264 972.247C321.955 973.413 321.414 974.507 320.672 975.467C319.931 976.427 319.004 977.234 317.944 977.842C316.884 978.45 315.713 978.848 314.496 979.011C314.068 979.069 313.637 979.1 313.205 979.104L313.205 979.099ZM1096.99 597.97C1096.27 599.02 1095.78 600.2 1095.52 601.44C1095.27 602.681 1095.27 603.957 1095.53 605.197L1109.08 671.381C1109.6 673.881 1111.1 676.078 1113.27 677.489C1115.44 678.901 1118.09 679.41 1120.64 678.906L1188.22 665.594C1190.77 665.093 1193.01 663.619 1194.46 661.497C1195.9 659.375 1196.42 656.778 1195.91 654.277L1182.36 588.089C1181.84 585.587 1180.34 583.389 1178.17 581.977C1176 580.565 1173.35 580.056 1170.8 580.561L1103.22 593.873C1101.96 594.121 1100.76 594.61 1099.69 595.313C1098.62 596.015 1097.7 596.918 1096.99 597.97ZM1126.41 658.163L1116.71 610.835L1165.05 601.318L1174.74 648.646L1126.41 658.163Z" fill="#FA9531"/>
</g>
<g filter="url(#filter4_f_1002_3797)">
<path fill-rule="evenodd" clip-rule="evenodd" d="M348.52 796.989C346.131 796.991 343.791 797.65 341.764 798.892C338.855 800.666 336.78 803.502 335.993 806.779C335.205 810.056 335.77 813.506 337.564 816.373L454.246 1002.95C455.129 1004.39 456.292 1005.63 457.667 1006.62C459.043 1007.61 460.604 1008.32 462.26 1008.72C463.916 1009.11 465.635 1009.17 467.317 1008.91C469 1008.64 470.612 1008.05 472.061 1007.17C473.511 1006.29 474.769 1005.14 475.762 1003.78C476.756 1002.42 477.466 1000.87 477.851 999.241C478.236 997.608 478.289 995.916 478.006 994.263C477.723 992.61 477.11 991.029 476.203 989.61L359.542 803.023C358.656 801.598 357.491 800.361 356.115 799.383C354.739 798.405 353.179 797.706 351.526 797.326C350.541 797.096 349.532 796.98 348.52 796.98L348.52 796.989ZM612.36 -7.70944C609.733 -7.70713 607.169 -6.91941 605.007 -5.45035C602.846 -3.98129 601.19 -1.90054 600.258 0.51602L563.908 94.9771C563.313 96.5337 563.035 98.1905 563.09 99.8528C563.145 101.515 563.533 103.15 564.23 104.665C564.928 106.18 565.922 107.545 567.155 108.682C568.389 109.819 569.838 110.706 571.42 111.292C573.002 111.878 574.686 112.151 576.375 112.097C578.065 112.043 579.727 111.662 581.266 110.975C582.806 110.289 584.193 109.311 585.349 108.097C586.504 106.883 587.406 105.458 588.001 103.901L624.341 9.42129C625.079 7.50979 625.335 5.45059 625.087 3.42044C624.838 1.39029 624.093 -0.550266 622.915 -2.23478C621.737 -3.91922 620.161 -5.29734 618.323 -6.25089C616.484 -7.20444 614.438 -7.70493 612.36 -7.70944ZM-149.164 213.009C-150.063 213.007 -150.959 213.099 -151.838 213.282L-252.268 234.153C-253.924 234.495 -255.496 235.155 -256.892 236.096C-258.289 237.036 -259.483 238.239 -260.406 239.635C-261.329 241.03 -261.963 242.591 -262.272 244.228C-262.581 245.866 -262.559 247.547 -262.206 249.175C-261.478 252.458 -259.462 255.325 -256.596 257.153C-253.731 258.982 -250.248 259.623 -246.905 258.937L-146.464 238.066C-143.348 237.416 -140.589 235.653 -138.717 233.118C-136.846 230.583 -135.996 227.455 -136.332 224.339C-136.668 221.224 -138.166 218.341 -140.536 216.248C-142.905 214.155 -145.98 213.001 -149.164 213.009ZM11.4514 676.586C9.08411 676.586 6.71967 676.747 4.37515 677.069C-8.72162 678.871 -20.5959 685.605 -28.7446 695.853C-36.8932 706.101 -40.6794 719.061 -39.3051 732.002C-37.9308 744.943 -31.5033 756.854 -21.3776 765.223C-11.2519 773.592 1.78096 777.766 14.9732 776.864C28.1656 775.962 40.4867 770.056 49.3392 760.39C58.1916 750.724 62.8837 738.053 62.4264 725.049C61.9691 712.045 56.398 699.724 46.8877 690.683C37.3773 681.643 24.6755 676.588 11.4514 676.586ZM7.07325 696.161C13.2393 695.313 19.5226 696.283 25.1285 698.948C30.7343 701.614 35.4107 705.855 38.5663 711.136C41.7218 716.417 43.2148 722.5 42.8562 728.616C42.4976 734.732 40.3036 740.606 36.5518 745.494C32.8 750.383 27.6589 754.067 21.7787 756.081C15.8985 758.095 9.54356 758.347 3.51756 756.806C-2.50841 755.266 -7.93468 752.001 -12.0748 747.426C-16.215 742.851 -18.883 737.17 -19.7415 731.102C-20.8687 722.974 -18.6815 714.738 -13.6574 708.191C-8.63333 701.644 -1.1806 697.32 7.07325 696.161ZM935.124 -102.726C934.347 -102.724 933.57 -102.671 932.801 -102.567C928.541 -101.979 924.68 -99.786 922.031 -96.4513C919.382 -93.1166 918.152 -88.9004 918.601 -84.6912C919.049 -80.4819 921.141 -76.6084 924.435 -73.8866C927.729 -71.1649 931.968 -69.8077 936.26 -70.101C940.551 -70.3943 944.559 -72.3152 947.439 -75.4587C950.319 -78.6024 951.846 -82.7234 951.699 -86.9532C951.551 -91.1831 949.741 -95.1914 946.649 -98.1338C943.557 -101.076 939.425 -102.723 935.124 -102.726ZM788.103 735.959C784.601 735.951 781.186 737.027 778.34 739.035C775.494 741.042 773.363 743.88 772.247 747.146C771.131 750.412 771.088 753.94 772.123 757.232C773.159 760.523 775.22 763.411 778.015 765.485C779.755 766.794 781.742 767.747 783.861 768.289C785.98 768.831 788.188 768.951 790.355 768.642C794.534 768.066 798.337 765.954 800.997 762.73C803.657 759.507 804.977 755.412 804.692 751.269C804.406 747.126 802.536 743.244 799.458 740.403C796.38 737.562 792.323 735.974 788.103 735.959ZM8.22404 -233.735C5.72282 -233.392 3.17445 -233.787 0.901167 -234.869C-1.37212 -235.951 -3.26821 -237.672 -4.54738 -239.814C-5.82656 -241.957 -6.43135 -244.424 -6.2853 -246.905C-6.13924 -249.386 -5.24889 -251.768 -3.72683 -253.751C-2.20476 -255.734 -0.119343 -257.228 2.26573 -258.044C4.6508 -258.861 7.22847 -258.963 9.67271 -258.339C12.117 -257.714 14.318 -256.39 15.9977 -254.535C17.6773 -252.679 18.76 -250.375 19.1089 -247.914C19.3406 -246.28 19.2429 -244.617 18.8212 -243.02C18.3996 -241.423 17.6624 -239.923 16.6516 -238.606C15.6408 -237.289 14.3763 -236.181 12.9303 -235.346C11.4843 -234.51 9.88508 -233.962 8.22404 -233.735ZM6.46565 -262.601C3.06681 -262.601 -0.251271 -261.581 -3.0447 -259.676C-5.83815 -257.771 -7.97371 -255.072 -9.16576 -251.94C-10.3578 -248.808 -10.5495 -245.393 -9.71511 -242.151C-8.88075 -238.909 -7.06017 -235.996 -4.4969 -233.799C-1.93361 -231.603 1.25017 -230.23 4.62843 -229.862C8.0067 -229.495 11.4183 -230.152 14.4071 -231.744C17.3958 -233.337 19.8191 -235.789 21.3527 -238.773C22.8863 -241.758 23.4571 -245.132 22.9888 -248.444C22.443 -252.372 20.4674 -255.972 17.4288 -258.575C14.3901 -261.178 10.4948 -262.609 6.46565 -262.601ZM6.44191 -237.475C4.14799 -237.481 1.94575 -238.362 0.299055 -239.933C-1.34761 -241.504 -2.3102 -243.643 -2.38582 -245.899C-2.46147 -248.155 -1.64428 -250.352 -0.106433 -252.027C1.43141 -253.701 3.5699 -254.723 5.85847 -254.877C8.14705 -255.032 10.4071 -254.306 12.1625 -252.853C13.9179 -251.4 15.0316 -249.333 15.2691 -247.088C15.5065 -244.843 14.8491 -242.595 13.4353 -240.818C12.0216 -239.04 9.9619 -237.872 7.69011 -237.559C7.27647 -237.503 6.85945 -237.475 6.44191 -237.475ZM1690.53 280.315C1689.75 280.317 1688.97 280.37 1688.19 280.474C1683.92 281.063 1680.05 283.26 1677.39 286.602C1674.74 289.945 1673.5 294.17 1673.95 298.39C1674.4 302.61 1676.49 306.494 1679.79 309.224C1683.09 311.953 1687.34 313.316 1691.64 313.025C1695.95 312.734 1699.97 310.811 1702.85 307.662C1705.74 304.513 1707.28 300.383 1707.13 296.143C1706.99 291.903 1705.18 287.883 1702.08 284.931C1698.99 281.978 1694.85 280.323 1690.53 280.315ZM-449.285 223.345C-450.068 223.347 -450.849 223.4 -451.625 223.506C-456.004 224.114 -459.959 226.405 -462.624 229.878C-465.29 233.35 -466.447 237.72 -465.844 242.031C-465.208 246.331 -462.878 250.212 -459.356 252.834C-455.834 255.456 -451.404 256.607 -447.026 256.04C-442.644 255.434 -438.686 253.143 -436.018 249.67C-433.351 246.196 -432.193 241.823 -432.797 237.51C-433.092 235.372 -433.815 233.312 -434.925 231.451C-436.035 229.59 -437.51 227.964 -439.264 226.667C-442.145 224.511 -445.665 223.344 -449.285 223.345ZM1777.37 -116.088L1840.63 -107.192L1849.68 -169.551C1849.84 -170.702 1850.24 -171.809 1850.84 -172.81C1851.44 -173.81 1852.23 -174.684 1853.17 -175.382C1854.12 -176.079 1855.19 -176.586 1856.34 -176.873C1857.48 -177.16 1858.67 -177.221 1859.84 -177.053C1861.01 -176.886 1862.13 -176.493 1863.14 -175.897C1864.16 -175.301 1865.04 -174.513 1865.74 -173.58C1866.45 -172.646 1866.95 -171.585 1867.24 -170.458C1867.52 -169.331 1867.58 -168.159 1867.4 -167.011L1857.13 -96.2414C1857.13 -96.1505 1857.15 -96.0618 1857.14 -95.9708C1856.88 -94.2533 1856.12 -92.6479 1854.94 -91.3549C1853.76 -90.062 1852.23 -89.1386 1850.52 -88.7C1849.36 -88.3978 1848.15 -88.3303 1846.96 -88.5015L1774.79 -98.6511C1773.61 -98.8038 1772.48 -99.1849 1771.45 -99.7724C1770.43 -100.36 1769.53 -101.142 1768.82 -102.073C1768.1 -103.005 1767.58 -104.067 1767.28 -105.197C1766.99 -106.328 1766.93 -107.506 1767.1 -108.661C1767.27 -109.816 1767.67 -110.926 1768.28 -111.927C1768.89 -112.928 1769.7 -113.799 1770.66 -114.49C1771.61 -115.181 1772.7 -115.678 1773.85 -115.952C1775.01 -116.227 1776.2 -116.273 1777.37 -116.088ZM1858.51 -180.976C1855.41 -180.971 1852.43 -179.868 1850.09 -177.869C1847.76 -175.87 1846.24 -173.11 1845.8 -170.095L1837.3 -111.551L1777.93 -119.912C1774.54 -120.379 1771.11 -119.512 1768.37 -117.501C1765.64 -115.489 1763.82 -112.496 1763.31 -109.172C1763.07 -107.525 1763.16 -105.847 1763.58 -104.235C1763.99 -102.622 1764.73 -101.107 1765.75 -99.7752C1766.76 -98.4436 1768.03 -97.322 1769.49 -96.4748C1770.94 -95.6276 1772.55 -95.0714 1774.23 -94.8382L1846.39 -84.6911C1848.1 -84.4367 1849.84 -84.5322 1851.51 -84.9713C1853.96 -85.603 1856.16 -86.931 1857.85 -88.7896C1859.54 -90.6483 1860.63 -92.955 1861 -95.422L1861.09 -95.9941L1861.06 -96.1926L1871.26 -166.472C1871.74 -169.799 1870.86 -173.178 1868.82 -175.872C1866.78 -178.566 1863.74 -180.357 1860.36 -180.854C1859.75 -180.939 1859.13 -180.979 1858.51 -180.976ZM1843.96 -102.835L1853.55 -169C1853.64 -169.65 1853.86 -170.277 1854.2 -170.843C1854.54 -171.409 1854.99 -171.904 1855.52 -172.298C1856.05 -172.693 1856.66 -172.979 1857.31 -173.141C1857.95 -173.303 1858.62 -173.337 1859.28 -173.241C1859.94 -173.145 1860.58 -172.921 1861.15 -172.582C1861.72 -172.243 1862.22 -171.796 1862.61 -171.267C1863 -170.737 1863.29 -170.136 1863.44 -169.498C1863.6 -168.86 1863.63 -168.198 1863.52 -167.55L1853.18 -96.2276L1853.18 -96.1529C1852.97 -95.2633 1852.52 -94.4459 1851.87 -93.7879C1851.23 -93.1301 1850.42 -92.6562 1849.52 -92.417C1848.87 -92.2716 1848.19 -92.2323 1847.52 -92.3004L1775.34 -102.459C1774.02 -102.651 1772.83 -103.348 1772.02 -104.399C1771.63 -104.918 1771.34 -105.509 1771.17 -106.137C1771.01 -106.765 1770.98 -107.419 1771.07 -108.061C1771.27 -109.368 1771.99 -110.543 1773.07 -111.331C1774.15 -112.118 1775.5 -112.453 1776.83 -112.263L1843.96 -102.835ZM1500.05 151.852C1497.43 151.855 1494.87 152.644 1492.71 154.114C1490.55 155.584 1488.89 157.666 1487.97 160.082L1451.69 254.578C1451.09 256.132 1450.81 257.786 1450.87 259.446C1450.92 261.105 1451.31 262.739 1452 264.252C1452.7 265.765 1453.69 267.128 1454.92 268.264C1456.15 269.4 1457.6 270.287 1459.18 270.873C1460.76 271.459 1462.44 271.733 1464.13 271.68C1465.81 271.627 1467.47 271.248 1469.01 270.563C1470.55 269.879 1471.93 268.904 1473.09 267.692C1474.24 266.481 1475.14 265.058 1475.74 263.504L1512.01 168.999C1512.75 167.089 1513.01 165.03 1512.77 162.999C1512.52 160.967 1511.78 159.025 1510.61 157.338C1509.43 155.651 1507.86 154.27 1506.02 153.314C1504.18 152.357 1502.13 151.859 1500.05 151.852ZM147.848 163.552C145.481 163.551 143.118 163.713 140.774 164.037C127.679 165.843 115.807 172.581 107.662 182.831C99.5168 193.081 95.7345 206.042 97.1124 218.982C98.4903 231.922 104.921 243.83 115.048 252.197C125.176 260.563 138.209 264.733 151.4 263.829C164.592 262.924 176.911 257.016 185.762 247.348C194.612 237.681 199.302 225.01 198.842 212.007C198.383 199.004 192.81 186.684 183.299 177.645C173.788 168.605 161.081 163.553 147.858 163.552L147.848 163.552ZM143.472 183.127C149.638 182.279 155.922 183.248 161.528 185.914C167.133 188.579 171.81 192.821 174.965 198.102C178.121 203.383 179.614 209.466 179.255 215.582C178.897 221.698 176.703 227.571 172.951 232.46C169.199 237.349 164.058 241.033 158.178 243.047C152.298 245.06 145.943 245.313 139.917 243.772C133.891 242.232 128.464 238.967 124.324 234.392C120.184 229.816 117.516 224.136 116.658 218.068C115.53 209.94 117.718 201.703 122.742 195.157C127.766 188.61 135.218 184.285 143.472 183.127ZM924.504 222.925C921.003 222.917 917.588 223.993 914.743 226C911.897 228.008 909.766 230.845 908.65 234.11C907.534 237.376 907.49 240.904 908.525 244.195C909.559 247.486 911.62 250.374 914.415 252.449C916.154 253.758 918.141 254.711 920.26 255.254C922.379 255.796 924.587 255.917 926.754 255.608C930.932 255.032 934.734 252.921 937.394 249.699C940.054 246.476 941.376 242.382 941.092 238.241C940.808 234.099 938.94 230.216 935.864 227.375C932.789 224.533 928.733 222.943 924.514 222.925L924.504 222.925ZM170.839 -276.317C168.338 -275.974 165.79 -276.369 163.518 -277.451C161.245 -278.533 159.349 -280.253 158.07 -282.395C156.791 -284.537 156.186 -287.005 156.332 -289.485C156.478 -291.965 157.368 -294.347 158.89 -296.329C160.412 -298.312 162.497 -299.805 164.881 -300.622C167.266 -301.439 169.843 -301.541 172.287 -300.917C174.731 -300.292 176.931 -298.969 178.611 -297.113C180.29 -295.258 181.373 -292.955 181.722 -290.494C182.189 -287.194 181.305 -283.847 179.264 -281.189C177.223 -278.53 174.193 -276.778 170.839 -276.317ZM169.088 -305.185C168.32 -305.187 167.553 -305.136 166.793 -305.031C162.505 -304.449 158.615 -302.251 155.942 -298.901C153.269 -295.551 152.023 -291.311 152.466 -287.075C152.91 -282.838 155.008 -278.936 158.318 -276.192C161.629 -273.449 165.893 -272.077 170.212 -272.367C174.53 -272.657 178.565 -274.586 181.466 -277.747C184.367 -280.908 185.907 -285.054 185.762 -289.31C185.616 -293.567 183.796 -297.602 180.685 -300.563C177.574 -303.525 173.416 -305.182 169.088 -305.185ZM169.064 -280.06C166.78 -280.07 164.588 -280.952 162.952 -282.521C161.315 -284.089 160.361 -286.221 160.29 -288.468C160.22 -290.714 161.038 -292.9 162.573 -294.565C164.108 -296.23 166.239 -297.244 168.519 -297.393C170.798 -297.543 173.048 -296.816 174.793 -295.365C176.539 -293.915 177.644 -291.855 177.876 -289.619C178.109 -287.383 177.45 -285.145 176.039 -283.377C174.628 -281.61 172.575 -280.449 170.312 -280.142C169.896 -280.084 169.475 -280.056 169.055 -280.055L169.064 -280.06Z" fill="#BEC2C9"/>
</g>
<path fill-rule="evenodd" clip-rule="evenodd" d="M790.058 -155.033C787.323 -155.032 784.63 -154.368 782.215 -153.1C779.8 -151.832 777.737 -149.998 776.207 -147.758C774.676 -145.519 773.725 -142.943 773.437 -140.256C773.149 -137.57 773.532 -134.854 774.553 -132.348C775.575 -129.841 777.203 -127.621 779.295 -125.88C781.387 -124.14 783.88 -122.934 786.554 -122.366C789.228 -121.799 792.002 -121.888 794.633 -122.627C797.264 -123.365 799.671 -124.729 801.644 -126.601C804.029 -128.863 805.682 -131.774 806.393 -134.965C807.104 -138.156 806.841 -141.483 805.638 -144.527C804.435 -147.57 802.345 -150.192 799.633 -152.062C796.922 -153.933 793.709 -154.966 790.403 -155.033L790.058 -155.033ZM1446.41 667.052C1443.88 666.997 1441.43 666.202 1439.35 664.768C1437.28 663.335 1435.69 661.327 1434.77 658.999C1433.86 656.671 1433.66 654.127 1434.21 651.688C1434.75 649.249 1436.02 647.024 1437.85 645.296C1439.67 643.568 1441.97 642.413 1444.46 641.978C1446.95 641.542 1449.52 641.845 1451.83 642.849C1454.15 643.853 1456.11 645.513 1457.47 647.618C1458.84 649.723 1459.53 652.18 1459.48 654.677C1459.45 656.338 1459.08 657.976 1458.41 659.497C1457.73 661.018 1456.76 662.393 1455.54 663.542C1454.33 664.691 1452.9 665.593 1451.33 666.195C1449.76 666.798 1448.09 667.089 1446.41 667.052ZM1446.65 637.906C1442.25 637.924 1438.04 639.649 1434.93 642.709C1431.81 645.769 1430.04 649.918 1430 654.258C1429.96 658.598 1431.65 662.78 1434.7 665.899C1437.75 669.019 1441.93 670.825 1446.32 670.927C1448.52 670.994 1450.71 670.621 1452.76 669.831C1454.81 669.04 1456.67 667.85 1458.25 666.329C1460.63 664.067 1462.28 661.157 1462.99 657.967C1463.7 654.778 1463.44 651.452 1462.23 648.411C1461.03 645.369 1458.94 642.749 1456.23 640.881C1453.52 639.012 1450.31 637.981 1447 637.916L1446.65 637.916L1446.65 637.906ZM1446.48 663.173C1444.72 663.138 1443.02 662.589 1441.58 661.598C1440.15 660.607 1439.04 659.216 1438.4 657.603C1437.76 655.99 1437.62 654.227 1438 652.536C1438.38 650.844 1439.25 649.302 1440.52 648.102C1442.27 646.587 1444.51 645.725 1446.84 645.665C1448.59 645.699 1450.3 646.245 1451.74 647.236C1453.17 648.227 1454.28 649.617 1454.92 651.23C1455.56 652.844 1455.7 654.608 1455.32 656.3C1454.95 657.992 1454.07 659.536 1452.81 660.736C1451.08 662.293 1448.82 663.161 1446.49 663.173L1446.48 663.173ZM-278.187 8.69006C-278.973 8.6914 -279.759 8.7456 -280.538 8.85217C-282.727 9.13391 -284.838 9.84106 -286.749 10.9331C-288.659 12.0251 -290.332 13.4803 -291.671 15.2145C-293.009 16.9486 -293.987 18.9276 -294.547 21.037C-295.107 23.1464 -295.239 25.3445 -294.934 27.5045C-294.63 29.6644 -293.895 31.7433 -292.773 33.6213C-291.65 35.4992 -290.163 37.1389 -288.396 38.4458C-286.628 39.7527 -284.617 40.7007 -282.476 41.2354C-280.336 41.77 -278.11 41.8805 -275.926 41.5606C-271.74 40.9814 -267.93 38.8567 -265.266 35.6143C-262.601 32.3718 -261.279 28.2525 -261.565 24.0857C-261.852 19.9188 -263.726 16.014 -266.81 13.1575C-269.894 10.3009 -273.959 8.70447 -278.187 8.69006ZM150.171 1047.23C147.666 1047.58 145.113 1047.18 142.837 1046.09C140.561 1045 138.663 1043.27 137.383 1041.11C136.103 1038.96 135.499 1036.47 135.646 1033.98C135.794 1031.48 136.687 1029.09 138.213 1027.1C139.738 1025.1 141.828 1023.6 144.217 1022.78C146.606 1021.96 149.188 1021.86 151.636 1022.49C154.084 1023.12 156.288 1024.45 157.97 1026.32C159.652 1028.18 160.735 1030.5 161.084 1032.97C161.55 1036.3 160.662 1039.66 158.616 1042.34C156.569 1045.01 153.532 1046.77 150.171 1047.23ZM148.438 1018.2C147.654 1018.2 146.871 1018.26 146.095 1018.36C143.92 1018.66 141.827 1019.38 139.935 1020.48C138.042 1021.58 136.387 1023.04 135.064 1024.77C133.741 1026.5 132.776 1028.47 132.224 1030.57C131.672 1032.67 131.544 1034.85 131.848 1037C132.151 1039.15 132.879 1041.22 133.992 1043.09C135.104 1044.96 136.578 1046.59 138.33 1047.9C140.082 1049.2 142.077 1050.16 144.202 1050.7C146.326 1051.25 148.539 1051.37 150.713 1051.08C154.905 1050.5 158.719 1048.37 161.387 1045.13C164.055 1041.89 165.379 1037.76 165.09 1033.59C164.801 1029.42 162.922 1025.51 159.832 1022.66C156.742 1019.8 152.67 1018.21 148.438 1018.2ZM148.403 1043.48C146.158 1043.48 143.997 1042.63 142.356 1041.12C140.716 1039.61 139.717 1037.53 139.562 1035.32C139.407 1033.11 140.107 1030.92 141.521 1029.2C142.935 1027.48 144.958 1026.35 147.181 1026.04C148.918 1025.8 150.688 1026.08 152.267 1026.83C153.846 1027.58 155.163 1028.78 156.052 1030.28C156.941 1031.77 157.362 1033.49 157.262 1035.22C157.161 1036.95 156.544 1038.61 155.489 1040C154.662 1041.08 153.592 1041.96 152.362 1042.56C151.132 1043.17 149.776 1043.48 148.403 1043.48ZM1328.26 291.914C1323.84 291.895 1319.6 293.603 1316.45 296.665C1313.3 299.728 1311.51 303.897 1311.47 308.26C1311.42 312.624 1313.12 316.828 1316.21 319.955C1319.29 323.081 1323.5 324.876 1327.91 324.947C1332.33 324.939 1336.59 323.296 1339.84 320.342C1341.43 318.846 1342.71 317.052 1343.59 315.065C1344.47 313.078 1344.95 310.938 1344.99 308.768C1345.07 304.39 1343.39 300.159 1340.32 297.001C1337.25 293.842 1333.04 292.014 1328.61 291.914L1328.26 291.914Z" fill="#FA9531"/>
</g>
<defs>
<filter id="filter0_f_1002_3797" x="-511" y="-399.594" width="2485.69" height="1552.99" filterUnits="userSpaceOnUse" color-interpolation-filters="sRGB">
<feFlood flood-opacity="0" result="BackgroundImageFix"/>
<feBlend mode="normal" in="SourceGraphic" in2="BackgroundImageFix" result="shape"/>
<feGaussianBlur stdDeviation="22.5" result="effect1_foregroundBlur_1002_3797"/>
</filter>
<filter id="filter1_f_1002_3797" x="-419.073" y="-357.897" width="2247.46" height="1469.6" filterUnits="userSpaceOnUse" color-interpolation-filters="sRGB">
<feFlood flood-opacity="0" result="BackgroundImageFix"/>
<feBlend mode="normal" in="SourceGraphic" in2="BackgroundImageFix" result="shape"/>
<feGaussianBlur stdDeviation="1.65167" result="effect1_foregroundBlur_1002_3797"/>
</filter>
<filter id="filter2_f_1002_3797" x="-416.905" y="-249.381" width="2242.17" height="1315.99" filterUnits="userSpaceOnUse" color-interpolation-filters="sRGB">
<feFlood flood-opacity="0" result="BackgroundImageFix"/>
<feBlend mode="normal" in="SourceGraphic" in2="BackgroundImageFix" result="shape"/>
<feGaussianBlur stdDeviation="6.60667" result="effect1_foregroundBlur_1002_3797"/>
</filter>
<filter id="filter3_f_1002_3797" x="280.305" y="-319.201" width="1653.38" height="1399.82" filterUnits="userSpaceOnUse" color-interpolation-filters="sRGB">
<feFlood flood-opacity="0" result="BackgroundImageFix"/>
<feBlend mode="normal" in="SourceGraphic" in2="BackgroundImageFix" result="shape"/>
<feGaussianBlur stdDeviation="2" result="effect1_foregroundBlur_1002_3797"/>
</filter>
<filter id="filter4_f_1002_3797" x="-492.427" y="-331.612" width="2390.24" height="1367.11" filterUnits="userSpaceOnUse" color-interpolation-filters="sRGB">
<feFlood flood-opacity="0" result="BackgroundImageFix"/>
<feBlend mode="normal" in="SourceGraphic" in2="BackgroundImageFix" result="shape"/>
<feGaussianBlur stdDeviation="13.2133" result="effect1_foregroundBlur_1002_3797"/>
</filter>
</defs>
</svg>
