<svg width="550" height="370" viewBox="0 0 550 370" fill="none" xmlns="http://www.w3.org/2000/svg">
<g filter="url(#filter0_d_1002_3941)">
<rect x="36" y="32" width="478" height="298" rx="20" fill="white"/>
</g>
<g filter="url(#filter1_d_1002_3941)">
<circle cx="360" cy="289" r="12" fill="url(#paint0_linear_1002_3941)"/>
</g>
<g clip-path="url(#clip0_1002_3941)">
<path d="M358.353 294.42V293.549H357.706C356.188 293.549 354.969 292.329 354.969 290.811V287.452C354.969 285.934 356.188 284.714 357.706 284.714H362.235C363.753 284.714 364.973 285.934 364.973 287.452V290.811C364.973 292.329 363.753 293.549 362.235 293.549H359.821L358.353 294.42ZM357.706 285.461C356.611 285.461 355.715 286.357 355.715 287.452V290.811C355.715 291.906 356.611 292.802 357.706 292.802H358.353V293.549L359.622 292.802H362.235C363.33 292.802 364.226 291.906 364.226 290.811V287.452C364.226 286.357 363.33 285.461 362.235 285.461H357.706Z" fill="white"/>
</g>
<g filter="url(#filter2_d_1002_3941)">
<circle cx="296" cy="289" r="12" fill="url(#paint1_linear_1002_3941)"/>
</g>
<path d="M291.219 288.574H293.548C293.665 288.574 293.742 288.651 293.742 288.768V292.048C293.742 292.339 293.509 292.572 293.218 292.572C292.112 292.591 291.2 291.66 291.219 290.553" stroke="white" stroke-miterlimit="10"/>
<path d="M300.923 290.573V288.069C300.923 285.39 298.75 283.217 296.071 283.217C293.393 283.217 291.219 285.39 291.219 288.069V290.573" stroke="white" stroke-miterlimit="10"/>
<path d="M300.926 288.574H298.596C298.48 288.574 298.402 288.652 298.402 288.768V292.048C298.402 292.339 298.635 292.572 298.926 292.572C300.033 292.572 300.945 291.66 300.926 290.534" stroke="white" stroke-miterlimit="10"/>
<path d="M298.924 292.591C298.924 292.591 298.574 294.649 295.469 294.649" stroke="white" stroke-miterlimit="10" stroke-linecap="round"/>
<g filter="url(#filter3_d_1002_3941)">
<circle cx="264.473" cy="289" r="12" fill="url(#paint2_linear_1002_3941)"/>
</g>
<path d="M263.426 285.463C263.21 286.202 262.528 286.741 261.72 286.741C260.911 286.741 260.229 286.202 260.013 285.463H263.426Z" stroke="white"/>
<path d="M265.344 289V285.463H268.315L265.344 289Z" stroke="white"/>
<path d="M265.402 292.252C265.618 291.514 266.3 290.974 267.109 290.974C267.917 290.974 268.599 291.514 268.815 292.252L265.402 292.252Z" stroke="white"/>
<path d="M263.484 288.716L263.484 292.253L260.513 292.253L263.484 288.716Z" stroke="white"/>
<g filter="url(#filter4_d_1002_3941)">
<circle cx="392" cy="289" r="12" fill="url(#paint3_linear_1002_3941)"/>
</g>
<g clip-path="url(#clip1_1002_3941)">
<path d="M395.629 284.391C396.102 285.038 396.052 285.984 395.455 286.556L388.387 293.623C387.914 292.976 387.964 292.031 388.561 291.458L395.629 284.391ZM395.629 283.47C395.529 283.47 395.43 283.52 395.33 283.595L388.014 290.911C387.068 291.857 387.068 293.399 388.014 294.345L388.064 294.395C388.138 294.47 388.238 294.519 388.362 294.519C388.462 294.519 388.561 294.47 388.661 294.395L395.977 287.079C396.923 286.133 396.923 284.59 395.977 283.644L395.927 283.595C395.853 283.52 395.728 283.47 395.629 283.47Z" fill="white"/>
<path d="M390.377 284.117C390.925 284.665 390.925 285.561 390.377 286.133L388.138 288.373C387.59 287.825 387.59 286.929 388.138 286.357L390.377 284.117ZM390.377 283.221C390.278 283.221 390.203 283.246 390.128 283.321L387.615 285.859C386.769 286.705 386.769 288.074 387.615 288.92L387.864 289.194C387.939 289.268 388.038 289.293 388.113 289.293C388.212 289.293 388.287 289.268 388.362 289.194L390.875 286.68C391.721 285.834 391.721 284.466 390.875 283.619L390.601 283.346C390.576 283.246 390.477 283.221 390.377 283.221Z" fill="white"/>
<path d="M395.879 289.617C396.426 290.165 396.426 291.061 395.879 291.633L393.639 293.873C393.365 293.599 393.241 293.25 393.241 292.877C393.241 292.504 393.39 292.131 393.664 291.882L395.879 289.617ZM395.879 288.721C395.779 288.721 395.705 288.746 395.63 288.821L393.092 291.334C392.246 292.18 392.246 293.549 393.092 294.395L393.365 294.669C393.44 294.744 393.54 294.768 393.614 294.768C393.714 294.768 393.788 294.744 393.863 294.669L396.376 292.156C397.223 291.309 397.223 289.941 396.376 289.095L396.103 288.821C396.053 288.746 395.978 288.721 395.879 288.721Z" fill="white"/>
</g>
<g filter="url(#filter5_d_1002_3941)">
<circle cx="424" cy="289" r="12" fill="url(#paint4_linear_1002_3941)"/>
</g>
<path d="M425.883 292.178L424.271 289.55L425.705 286.861L428.798 292.178H425.883Z" stroke="white"/>
<path d="M419.818 292.179L424.221 284.245L425.61 286.704L422.457 292.179H419.818Z" stroke="white"/>
<g filter="url(#filter6_d_1002_3941)">
<circle cx="328" cy="289" r="12" fill="url(#paint5_linear_1002_3941)"/>
</g>
<path d="M328.069 291.433C327.87 291.433 327.695 291.259 327.695 291.06V284.341C327.695 284.142 327.87 283.968 328.069 283.968C328.268 283.968 328.442 284.142 328.442 284.341V291.06C328.442 291.259 328.268 291.433 328.069 291.433Z" fill="white"/>
<path d="M330.557 290.986C330.358 290.986 330.184 290.812 330.184 290.612V284.789C330.184 284.59 330.358 284.416 330.557 284.416C330.756 284.416 330.93 284.59 330.93 284.789V290.588C330.93 290.812 330.756 290.986 330.557 290.986Z" fill="white"/>
<path d="M333.045 290.412C332.846 290.412 332.672 290.238 332.672 290.039V285.361C332.672 285.162 332.846 284.987 333.045 284.987C333.244 284.987 333.418 285.162 333.418 285.361V290.039C333.418 290.238 333.244 290.412 333.045 290.412Z" fill="white"/>
<path d="M325.58 284.416C325.779 284.416 325.954 284.59 325.954 284.789V290.588C325.954 290.787 325.779 290.961 325.58 290.961C325.381 290.961 325.207 290.787 325.207 290.588V284.789C325.207 284.59 325.381 284.416 325.58 284.416Z" fill="white"/>
<path d="M323.092 284.988C323.291 284.988 323.465 285.162 323.465 285.362V290.04C323.465 290.239 323.291 290.413 323.092 290.413C322.893 290.413 322.719 290.239 322.719 290.04V285.362C322.719 285.162 322.893 284.988 323.092 284.988Z" fill="white"/>
<path d="M323.094 292.155C323.094 292.155 327.374 295.39 333.048 292.155" stroke="white" stroke-miterlimit="10" stroke-linecap="round"/>
<path d="M450.188 298.172C450.188 297.823 450.266 297.56 450.422 297.383C450.583 297.201 450.812 297.109 451.109 297.109C451.411 297.109 451.646 297.201 451.812 297.383C451.984 297.56 452.07 297.823 452.07 298.172C452.07 298.51 451.984 298.771 451.812 298.953C451.641 299.135 451.406 299.227 451.109 299.227C450.844 299.227 450.622 299.146 450.445 298.984C450.273 298.818 450.188 298.547 450.188 298.172ZM454.453 298.172C454.453 297.823 454.531 297.56 454.688 297.383C454.849 297.201 455.078 297.109 455.375 297.109C455.677 297.109 455.911 297.201 456.078 297.383C456.25 297.56 456.336 297.823 456.336 298.172C456.336 298.51 456.25 298.771 456.078 298.953C455.906 299.135 455.672 299.227 455.375 299.227C455.109 299.227 454.888 299.146 454.711 298.984C454.539 298.818 454.453 298.547 454.453 298.172ZM458.719 298.172C458.719 297.823 458.797 297.56 458.953 297.383C459.115 297.201 459.344 297.109 459.641 297.109C459.943 297.109 460.177 297.201 460.344 297.383C460.516 297.56 460.602 297.823 460.602 298.172C460.602 298.51 460.516 298.771 460.344 298.953C460.172 299.135 459.938 299.227 459.641 299.227C459.375 299.227 459.154 299.146 458.977 298.984C458.805 298.818 458.719 298.547 458.719 298.172Z" fill="#BEC2C9"/>
<path opacity="0.06" d="M77.4727 265H463.473" stroke="black" stroke-width="0.5"/>
<path opacity="0.06" d="M77.4727 216H463.473" stroke="black" stroke-width="0.5"/>
<path opacity="0.06" d="M77.4727 166H463.473" stroke="black" stroke-width="0.5"/>
<path opacity="0.06" d="M77.4727 118H463.473" stroke="url(#paint6_linear_1002_3941)" stroke-width="0.5"/>
<path d="M76.4492 240C76.4492 240 90.7669 242.5 131.483 234.5C171.997 226.54 168.619 216 198.149 216C231.29 216 239.383 207.5 255.868 207.5C289.364 207.5 282.211 201.003 310.006 197.503C343.153 193.329 376.511 171.501 400.387 166.001C442.701 156.254 432.601 149.001 463.026 142.001" stroke="url(#paint7_linear_1002_3941)" stroke-dasharray="3 3"/>
<path d="M76.4727 254C76.4727 254 89.2568 247.5 129.973 239.5C170.487 231.54 159.473 234 187.973 226C219.88 217.044 240.988 214.5 257.473 214.5C290.969 214.5 281.677 196.5 309.473 193C342.619 188.826 371.473 182 399.473 164C435.998 140.519 432.601 137.5 463.026 130.5" stroke="url(#paint8_linear_1002_3941)" stroke-dasharray="3 3"/>
<path d="M76.4727 250.5C76.4727 250.5 92.2568 243 132.973 235C173.487 227.04 167.973 231 196.473 223C228.38 214.044 244.592 201.151 260.973 203C291.973 206.5 290.177 190 317.973 186.5C351.119 182.326 362.591 187.599 393.973 176.5C434.973 162 432.601 174 463.026 167" stroke="url(#paint9_linear_1002_3941)" stroke-dasharray="3 3"/>
<path d="M76.4727 260C76.4727 260 93.9727 246 131.973 242.5C170.012 238.996 170.973 232.5 200.473 228C233.234 223.003 266.092 218.651 282.473 220.5C313.473 224 308.177 210.5 335.973 207C369.119 202.826 364.473 190.5 396.973 185C439.852 177.744 434.601 183 465.026 176" stroke="url(#paint10_linear_1002_3941)" stroke-dasharray="3 3"/>
<path d="M77.3438 223.5C77.3438 223.5 96.5831 211 137.299 203C177.814 195.04 170.8 184.5 201.729 184.5C234.869 184.5 236.698 175.501 253.183 175.501C286.679 175.501 300.555 159.501 328.35 156.001C361.497 151.828 372.484 154 396.359 148.5C438.673 138.753 433.943 132.5 461.684 117" stroke="url(#paint11_linear_1002_3941)" stroke-dasharray="3 3"/>
<path d="M76.8945 245.5C76.8945 245.5 107.32 231 148.035 223C188.55 215.04 190.485 201.5 221.414 201.5C254.554 201.5 263.472 195.5 284.948 186C316.094 172.223 313.081 179 340.877 175.5C374.023 171.326 372.482 165 396.358 159.5C438.672 149.753 431.257 153.5 458.997 138" stroke="url(#paint12_linear_1002_3941)" stroke-dasharray="3 3"/>
<path d="M127 252C84 261.5 76 264.573 76 264.573H463.472V121.504C463.472 104.503 436.533 181.256 394.219 191.003C370.344 196.503 350.751 218.83 317.604 223.003C289.809 226.503 286.5 227 255 229.5C238.567 230.804 220 235.5 188.962 238.503C157.583 241.54 167.205 243.117 127 252Z" fill="url(#paint13_linear_1002_3941)"/>
<path d="M76 264.573C76 264.573 78.5 263.5 116 254.5C156.038 244.891 158.279 242.386 188.962 238.503C228.5 233.5 228 231.25 264 229C296 227 289.809 226.503 317.604 223.003C350.751 218.829 370.796 198.19 394.219 191.003C434.972 178.5 455.472 123.5 463.472 118.5" stroke="url(#paint14_linear_1002_3941)" stroke-width="2"/>
<circle cx="414.5" cy="180.5" r="3.5" fill="white" stroke="url(#paint15_linear_1002_3941)" stroke-width="2"/>
<circle cx="288.973" cy="227.5" r="3.5" fill="white" stroke="url(#paint16_linear_1002_3941)" stroke-width="2"/>
<circle cx="180.973" cy="239.5" r="3.5" fill="white" stroke="url(#paint17_linear_1002_3941)" stroke-width="2"/>
<g filter="url(#filter7_d_1002_3941)">
<circle cx="462.473" cy="111.352" r="15" fill="url(#paint18_linear_1002_3941)"/>
</g>
<g filter="url(#filter8_d_1002_3941)">
<path d="M466.828 104.093H457.876C456.425 104.093 455.215 105.92 455.215 107.13V121.513L458.215 118.658H467.795C469.005 118.658 469.973 117.884 469.973 116.432V107.13C469.973 105.437 468.763 104.093 466.828 104.093Z" fill="white"/>
<circle cx="459.085" cy="111.351" r="0.967742" fill="#FA9531"/>
<circle cx="462.472" cy="111.352" r="0.967742" fill="#FA9531"/>
<circle cx="465.858" cy="111.352" r="0.967742" fill="#FA9531"/>
</g>
<path d="M449.747 78.343C447.956 80.9423 450.093 82.1201 450.093 82.1201C449.093 81.4312 448.693 81.1557 446.116 82.3288C447.694 80.4669 445.267 78.8036 446.232 79.1649C447.169 79.516 448.908 78.8466 449.747 78.343Z" stroke="url(#paint19_linear_1002_3941)" stroke-linejoin="round"/>
<path d="M480.295 101.2C478.845 99.7706 477.858 100.995 477.858 100.995C478.407 100.438 478.627 100.215 478.172 98.447C479.177 99.6575 480.505 98.3037 480.168 98.8756C479.839 99.4315 480.069 100.611 480.295 101.2Z" stroke="url(#paint20_linear_1002_3941)" stroke-linejoin="round"/>
<circle cx="453.018" cy="94.5461" r="1.26239" transform="rotate(75 453.018 94.5461)" fill="url(#paint21_linear_1002_3941)"/>
<path d="M486.872 95.7655C486.198 95.9459 485.506 95.5463 485.325 94.8728C485.145 94.1994 485.545 93.5072 486.218 93.3267C486.892 93.1463 487.584 93.5459 487.764 94.2194C487.945 94.8928 487.545 95.585 486.872 95.7655Z" fill="url(#paint22_linear_1002_3941)"/>
<path d="M479.348 87.4274L479.767 87.2713L476.728 93.1553L476.699 93.2118L476.677 93.2715L475.002 97.8638L468.923 94.4569L468.785 94.3796L468.63 94.3486L461.354 92.8963L463.033 88.2948L463.055 88.2351L463.069 88.1731L464.532 81.7143L464.752 82.1033L466.613 85.3944L467.035 86.1412L467.837 85.8374L471.37 84.4997L472.271 84.1585L472.741 85L474.583 88.2979L475.001 89.0469L475.805 88.7474L479.348 87.4274ZM480.201 86.4308L479.801 85.8934C479.509 85.5007 479.417 84.9787 479.594 84.4931C479.875 83.7231 480.732 83.3243 481.502 83.6051C482.272 83.886 482.67 84.743 482.39 85.5129C482.156 86.1535 481.521 86.5402 480.867 86.4855L480.201 86.4298L480.201 86.4308ZM465.393 80.6379L464.741 80.7917L464.741 80.7904L464.196 80.4046C463.661 80.0255 463.424 79.3206 463.657 78.68C463.938 77.9101 464.795 77.5112 465.565 77.792C466.335 78.0729 466.734 78.9299 466.453 79.6999C466.276 80.1854 465.869 80.5255 465.393 80.6379ZM473.375 83.5414L472.41 83.779L471.824 82.9755C471.539 82.5842 471.45 82.0676 471.625 81.5866C471.906 80.8167 472.763 80.4178 473.533 80.6986C474.303 80.9795 474.702 81.8365 474.421 82.6064C474.246 83.0875 473.845 83.4257 473.375 83.5414Z" stroke="url(#paint23_linear_1002_3941)" stroke-width="2"/>
<circle cx="465.031" cy="91.4822" r="0.766032" transform="rotate(20.0401 465.031 91.4822)" fill="url(#paint24_linear_1002_3941)"/>
<circle cx="469.352" cy="93.0583" r="0.766032" transform="rotate(20.0401 469.352 93.0583)" fill="url(#paint25_linear_1002_3941)"/>
<circle cx="473.188" cy="94.4568" r="0.766032" transform="rotate(20.0401 473.188 94.4568)" fill="url(#paint26_linear_1002_3941)"/>
<g clip-path="url(#clip2_1002_3941)">
<path d="M115.627 151.866C121.076 150.969 124.767 145.824 123.87 140.375C122.973 134.925 117.828 131.235 112.379 132.132C106.929 133.029 103.239 138.173 104.136 143.623C105.033 149.072 110.177 152.763 115.627 151.866Z" fill="#FFCE00"/>
<path d="M114.12 143.732C113.358 143.732 112.665 144.056 112.203 144.564H116.014C115.552 144.056 114.882 143.732 114.12 143.732Z" fill="white"/>
<path d="M115.666 148.259C116.289 147.797 116.682 147.081 116.682 146.25C116.682 145.603 116.428 145.026 116.035 144.564H112.201C111.786 145.003 111.555 145.603 111.555 146.25C111.555 147.081 111.947 147.797 112.571 148.259C113.01 148.005 113.541 147.843 114.118 147.843C114.672 147.843 115.204 148.005 115.666 148.259Z" fill="#562912"/>
<path d="M115.665 148.259C115.226 148.005 114.695 147.843 114.118 147.843C113.54 147.843 113.009 147.982 112.57 148.259C113.009 148.582 113.54 148.767 114.118 148.767C114.695 148.767 115.226 148.582 115.665 148.259Z" fill="#CC342F"/>
<path d="M107.95 137.843C107.881 137.843 107.789 137.82 107.742 137.751C107.65 137.635 107.65 137.451 107.766 137.358C108.412 136.804 109.244 136.457 110.075 136.388C110.237 136.365 110.375 136.481 110.375 136.642C110.398 136.804 110.283 136.942 110.121 136.942C109.382 137.012 108.689 137.312 108.135 137.797C108.089 137.82 108.02 137.843 107.95 137.843Z" fill="#562912"/>
<path d="M120.029 137.843C119.96 137.843 119.891 137.82 119.844 137.774C119.29 137.289 118.574 136.989 117.835 136.919C117.673 136.896 117.558 136.758 117.581 136.619C117.604 136.458 117.743 136.342 117.881 136.365C118.736 136.434 119.544 136.781 120.191 137.335C120.306 137.427 120.329 137.612 120.214 137.728C120.191 137.797 120.121 137.843 120.029 137.843Z" fill="#562912"/>
<path d="M120.379 140.454C120.379 141.655 119.432 142.648 118.277 142.648C117.123 142.648 116.176 141.678 116.176 140.454C116.176 139.253 117.123 138.26 118.277 138.26C119.432 138.283 120.379 139.253 120.379 140.454Z" fill="white"/>
<path d="M119.157 140.453C119.157 140.961 118.764 141.377 118.256 141.377C117.748 141.377 117.355 140.961 117.355 140.453C117.355 139.945 117.748 139.529 118.256 139.529C118.764 139.529 119.157 139.945 119.157 140.453Z" fill="#562912"/>
<path d="M111.856 140.454C111.856 141.655 110.909 142.648 109.754 142.648C108.599 142.648 107.652 141.678 107.652 140.454C107.652 139.253 108.599 138.26 109.754 138.26C110.909 138.283 111.856 139.253 111.856 140.454Z" fill="white"/>
<path d="M110.633 140.453C110.633 140.961 110.241 141.377 109.733 141.377C109.225 141.377 108.832 140.961 108.832 140.453C108.832 139.945 109.225 139.529 109.733 139.529C110.241 139.529 110.633 139.945 110.633 140.453Z" fill="#562912"/>
</g>
<g clip-path="url(#clip3_1002_3941)">
<path d="M186.096 81.4839L185.801 81.6524V81.2734C185.801 81.1892 185.801 81.2313 185.801 81.2313L185.758 81.105L185.632 80.8524C185.548 80.6839 185.463 80.5155 185.379 80.3471C185.21 80.0102 185 79.6734 184.789 79.3366C184.367 78.6629 183.903 78.0313 183.397 77.4418C182.386 76.2629 181.163 75.2524 179.814 74.4102C177.158 72.7681 173.996 71.9681 170.876 71.9681C167.756 71.9681 164.637 72.7681 161.981 74.326C159.282 75.8418 157.09 78.1576 155.572 80.8524L155.235 81.4839L154.645 81.105C153.043 80.0945 151.272 79.3366 149.417 78.9997C147.562 78.6629 145.665 78.705 143.894 79.2102C143.009 79.4629 142.166 79.8418 141.365 80.3471C140.606 80.8102 139.973 81.4418 139.425 82.1576C138.877 82.8734 138.413 83.7155 137.992 84.5576C137.781 84.9787 137.612 85.4418 137.402 85.8629C137.233 86.2839 137.064 86.7471 136.938 87.1681L136.601 88.305L135.589 87.5471C134.493 86.705 132.975 86.4102 131.541 86.6208C130.108 86.8313 128.717 87.505 127.747 88.5576C126.777 89.6102 126.272 90.9997 126.272 92.4734C126.272 93.9471 126.777 95.4208 127.494 96.7681L127.874 97.4418L127.241 97.9471C125.007 99.7155 123.489 102.41 123.11 105.231C122.688 108.052 123.405 111 125.218 113.189C126.103 114.284 127.241 115.168 128.506 115.842C129.771 116.516 131.162 116.937 132.595 117.231C135.504 117.779 138.54 117.652 141.491 117.189L142.587 117.021L142.714 118.073C142.798 118.916 142.756 119.716 142.672 120.473C142.587 121.231 142.419 121.989 142.25 122.747C141.87 124.221 141.322 125.652 140.606 126.958C139.763 128.558 138.751 130.073 137.57 131.463C138.329 131.252 139.088 131 139.847 130.747C141.66 130.073 143.43 129.273 145.075 128.263C146.719 127.252 148.237 126.073 149.586 124.726C150.26 124.052 150.85 123.294 151.399 122.537C151.947 121.779 152.41 120.937 152.663 120.137L153.254 118.452L154.35 119.842C155.53 121.358 157.174 122.494 158.987 123.168C160.8 123.8 162.824 123.968 164.763 123.631C166.702 123.294 168.6 122.537 170.159 121.358C171.719 120.179 172.984 118.621 173.701 116.768L174.165 115.589L175.008 116.473C176.315 117.821 178.254 118.537 180.193 118.663C182.175 118.789 184.199 118.41 186.054 117.694C187.909 116.937 189.637 115.8 190.986 114.326C192.335 112.852 193.221 111 193.558 109.021L193.642 108.642L194.022 108.558C195.919 108.137 197.647 107.168 199.081 105.779C200.472 104.431 201.526 102.663 201.948 100.768C202.411 98.8734 202.201 96.8102 201.273 95.0839C200.388 93.3155 198.828 91.926 197.099 90.9576L196.931 90.8734L196.973 90.705C197.479 89.2313 197.605 87.5892 197.31 86.0313C197.015 84.4734 196.256 82.9997 195.033 81.905C193.769 80.8945 192.209 80.305 190.607 80.2629C189.047 80.2208 187.445 80.6418 186.096 81.4839Z" fill="white"/>
<path d="M201.905 94.7472C200.893 92.9367 199.291 91.5472 197.52 90.6209C197.942 89.1051 197.984 87.463 197.605 85.9472C197.225 84.3472 196.34 82.8735 195.075 81.9051C196.298 82.9577 197.057 84.4735 197.352 86.0314C197.647 87.5893 197.52 89.2314 197.014 90.7051L196.972 90.8735L197.141 90.9577C198.912 91.9262 200.429 93.3156 201.315 95.0841C202.242 96.8104 202.411 98.8735 201.989 100.768C201.568 102.663 200.514 104.431 199.122 105.779C197.731 107.126 195.96 108.095 194.063 108.558L193.684 108.642L193.599 109.021C193.262 111 192.377 112.852 191.028 114.326C189.679 115.8 187.95 116.979 186.095 117.695C184.24 118.452 182.216 118.831 180.235 118.663C178.253 118.537 176.314 117.821 175.049 116.474L174.206 115.589L173.742 116.768C173.026 118.579 171.761 120.179 170.201 121.358C168.641 122.537 166.744 123.295 164.805 123.631C162.865 123.968 160.842 123.8 159.029 123.168C157.216 122.537 155.572 121.358 154.391 119.842L153.295 118.452L152.705 120.137C152.41 120.937 151.946 121.779 151.44 122.537C150.892 123.295 150.302 124.052 149.627 124.726C148.278 126.074 146.76 127.252 145.116 128.263C143.472 129.274 141.701 130.116 139.888 130.747C139.13 131.042 138.371 131.252 137.612 131.463C138.792 130.074 139.804 128.558 140.647 126.958C141.322 125.61 141.87 124.221 142.291 122.747C142.502 122.031 142.629 121.274 142.713 120.474C142.797 119.716 142.84 118.916 142.755 118.074L142.629 117.021L141.533 117.189C138.539 117.652 135.504 117.779 132.637 117.231C131.204 116.937 129.812 116.516 128.548 115.842C127.283 115.168 126.144 114.284 125.259 113.189C123.446 111.042 122.73 108.052 123.151 105.231C123.531 102.41 125.006 99.7156 127.241 97.9472L127.873 97.442L127.494 96.7683C126.777 95.3788 126.271 93.9051 126.271 92.4735C126.229 91.042 126.735 89.6104 127.746 88.5577C128.716 87.5051 130.107 86.8314 131.541 86.6209C132.974 86.4104 134.492 86.7051 135.588 87.5472L136.6 88.3051L136.937 87.0841C137.064 86.6209 137.232 86.1998 137.401 85.7788C137.57 85.3577 137.78 84.8946 137.991 84.4735C138.413 83.6314 138.834 82.7893 139.425 82.0735C139.973 81.3577 140.605 80.7262 141.364 80.263C142.165 79.7998 143.008 79.4209 143.894 79.1262C145.664 78.6209 147.561 78.5367 149.416 78.9156C151.271 79.2525 153.042 80.0104 154.644 81.0209L155.234 81.3998L155.572 80.7683C157.089 78.0735 159.282 75.7998 161.98 74.242C164.678 72.6841 167.756 71.8841 170.876 71.8841C173.995 71.8841 177.115 72.7262 179.813 74.3262C181.162 75.1262 182.343 76.1367 183.397 77.3577C183.903 77.9472 184.367 78.5788 184.788 79.2525C184.999 79.5893 185.21 79.9262 185.378 80.263C185.463 80.4314 185.547 80.5998 185.631 80.7683L185.758 81.0209L185.8 81.1472C185.8 81.1472 185.8 81.1472 185.8 81.1893V81.5683L186.095 81.3998C187.444 80.5998 189.046 80.1367 190.606 80.1788C192.208 80.2209 193.768 80.8104 195.033 81.8209C193.81 80.7683 192.25 80.0946 190.606 79.9683C189.046 79.842 187.486 80.1788 186.095 80.8946L186.053 80.8104L185.926 80.5156C185.842 80.3472 185.758 80.1367 185.673 79.9683C185.505 79.5893 185.294 79.2525 185.083 78.9156C184.662 78.1998 184.198 77.5683 183.692 76.9367C182.638 75.6735 181.415 74.5788 180.066 73.6946C177.368 72.0525 174.122 71.0841 170.876 70.9998C167.587 70.9156 164.299 71.6735 161.39 73.2735C158.691 74.7472 156.415 76.9367 154.771 79.5051C153.211 78.5367 151.482 77.8209 149.669 77.442C147.646 77.0209 145.453 77.0209 143.43 77.5683C142.418 77.863 141.406 78.2841 140.521 78.8314C139.551 79.4209 138.708 80.1788 138.076 81.0209C137.401 81.863 136.895 82.7893 136.431 83.7156C136.221 84.1788 136.01 84.642 135.799 85.1051C135.757 85.2314 135.672 85.3577 135.63 85.5262C134.281 84.8525 132.721 84.642 131.246 84.8525C129.391 85.1051 127.662 85.9472 126.355 87.3367C125.723 88.0104 125.175 88.8525 124.837 89.7367C124.542 90.5788 124.374 91.5472 124.374 92.4735C124.374 94.0735 124.837 95.5893 125.47 96.9367C123.151 98.9998 121.591 101.863 121.17 104.937C120.917 106.579 121.001 108.305 121.423 109.947C121.844 111.589 122.603 113.147 123.699 114.452C124.753 115.758 126.144 116.852 127.62 117.61C129.096 118.41 130.698 118.916 132.3 119.21C135.124 119.758 137.949 119.716 140.732 119.379C140.732 119.674 140.689 119.926 140.647 120.221C140.563 120.895 140.436 121.526 140.268 122.2C139.931 123.505 139.425 124.768 138.792 125.989C137.57 128.431 135.799 130.621 133.775 132.474L131.077 134.958L134.661 134.242C136.684 133.863 138.666 133.316 140.605 132.6C142.544 131.884 144.399 131 146.17 129.905C147.941 128.81 149.585 127.505 151.018 125.989C151.735 125.231 152.41 124.431 153 123.547C153.295 123.084 153.59 122.579 153.885 122.074C155.15 123.295 156.71 124.263 158.396 124.81C160.546 125.526 162.865 125.652 165.1 125.274C167.334 124.895 169.442 123.968 171.213 122.579C172.688 121.442 173.953 119.926 174.796 118.242C175.429 118.705 176.103 119.084 176.862 119.379C177.958 119.8 179.054 120.01 180.193 120.052C182.427 120.179 184.662 119.716 186.685 118.874C188.709 118.031 190.606 116.726 192.04 115.042C193.431 113.442 194.358 111.505 194.738 109.4C196.677 108.852 198.448 107.758 199.839 106.326C201.315 104.81 202.369 102.874 202.79 100.768C203.212 98.8314 202.917 96.5998 201.905 94.7472Z" fill="#1A1A1A"/>
</g>
<path d="M152.859 94.5587L153.216 106.183L150.533 106.929L146.306 99.6007L146.448 108.063L143.781 108.804L138.091 98.6612L140.449 98.006L144.457 105.976L144.272 96.944L146.662 96.2802L151.178 104.109L150.501 95.2139L152.859 94.5587ZM158.914 95.2847C159.746 95.0534 160.54 95.0212 161.295 95.1879C162.06 95.3518 162.725 95.7149 163.291 96.2773C163.854 96.8294 164.26 97.5526 164.508 98.4467C164.757 99.3409 164.782 100.17 164.585 100.933C164.387 101.696 164.004 102.351 163.436 102.896C162.875 103.428 162.179 103.81 161.346 104.041C160.514 104.272 159.715 104.306 158.95 104.142C158.192 103.965 157.532 103.601 156.969 103.049C156.406 102.496 156 101.773 155.752 100.879C155.504 99.9849 155.478 99.1562 155.676 98.3928C155.87 97.6191 156.248 96.9662 156.809 96.4341C157.38 95.8991 158.081 95.5159 158.914 95.2847ZM159.436 97.1655C158.83 97.3339 158.376 97.6925 158.075 98.2412C157.77 98.7796 157.731 99.4548 157.956 100.267C158.182 101.079 158.565 101.642 159.107 101.957C159.645 102.261 160.217 102.329 160.824 102.16C161.43 101.992 161.886 101.638 162.19 101.1C162.491 100.551 162.529 99.871 162.304 99.0591C162.078 98.2472 161.696 97.689 161.158 97.3847C160.617 97.0701 160.043 96.997 159.436 97.1655ZM177.083 90.3538L177.159 99.5325L174.754 100.201L171.194 94.4973L171.039 101.233L168.634 101.901L163.98 93.9938L166.153 93.39L169.374 99.6027L169.437 92.4778L171.734 91.8398L175.478 97.9069L175.048 90.919L177.083 90.3538ZM180.398 86.4274L182.262 94.2126L180.427 94.7222L178.008 87.0912L180.398 86.4274ZM182.901 95.4965L183.53 97.7626L181.187 98.4136L180.557 96.1474L182.901 95.4965Z" fill="#050505"/>
<path d="M281.805 239.294C282.678 239.185 283.43 239.319 284.062 239.697C284.694 240.075 285.151 240.639 285.433 241.39L283.964 241.574C283.765 241.216 283.49 240.948 283.138 240.77C282.793 240.591 282.396 240.53 281.946 240.586C281.576 240.633 281.253 240.767 280.979 240.99C280.704 241.212 280.506 241.506 280.384 241.87C280.261 242.235 280.229 242.649 280.287 243.112C280.344 243.568 280.477 243.958 280.685 244.282C280.893 244.605 281.158 244.84 281.479 244.988C281.8 245.136 282.145 245.187 282.516 245.141C282.966 245.085 283.336 244.928 283.626 244.67C283.923 244.411 284.124 244.083 284.229 243.687L285.697 243.503C285.609 244.301 285.305 244.96 284.786 245.482C284.266 246.004 283.57 246.319 282.697 246.428C282.029 246.512 281.418 246.437 280.865 246.204C280.318 245.963 279.868 245.59 279.515 245.083C279.17 244.575 278.954 243.977 278.868 243.289C278.781 242.595 278.843 241.959 279.053 241.382C279.269 240.804 279.614 240.334 280.086 239.973C280.557 239.605 281.13 239.378 281.805 239.294ZM289.631 239.837C290.266 239.758 290.798 239.903 291.227 240.272C291.656 240.642 291.918 241.204 292.012 241.958L292.412 245.153L291.023 245.327L290.643 242.29C290.588 241.854 290.434 241.53 290.179 241.32C289.923 241.104 289.6 241.02 289.21 241.069C288.813 241.118 288.512 241.287 288.306 241.575C288.1 241.863 288.027 242.248 288.088 242.731L288.453 245.648L287.054 245.823L286.135 238.48L287.534 238.305L287.903 241.252C288.002 240.864 288.204 240.546 288.509 240.3C288.82 240.046 289.194 239.892 289.631 239.837ZM298.443 241.395C298.46 241.534 298.463 241.695 298.453 241.878L294.424 242.382C294.505 242.869 294.683 243.213 294.956 243.414C295.23 243.615 295.549 243.692 295.913 243.647C296.237 243.606 296.495 243.493 296.687 243.308C296.885 243.122 296.997 242.89 297.023 242.611L298.501 242.426C298.476 242.819 298.364 243.182 298.164 243.516C297.964 243.851 297.686 244.127 297.33 244.346C296.981 244.565 296.579 244.702 296.122 244.759C295.586 244.826 295.096 244.774 294.651 244.601C294.205 244.421 293.84 244.134 293.556 243.74C293.271 243.346 293.093 242.861 293.021 242.285C292.949 241.71 293.003 241.196 293.181 240.743C293.359 240.284 293.642 239.916 294.031 239.639C294.419 239.362 294.882 239.19 295.417 239.123C295.96 239.056 296.447 239.109 296.878 239.283C297.317 239.457 297.67 239.729 297.938 240.098C298.212 240.46 298.38 240.893 298.443 241.395ZM297.016 241.433C296.98 240.98 296.818 240.655 296.531 240.455C296.251 240.255 295.926 240.178 295.555 240.225C295.178 240.272 294.875 240.427 294.646 240.691C294.417 240.955 294.317 241.313 294.347 241.767L297.016 241.433ZM301.58 238.353C302.288 238.264 302.901 238.382 303.418 238.707C303.943 239.031 304.306 239.517 304.508 240.163L303.029 240.348C302.933 240.065 302.769 239.853 302.537 239.714C302.303 239.569 302.025 239.516 301.701 239.557C301.33 239.603 301.037 239.781 300.82 240.09C300.609 240.392 300.537 240.808 300.603 241.337C300.669 241.866 300.842 242.254 301.122 242.502C301.407 242.741 301.735 242.838 302.105 242.792C302.429 242.751 302.687 242.635 302.878 242.443C303.068 242.245 303.175 241.996 303.198 241.698L304.676 241.513C304.64 242.189 304.408 242.749 303.979 243.192C303.558 243.635 302.993 243.9 302.285 243.989C301.749 244.056 301.259 244.003 300.814 243.83C300.368 243.651 300.003 243.364 299.719 242.969C299.434 242.575 299.256 242.09 299.184 241.514C299.112 240.939 299.165 240.425 299.344 239.973C299.522 239.514 299.805 239.146 300.194 238.869C300.582 238.592 301.044 238.42 301.58 238.353ZM309.145 243.06L307.029 240.886L307.329 243.287L305.93 243.462L305.012 236.119L306.411 235.945L306.927 240.072L308.447 237.564L310.104 237.357L308.135 240.385L310.852 242.847L309.145 243.06ZM312.554 235.227L312.995 240.21L311.815 240.358L311.016 235.419L312.554 235.227ZM313.273 241.062L313.456 242.521L311.948 242.71L311.765 241.251L313.273 241.062Z" fill="#050505"/>
<path d="M273.428 240.645C273.729 240.166 274.361 240.022 274.84 240.323C275.319 240.623 275.463 241.256 275.162 241.734L271.348 247.803L269.614 246.713L273.428 240.645Z" fill="#FA9531"/>
<path d="M272.438 246.069L271.348 247.803L267.88 245.623C267.401 245.323 267.257 244.69 267.558 244.212C267.859 243.733 268.491 243.589 268.97 243.89L272.438 246.069Z" fill="#FA9531"/>
<path d="M411.336 193.029C412.09 192.575 412.833 192.393 413.563 192.482C414.294 192.572 414.94 192.902 415.503 193.474L414.235 194.237C413.907 193.991 413.547 193.858 413.154 193.838C412.766 193.814 412.378 193.919 411.989 194.153C411.67 194.346 411.429 194.599 411.269 194.914C411.108 195.228 411.045 195.577 411.081 195.96C411.117 196.343 411.256 196.735 411.496 197.134C411.733 197.529 412.013 197.831 412.334 198.042C412.656 198.253 412.993 198.361 413.347 198.367C413.7 198.372 414.037 198.278 414.356 198.086C414.745 197.852 415.019 197.558 415.18 197.205C415.347 196.848 415.398 196.467 415.333 196.062L416.601 195.299C416.843 196.064 416.833 196.79 416.57 197.477C416.307 198.165 415.798 198.735 415.044 199.189C414.467 199.536 413.879 199.716 413.278 199.727C412.68 199.729 412.118 199.569 411.59 199.249C411.068 198.925 410.629 198.466 410.271 197.872C409.91 197.272 409.709 196.666 409.667 196.053C409.63 195.437 409.755 194.868 410.04 194.346C410.321 193.819 410.754 193.38 411.336 193.029ZM418.71 190.353C419.259 190.023 419.804 189.94 420.346 190.104C420.888 190.268 421.355 190.675 421.747 191.326L423.408 194.085L422.208 194.807L420.63 192.185C420.403 191.808 420.131 191.576 419.813 191.487C419.492 191.392 419.162 191.447 418.825 191.649C418.483 191.856 418.275 192.132 418.204 192.479C418.132 192.825 418.222 193.207 418.473 193.624L419.989 196.143L418.781 196.87L414.965 190.53L416.173 189.803L417.705 192.347C417.638 191.952 417.694 191.579 417.873 191.231C418.054 190.872 418.333 190.58 418.71 190.353ZM427.398 188.206C427.47 188.325 427.538 188.471 427.602 188.643L424.124 190.736C424.395 191.149 424.697 191.391 425.029 191.464C425.36 191.537 425.683 191.478 425.997 191.289C426.277 191.121 426.467 190.913 426.568 190.666C426.674 190.415 426.682 190.158 426.592 189.892L427.869 189.124C428.005 189.493 428.05 189.871 428.003 190.258C427.955 190.644 427.813 191.01 427.577 191.354C427.347 191.695 427.034 191.984 426.64 192.221C426.177 192.5 425.708 192.65 425.231 192.673C424.751 192.689 424.301 192.575 423.881 192.33C423.461 192.085 423.101 191.713 422.802 191.217C422.503 190.72 422.344 190.228 422.324 189.742C422.3 189.251 422.41 188.8 422.653 188.389C422.896 187.978 423.248 187.633 423.711 187.355C424.179 187.073 424.646 186.924 425.112 186.909C425.583 186.89 426.016 186.995 426.41 187.224C426.807 187.444 427.136 187.771 427.398 188.206ZM426.109 188.818C425.892 188.419 425.612 188.187 425.269 188.121C424.932 188.052 424.603 188.113 424.283 188.306C423.958 188.502 423.744 188.767 423.641 189.101C423.539 189.435 423.593 189.803 423.804 190.205L426.109 188.818ZM429.032 184.152C429.644 183.784 430.252 183.644 430.857 183.731C431.467 183.815 431.996 184.111 432.443 184.621L431.166 185.389C430.963 185.169 430.728 185.042 430.459 185.009C430.187 184.971 429.911 185.036 429.631 185.204C429.311 185.397 429.115 185.678 429.042 186.049C428.972 186.41 429.074 186.819 429.349 187.276C429.624 187.733 429.939 188.018 430.295 188.131C430.653 188.234 430.992 188.19 431.312 187.997C431.592 187.829 431.78 187.618 431.877 187.365C431.97 187.107 431.967 186.836 431.867 186.554L433.144 185.786C433.385 186.419 433.399 187.025 433.188 187.604C432.981 188.179 432.573 188.651 431.962 189.019C431.499 189.297 431.029 189.447 430.552 189.47C430.072 189.486 429.622 189.372 429.202 189.127C428.782 188.882 428.423 188.511 428.124 188.014C427.825 187.517 427.665 187.025 427.645 186.539C427.621 186.048 427.731 185.597 427.974 185.186C428.217 184.775 428.57 184.43 429.032 184.152ZM437.856 185.389L435.04 184.259L436.288 186.333L435.08 187.06L431.264 180.72L432.472 179.993L434.617 183.557L434.991 180.648L436.421 179.786L435.848 183.353L439.33 184.502L437.856 185.389ZM437.797 176.846L440.221 181.223L439.201 181.837L436.469 177.645L437.797 176.846ZM440.82 181.889L441.578 183.149L440.276 183.933L439.518 182.673L440.82 181.889Z" fill="#050505"/>
<path d="M404.225 197.66C404.306 197.1 404.825 196.712 405.385 196.793C405.944 196.874 406.332 197.393 406.251 197.953L405.225 205.047L403.198 204.754L404.225 197.66Z" fill="#FA9531"/>
<path d="M405.52 203.02L405.226 205.046L401.173 204.46C400.613 204.379 400.225 203.859 400.306 203.3C400.387 202.74 400.906 202.352 401.466 202.433L405.52 203.02Z" fill="#FA9531"/>
<path d="M170.73 249.047C171.609 249.006 172.349 249.199 172.949 249.626C173.549 250.052 173.961 250.65 174.183 251.421L172.704 251.489C172.534 251.116 172.28 250.828 171.944 250.623C171.614 250.418 171.223 250.326 170.77 250.346C170.397 250.364 170.065 250.472 169.774 250.673C169.483 250.873 169.262 251.15 169.111 251.504C168.961 251.858 168.896 252.268 168.918 252.734C168.939 253.194 169.041 253.593 169.223 253.931C169.405 254.27 169.651 254.526 169.959 254.698C170.267 254.871 170.608 254.949 170.981 254.932C171.434 254.911 171.815 254.783 172.124 254.549C172.441 254.314 172.667 254.003 172.802 253.617L174.281 253.549C174.13 254.336 173.775 254.97 173.217 255.449C172.658 255.929 171.939 256.189 171.06 256.229C170.388 256.26 169.785 256.138 169.252 255.862C168.725 255.579 168.306 255.171 167.994 254.638C167.689 254.105 167.521 253.492 167.489 252.8C167.457 252.1 167.568 251.471 167.823 250.912C168.084 250.353 168.464 249.912 168.963 249.589C169.462 249.259 170.051 249.078 170.73 249.047ZM178.489 250.202C179.129 250.172 179.648 250.359 180.047 250.761C180.446 251.163 180.662 251.744 180.697 252.503L180.845 255.72L179.447 255.784L179.306 252.727C179.286 252.287 179.157 251.953 178.92 251.724C178.682 251.488 178.367 251.379 177.974 251.397C177.574 251.415 177.26 251.56 177.033 251.83C176.805 252.101 176.702 252.48 176.724 252.966L176.859 255.903L175.451 255.967L175.111 248.575L176.52 248.511L176.656 251.477C176.785 251.098 177.012 250.797 177.335 250.575C177.665 250.347 178.05 250.222 178.489 250.202ZM187.152 252.447C187.159 252.586 187.149 252.747 187.124 252.928L183.069 253.115C183.111 253.607 183.261 253.963 183.518 254.185C183.775 254.407 184.087 254.509 184.453 254.493C184.78 254.478 185.046 254.385 185.251 254.216C185.464 254.046 185.594 253.823 185.641 253.547L187.13 253.479C187.074 253.868 186.933 254.222 186.708 254.539C186.482 254.856 186.183 255.11 185.812 255.301C185.447 255.491 185.035 255.597 184.575 255.618C184.036 255.643 183.551 255.552 183.121 255.345C182.691 255.131 182.349 254.816 182.097 254.401C181.844 253.985 181.704 253.488 181.678 252.908C181.651 252.329 181.744 251.821 181.958 251.384C182.171 250.94 182.482 250.596 182.891 250.35C183.301 250.104 183.775 249.969 184.314 249.944C184.86 249.919 185.342 250.01 185.758 250.218C186.182 250.426 186.512 250.724 186.751 251.114C186.995 251.496 187.129 251.94 187.152 252.447ZM185.727 252.372C185.726 251.918 185.591 251.581 185.32 251.359C185.057 251.138 184.738 251.036 184.365 251.053C183.986 251.07 183.671 251.202 183.422 251.447C183.173 251.692 183.046 252.041 183.04 252.495L185.727 252.372ZM190.519 249.659C191.231 249.626 191.833 249.792 192.323 250.157C192.821 250.521 193.145 251.033 193.295 251.694L191.807 251.762C191.733 251.472 191.586 251.248 191.365 251.092C191.144 250.928 190.871 250.854 190.544 250.869C190.171 250.886 189.865 251.04 189.625 251.332C189.391 251.616 189.286 252.025 189.311 252.558C189.335 253.09 189.477 253.491 189.736 253.759C190.002 254.021 190.321 254.143 190.694 254.126C191.02 254.111 191.286 254.015 191.492 253.839C191.697 253.656 191.823 253.416 191.869 253.121L193.358 253.052C193.268 253.724 192.993 254.264 192.531 254.672C192.076 255.08 191.492 255.3 190.779 255.333C190.24 255.358 189.755 255.267 189.325 255.059C188.895 254.846 188.554 254.531 188.301 254.116C188.048 253.7 187.909 253.203 187.882 252.623C187.855 252.044 187.949 251.536 188.162 251.099C188.376 250.655 188.687 250.31 189.096 250.065C189.505 249.819 189.979 249.684 190.519 249.659ZM197.691 254.945L195.752 252.612L195.863 255.029L194.454 255.094L194.115 247.702L195.523 247.637L195.714 251.793L197.427 249.412L199.095 249.335L196.894 252.199L199.409 254.866L197.691 254.945ZM201.703 247.403L201.753 252.406L200.564 252.461L200.155 247.474L201.703 247.403ZM201.963 253.277L202.031 254.746L200.512 254.816L200.445 253.347L201.963 253.277Z" fill="#050505"/>
<path d="M162.272 249.736C162.609 249.282 163.251 249.188 163.704 249.526C164.158 249.863 164.252 250.505 163.915 250.958L159.637 256.709L157.994 255.487L162.272 249.736Z" fill="#FA9531"/>
<path d="M160.859 255.066L159.637 256.709L156.351 254.265C155.897 253.927 155.803 253.286 156.14 252.832C156.478 252.378 157.119 252.284 157.573 252.622L160.859 255.066Z" fill="#FA9531"/>
<defs>
<filter id="filter0_d_1002_3941" x="0" y="0" width="550" height="370" filterUnits="userSpaceOnUse" color-interpolation-filters="sRGB">
<feFlood flood-opacity="0" result="BackgroundImageFix"/>
<feColorMatrix in="SourceAlpha" type="matrix" values="0 0 0 0 0 0 0 0 0 0 0 0 0 0 0 0 0 0 127 0" result="hardAlpha"/>
<feOffset dy="4"/>
<feGaussianBlur stdDeviation="18"/>
<feColorMatrix type="matrix" values="0 0 0 0 0 0 0 0 0 0 0 0 0 0 0 0 0 0 0.12 0"/>
<feBlend mode="normal" in2="BackgroundImageFix" result="effect1_dropShadow_1002_3941"/>
<feBlend mode="normal" in="SourceGraphic" in2="effect1_dropShadow_1002_3941" result="shape"/>
</filter>
<filter id="filter1_d_1002_3941" x="323" y="256" width="74" height="74" filterUnits="userSpaceOnUse" color-interpolation-filters="sRGB">
<feFlood flood-opacity="0" result="BackgroundImageFix"/>
<feColorMatrix in="SourceAlpha" type="matrix" values="0 0 0 0 0 0 0 0 0 0 0 0 0 0 0 0 0 0 127 0" result="hardAlpha"/>
<feOffset dy="4"/>
<feGaussianBlur stdDeviation="12.5"/>
<feColorMatrix type="matrix" values="0 0 0 0 0 0 0 0 0 0 0 0 0 0 0 0 0 0 0.15 0"/>
<feBlend mode="normal" in2="BackgroundImageFix" result="effect1_dropShadow_1002_3941"/>
<feBlend mode="normal" in="SourceGraphic" in2="effect1_dropShadow_1002_3941" result="shape"/>
</filter>
<filter id="filter2_d_1002_3941" x="259" y="256" width="74" height="74" filterUnits="userSpaceOnUse" color-interpolation-filters="sRGB">
<feFlood flood-opacity="0" result="BackgroundImageFix"/>
<feColorMatrix in="SourceAlpha" type="matrix" values="0 0 0 0 0 0 0 0 0 0 0 0 0 0 0 0 0 0 127 0" result="hardAlpha"/>
<feOffset dy="4"/>
<feGaussianBlur stdDeviation="12.5"/>
<feColorMatrix type="matrix" values="0 0 0 0 0 0 0 0 0 0 0 0 0 0 0 0 0 0 0.15 0"/>
<feBlend mode="normal" in2="BackgroundImageFix" result="effect1_dropShadow_1002_3941"/>
<feBlend mode="normal" in="SourceGraphic" in2="effect1_dropShadow_1002_3941" result="shape"/>
</filter>
<filter id="filter3_d_1002_3941" x="227.473" y="256" width="74" height="74" filterUnits="userSpaceOnUse" color-interpolation-filters="sRGB">
<feFlood flood-opacity="0" result="BackgroundImageFix"/>
<feColorMatrix in="SourceAlpha" type="matrix" values="0 0 0 0 0 0 0 0 0 0 0 0 0 0 0 0 0 0 127 0" result="hardAlpha"/>
<feOffset dy="4"/>
<feGaussianBlur stdDeviation="12.5"/>
<feColorMatrix type="matrix" values="0 0 0 0 0 0 0 0 0 0 0 0 0 0 0 0 0 0 0.15 0"/>
<feBlend mode="normal" in2="BackgroundImageFix" result="effect1_dropShadow_1002_3941"/>
<feBlend mode="normal" in="SourceGraphic" in2="effect1_dropShadow_1002_3941" result="shape"/>
</filter>
<filter id="filter4_d_1002_3941" x="355" y="256" width="74" height="74" filterUnits="userSpaceOnUse" color-interpolation-filters="sRGB">
<feFlood flood-opacity="0" result="BackgroundImageFix"/>
<feColorMatrix in="SourceAlpha" type="matrix" values="0 0 0 0 0 0 0 0 0 0 0 0 0 0 0 0 0 0 127 0" result="hardAlpha"/>
<feOffset dy="4"/>
<feGaussianBlur stdDeviation="12.5"/>
<feColorMatrix type="matrix" values="0 0 0 0 0 0 0 0 0 0 0 0 0 0 0 0 0 0 0.15 0"/>
<feBlend mode="normal" in2="BackgroundImageFix" result="effect1_dropShadow_1002_3941"/>
<feBlend mode="normal" in="SourceGraphic" in2="effect1_dropShadow_1002_3941" result="shape"/>
</filter>
<filter id="filter5_d_1002_3941" x="387" y="256" width="74" height="74" filterUnits="userSpaceOnUse" color-interpolation-filters="sRGB">
<feFlood flood-opacity="0" result="BackgroundImageFix"/>
<feColorMatrix in="SourceAlpha" type="matrix" values="0 0 0 0 0 0 0 0 0 0 0 0 0 0 0 0 0 0 127 0" result="hardAlpha"/>
<feOffset dy="4"/>
<feGaussianBlur stdDeviation="12.5"/>
<feColorMatrix type="matrix" values="0 0 0 0 0 0 0 0 0 0 0 0 0 0 0 0 0 0 0.15 0"/>
<feBlend mode="normal" in2="BackgroundImageFix" result="effect1_dropShadow_1002_3941"/>
<feBlend mode="normal" in="SourceGraphic" in2="effect1_dropShadow_1002_3941" result="shape"/>
</filter>
<filter id="filter6_d_1002_3941" x="291" y="256" width="74" height="74" filterUnits="userSpaceOnUse" color-interpolation-filters="sRGB">
<feFlood flood-opacity="0" result="BackgroundImageFix"/>
<feColorMatrix in="SourceAlpha" type="matrix" values="0 0 0 0 0 0 0 0 0 0 0 0 0 0 0 0 0 0 127 0" result="hardAlpha"/>
<feOffset dy="4"/>
<feGaussianBlur stdDeviation="12.5"/>
<feColorMatrix type="matrix" values="0 0 0 0 0 0 0 0 0 0 0 0 0 0 0 0 0 0 0.15 0"/>
<feBlend mode="normal" in2="BackgroundImageFix" result="effect1_dropShadow_1002_3941"/>
<feBlend mode="normal" in="SourceGraphic" in2="effect1_dropShadow_1002_3941" result="shape"/>
</filter>
<filter id="filter7_d_1002_3941" x="422.473" y="75.3516" width="80" height="80" filterUnits="userSpaceOnUse" color-interpolation-filters="sRGB">
<feFlood flood-opacity="0" result="BackgroundImageFix"/>
<feColorMatrix in="SourceAlpha" type="matrix" values="0 0 0 0 0 0 0 0 0 0 0 0 0 0 0 0 0 0 127 0" result="hardAlpha"/>
<feOffset dy="4"/>
<feGaussianBlur stdDeviation="12.5"/>
<feColorMatrix type="matrix" values="0 0 0 0 0 0 0 0 0 0 0 0 0 0 0 0 0 0 0.15 0"/>
<feBlend mode="normal" in2="BackgroundImageFix" result="effect1_dropShadow_1002_3941"/>
<feBlend mode="normal" in="SourceGraphic" in2="effect1_dropShadow_1002_3941" result="shape"/>
</filter>
<filter id="filter8_d_1002_3941" x="445.215" y="98.0933" width="34.7581" height="37.4193" filterUnits="userSpaceOnUse" color-interpolation-filters="sRGB">
<feFlood flood-opacity="0" result="BackgroundImageFix"/>
<feColorMatrix in="SourceAlpha" type="matrix" values="0 0 0 0 0 0 0 0 0 0 0 0 0 0 0 0 0 0 127 0" result="hardAlpha"/>
<feOffset dy="4"/>
<feGaussianBlur stdDeviation="5"/>
<feColorMatrix type="matrix" values="0 0 0 0 0 0 0 0 0 0 0 0 0 0 0 0 0 0 0.1 0"/>
<feBlend mode="normal" in2="BackgroundImageFix" result="effect1_dropShadow_1002_3941"/>
<feBlend mode="normal" in="SourceGraphic" in2="effect1_dropShadow_1002_3941" result="shape"/>
</filter>
<linearGradient id="paint0_linear_1002_3941" x1="351.982" y1="280.235" x2="367.659" y2="297.904" gradientUnits="userSpaceOnUse">
<stop stop-color="#FF5515"/>
<stop offset="1" stop-color="#E4470C"/>
</linearGradient>
<linearGradient id="paint1_linear_1002_3941" x1="289.475" y1="278.991" x2="301.918" y2="298.899" gradientUnits="userSpaceOnUse">
<stop stop-color="#00C275"/>
<stop offset="1" stop-color="#00A966"/>
</linearGradient>
<linearGradient id="paint2_linear_1002_3941" x1="257.201" y1="279.24" x2="269.892" y2="298.153" gradientUnits="userSpaceOnUse">
<stop stop-color="#10494D"/>
<stop offset="1" stop-color="#0D3F43"/>
</linearGradient>
<linearGradient id="paint3_linear_1002_3941" x1="383.484" y1="281.977" x2="398.166" y2="298.153" gradientUnits="userSpaceOnUse">
<stop stop-color="#0E8DEA"/>
<stop offset="1" stop-color="#097BCE"/>
</linearGradient>
<linearGradient id="paint4_linear_1002_3941" x1="416.479" y1="280.484" x2="431.162" y2="298.65" gradientUnits="userSpaceOnUse">
<stop stop-color="#1D2B95"/>
<stop offset="1" stop-color="#15217C"/>
</linearGradient>
<linearGradient id="paint5_linear_1002_3941" x1="320.479" y1="280.484" x2="335.162" y2="298.65" gradientUnits="userSpaceOnUse">
<stop stop-color="#161616"/>
<stop offset="1"/>
</linearGradient>
<linearGradient id="paint6_linear_1002_3941" x1="463.473" y1="118" x2="77.4727" y2="118" gradientUnits="userSpaceOnUse">
<stop stop-color="white"/>
<stop offset="0.583333" stop-color="#212121"/>
</linearGradient>
<linearGradient id="paint7_linear_1002_3941" x1="84.5029" y1="256.501" x2="444.777" y2="170.666" gradientUnits="userSpaceOnUse">
<stop stop-color="#00AA66"/>
<stop offset="0.760417" stop-color="#1BC481"/>
<stop offset="1" stop-color="#1EC784" stop-opacity="0"/>
</linearGradient>
<linearGradient id="paint8_linear_1002_3941" x1="84.5029" y1="268.501" x2="464.581" y2="176.776" gradientUnits="userSpaceOnUse">
<stop stop-color="#E4470C"/>
<stop offset="0.0001" stop-color="#E4470C"/>
<stop offset="0.760417" stop-color="#FE5515"/>
<stop offset="1" stop-color="#FE5515" stop-opacity="0"/>
</linearGradient>
<linearGradient id="paint9_linear_1002_3941" x1="84.5029" y1="273.501" x2="431.236" y2="188.408" gradientUnits="userSpaceOnUse">
<stop stop-color="#087ACE"/>
<stop offset="0.0001" stop-color="#087ACE"/>
<stop offset="0.760417" stop-color="#0E8DEA"/>
<stop offset="1" stop-color="#0E8DEA" stop-opacity="0"/>
</linearGradient>
<linearGradient id="paint10_linear_1002_3941" x1="84.5029" y1="280.502" x2="417.583" y2="198.144" gradientUnits="userSpaceOnUse">
<stop stop-color="#15217C"/>
<stop offset="0.0001" stop-color="#1D2B95"/>
<stop offset="0.765625" stop-color="#1D2B95"/>
<stop offset="0.9999" stop-color="#1D2B95" stop-opacity="0.0434783"/>
<stop offset="1" stop-color="#15217D" stop-opacity="0"/>
</linearGradient>
<linearGradient id="paint11_linear_1002_3941" x1="84.5026" y1="246.501" x2="464.581" y2="154.776" gradientUnits="userSpaceOnUse">
<stop stop-color="#0D3F43"/>
<stop offset="0.760417" stop-color="#10484C"/>
<stop offset="1" stop-color="#10484C" stop-opacity="0"/>
</linearGradient>
<linearGradient id="paint12_linear_1002_3941" x1="84.5008" y1="257.501" x2="450.123" y2="165.465" gradientUnits="userSpaceOnUse">
<stop/>
<stop offset="0.760417" stop-color="#161616"/>
<stop offset="1" stop-color="#161616" stop-opacity="0"/>
</linearGradient>
<linearGradient id="paint13_linear_1002_3941" x1="269.736" y1="119.564" x2="270" y2="265" gradientUnits="userSpaceOnUse">
<stop stop-color="#F9A440" stop-opacity="0.35"/>
<stop offset="1" stop-color="#FFBB39" stop-opacity="0.03"/>
</linearGradient>
<linearGradient id="paint14_linear_1002_3941" x1="76" y1="191.536" x2="463.472" y2="191.536" gradientUnits="userSpaceOnUse">
<stop stop-color="#FFBD39"/>
<stop offset="1" stop-color="#FA9531"/>
<stop offset="1" stop-color="#FA9531"/>
</linearGradient>
<linearGradient id="paint15_linear_1002_3941" x1="410" y1="180.5" x2="419" y2="180.5" gradientUnits="userSpaceOnUse">
<stop stop-color="#FFBD39"/>
<stop offset="1" stop-color="#FA9531"/>
<stop offset="1" stop-color="#FA9531"/>
</linearGradient>
<linearGradient id="paint16_linear_1002_3941" x1="284.473" y1="227.5" x2="293.473" y2="227.5" gradientUnits="userSpaceOnUse">
<stop stop-color="#FFBD39"/>
<stop offset="1" stop-color="#FA9531"/>
<stop offset="1" stop-color="#FA9531"/>
</linearGradient>
<linearGradient id="paint17_linear_1002_3941" x1="176.473" y1="239.5" x2="185.473" y2="239.5" gradientUnits="userSpaceOnUse">
<stop stop-color="#FFBD39"/>
<stop offset="1" stop-color="#FA9531"/>
<stop offset="1" stop-color="#FA9531"/>
</linearGradient>
<linearGradient id="paint18_linear_1002_3941" x1="452.582" y1="100.102" x2="473.754" y2="119.69" gradientUnits="userSpaceOnUse">
<stop stop-color="#FFBC39"/>
<stop offset="1" stop-color="#F79944"/>
</linearGradient>
<linearGradient id="paint19_linear_1002_3941" x1="449.661" y1="78.2841" x2="446.63" y2="82.6829" gradientUnits="userSpaceOnUse">
<stop stop-color="#FFBD39"/>
<stop offset="1" stop-color="#FA9531"/>
<stop offset="1" stop-color="#FA9531"/>
</linearGradient>
<linearGradient id="paint20_linear_1002_3941" x1="480.342" y1="101.152" x2="477.889" y2="98.7336" gradientUnits="userSpaceOnUse">
<stop stop-color="#FFBD39"/>
<stop offset="1" stop-color="#FA9531"/>
<stop offset="1" stop-color="#FA9531"/>
</linearGradient>
<linearGradient id="paint21_linear_1002_3941" x1="451.755" y1="94.5461" x2="454.28" y2="94.5461" gradientUnits="userSpaceOnUse">
<stop stop-color="#FFBD39"/>
<stop offset="1" stop-color="#FA9531"/>
<stop offset="1" stop-color="#FA9531"/>
</linearGradient>
<linearGradient id="paint22_linear_1002_3941" x1="486.218" y1="93.3267" x2="486.872" y2="95.7655" gradientUnits="userSpaceOnUse">
<stop stop-color="#FFBD39"/>
<stop offset="1" stop-color="#FA9531"/>
<stop offset="1" stop-color="#FA9531"/>
</linearGradient>
<linearGradient id="paint23_linear_1002_3941" x1="460.521" y1="84.3603" x2="481.132" y2="91.8786" gradientUnits="userSpaceOnUse">
<stop stop-color="#FFBD39"/>
<stop offset="1" stop-color="#FA9531"/>
<stop offset="1" stop-color="#FA9531"/>
</linearGradient>
<linearGradient id="paint24_linear_1002_3941" x1="464.265" y1="91.4822" x2="465.797" y2="91.4822" gradientUnits="userSpaceOnUse">
<stop stop-color="#FFBD39"/>
<stop offset="1" stop-color="#FA9531"/>
<stop offset="1" stop-color="#FA9531"/>
</linearGradient>
<linearGradient id="paint25_linear_1002_3941" x1="468.586" y1="93.0583" x2="470.118" y2="93.0583" gradientUnits="userSpaceOnUse">
<stop stop-color="#FFBD39"/>
<stop offset="1" stop-color="#FA9531"/>
<stop offset="1" stop-color="#FA9531"/>
</linearGradient>
<linearGradient id="paint26_linear_1002_3941" x1="472.422" y1="94.4568" x2="473.954" y2="94.4568" gradientUnits="userSpaceOnUse">
<stop stop-color="#FFBD39"/>
<stop offset="1" stop-color="#FA9531"/>
<stop offset="1" stop-color="#FA9531"/>
</linearGradient>
<clipPath id="clip0_1002_3941">
<rect width="10.0039" height="9.70531" fill="white" transform="translate(354.969 284.714)"/>
</clipPath>
<clipPath id="clip1_1002_3941">
<rect width="10.0537" height="11.5468" fill="white" transform="translate(386.969 283.221)"/>
</clipPath>
<clipPath id="clip2_1002_3941">
<rect width="20" height="20" fill="white" transform="translate(104 132)"/>
</clipPath>
<clipPath id="clip3_1002_3941">
<rect width="82" height="64" fill="white" transform="translate(121 71)"/>
</clipPath>
</defs>
</svg>
