<svg width="496" height="392" viewBox="0 0 496 392" fill="none" xmlns="http://www.w3.org/2000/svg">
<circle cx="197.5" cy="198.5" r="168.5" transform="rotate(-90 197.5 198.5)" fill="url(#paint0_linear_1002_3912)"/>
<circle cx="25" cy="85" r="18" fill="url(#paint1_linear_1002_3912)"/>
<path d="M31.5385 91.5501C32.9071 90.3046 33.916 88.7143 34.4597 86.9455C35.0034 85.1766 35.062 83.2942 34.6293 81.495C34.167 79.7179 33.2284 78.1006 31.9148 76.8175C30.6012 75.5343 28.9623 74.634 27.1748 74.2135C25.4014 73.7542 23.5381 73.7723 21.774 74.2661C20.0098 74.7599 18.4078 75.7118 17.1306 77.0251C15.8183 78.3725 14.8685 80.0302 14.3697 81.8438C13.871 83.6573 13.8395 85.5676 14.2783 87.3966C14.5323 88.4791 15.0111 89.496 15.6836 90.3814C16.3561 91.2668 17.2073 92.0009 18.1819 92.5361C20.3472 93.671 22.8948 93.7363 25.2814 93.7934C25.4123 93.7812 25.5395 93.7434 25.6557 93.682C25.7719 93.6207 25.875 93.5371 25.9589 93.436C26.0428 93.3349 26.106 93.2182 26.1448 93.0926C26.1837 92.9671 26.1974 92.8351 26.1852 92.7043C26.173 92.5734 26.1352 92.4462 26.0739 92.33C26.0126 92.2138 25.929 92.1108 25.8278 92.0268C25.7267 91.9429 25.61 91.8797 25.4845 91.8409C25.3589 91.8021 25.227 91.7883 25.0961 91.8005C23.3263 91.869 21.5578 91.6348 19.8668 91.108C19.0983 90.826 18.3991 90.3829 17.8159 89.8085C17.2328 89.234 16.7793 88.5415 16.4858 87.7774C15.9648 86.3625 15.8158 84.8376 16.0528 83.3486C16.2898 81.8596 16.905 80.4564 17.8395 79.2731C18.7282 78.0812 19.9173 77.1465 21.2853 76.5645C22.6534 75.9825 24.1515 75.774 25.6265 75.9603C27.0734 76.1134 28.4549 76.6432 29.633 77.4969C30.8112 78.3507 31.7449 79.4984 32.3409 80.8257C32.9518 82.3564 33.0938 84.0343 32.7487 85.6459C32.4036 87.2575 31.5871 88.7301 30.403 89.8764C30.2945 89.9516 30.2019 90.0476 30.1307 90.1587C30.0594 90.2698 30.0109 90.394 29.9879 90.524C29.9649 90.654 29.9678 90.7872 29.9965 90.9161C30.0253 91.0449 30.0793 91.1668 30.1553 91.2747C30.3073 91.4908 30.5387 91.6379 30.7988 91.684C31.059 91.73 31.3268 91.6713 31.5437 91.5206L31.5385 91.5501Z" fill="white"/>
<path d="M29.5064 91.1587C29.5938 92.2891 29.9875 93.3743 30.6453 94.2977C31.303 95.2211 32.1999 95.9479 33.2396 96.4C33.3583 96.4564 33.487 96.4888 33.6182 96.4955C33.7495 96.5021 33.8807 96.4828 34.0045 96.4387C34.1283 96.3947 34.2422 96.3266 34.3398 96.2385C34.4373 96.1504 34.5165 96.0439 34.5728 95.9252C34.6292 95.8065 34.6616 95.6779 34.6683 95.5466C34.6749 95.4154 34.6556 95.2841 34.6115 95.1603C34.5675 95.0365 34.4994 94.9226 34.4113 94.8251C34.3232 94.7276 34.2168 94.6484 34.098 94.592C33.8867 94.5009 33.6813 94.3967 33.483 94.28C33.2803 94.1628 33.6446 94.4 33.483 94.28L33.3047 94.1976C33.2146 94.1336 33.1285 94.0641 33.047 93.9895C32.8692 93.8463 32.7245 93.6887 32.5584 93.5374C32.7668 93.7368 32.6348 93.622 32.5584 93.5374L32.4495 93.4064C32.3727 93.3168 32.3012 93.2227 32.2354 93.1247L32.0507 92.8483L31.9651 92.7011C31.9263 92.6333 31.8494 92.4369 31.9651 92.7011C31.8801 92.4931 31.7817 92.303 31.6967 92.095L31.5995 91.7833C31.5809 91.7313 31.5666 91.6778 31.5568 91.6234C31.4995 91.4304 31.6007 91.8343 31.5568 91.6234C31.5129 91.4125 31.4777 91.1524 31.4587 90.9154C31.4582 90.7765 31.4288 90.6392 31.3723 90.5122C31.3158 90.3853 31.2334 90.2715 31.1305 90.1782C31.0276 90.0849 30.9063 90.014 30.7745 89.9701C30.6427 89.9262 30.5031 89.9103 30.3648 89.9234C30.2265 89.9364 30.0924 89.9782 29.9711 90.0459C29.8498 90.1137 29.7439 90.206 29.6603 90.3169C29.5766 90.4278 29.517 90.555 29.4852 90.6903C29.4535 90.8255 29.4502 90.9659 29.4757 91.1025L29.5064 91.1587Z" fill="white"/>
<path d="M24.594 93.6007C25.8078 94.649 27.2174 95.4462 28.7413 95.9462C30.2653 96.4462 31.8732 96.639 33.4721 96.5135C33.603 96.5013 33.7301 96.4635 33.8464 96.4021C33.9626 96.3408 34.0656 96.2572 34.1496 96.1561C34.2335 96.055 34.2967 95.9383 34.3355 95.8127C34.3743 95.6872 34.388 95.5552 34.3759 95.4244C34.3637 95.2935 34.3259 95.1663 34.2646 95.0501C34.2033 94.9339 34.1196 94.8309 34.0185 94.7469C33.9174 94.663 33.8007 94.5998 33.6752 94.561C33.5496 94.5222 33.4176 94.5084 33.2868 94.5206C31.952 94.6248 30.6097 94.4629 29.338 94.0441C28.0663 93.6254 26.8904 92.9582 25.8786 92.0814C25.6743 91.9417 25.4254 91.8827 25.18 91.9159C24.9347 91.9491 24.7104 92.0721 24.5506 92.2612C24.3907 92.4502 24.3067 92.6918 24.3147 92.9393C24.3228 93.1867 24.4223 93.4224 24.594 93.6007Z" fill="white"/>
<path d="M19.6906 82.1302C23.1606 83.0408 26.6843 83.7326 30.241 84.2017C31.5014 84.4249 31.86 82.4573 30.5898 82.2324C27.0331 81.7633 23.5094 81.0714 20.0394 80.1608C19.7782 80.1146 19.5094 80.174 19.292 80.3259C19.0747 80.4779 18.9266 80.71 18.8803 80.9711C18.8341 81.2323 18.8934 81.5011 19.0454 81.7185C19.1974 81.9358 19.4294 82.0839 19.6906 82.1302Z" fill="white"/>
<path d="M18.9953 86.7493L24.5557 87.8661C24.8169 87.9123 25.0857 87.8529 25.3031 87.701C25.5205 87.549 25.6686 87.3169 25.7148 87.0558C25.7611 86.7946 25.7017 86.5258 25.5497 86.3084C25.3977 86.0911 25.1657 85.943 24.9045 85.8967L19.3441 84.78C19.0829 84.7337 18.8141 84.7931 18.5967 84.9451C18.3793 85.097 18.2312 85.3291 18.185 85.5903C18.1387 85.8514 18.1981 86.1203 18.3501 86.3376C18.5021 86.555 18.7341 86.7031 18.9953 86.7493Z" fill="white"/>
<circle cx="325.044" cy="369.045" r="18" transform="rotate(15 325.044 369.045)" fill="url(#paint2_linear_1002_3912)"/>
<path d="M328.514 364.026C324.746 364.562 321.957 367.364 320.244 370.609C320.135 370.852 320.126 371.128 320.22 371.377C320.314 371.626 320.503 371.827 320.746 371.936C320.989 372.046 321.265 372.055 321.514 371.961C321.763 371.867 321.964 371.677 322.073 371.435C322.771 370.053 323.732 368.822 324.903 367.809C325.989 366.87 327.312 366.247 328.727 366.008C328.858 365.993 328.984 365.951 329.098 365.886C329.213 365.822 329.313 365.735 329.394 365.632C329.475 365.528 329.535 365.41 329.57 365.283C329.605 365.157 329.615 365.024 329.599 364.894C329.583 364.763 329.542 364.637 329.477 364.523C329.413 364.409 329.326 364.308 329.223 364.227C329.119 364.146 329.001 364.086 328.874 364.051C328.748 364.016 328.615 364.006 328.485 364.022L328.514 364.026Z" fill="white"/>
<path d="M320.293 371.435C320.561 371.964 320.868 372.472 321.21 372.956C321.478 373.4 321.404 373.631 321.056 374.004C320.707 374.378 320.029 374.864 319.512 375.283C319.235 375.515 318.954 375.776 318.649 375.994C318.649 375.994 318.487 376.132 318.415 376.142C318.62 376.121 318.422 376.092 318.344 376.01C317.955 375.427 317.57 374.885 317.211 374.235C317.028 373.986 316.881 373.713 316.775 373.423C316.722 373.062 316.776 372.694 316.931 372.364C317.359 371.085 317.97 369.875 318.745 368.771C320.25 366.45 322.357 364.581 324.84 363.363C326.176 362.756 327.554 362.25 328.965 361.849C330.138 361.507 331.79 361.134 332.757 362.186C333.176 362.698 333.501 363.28 333.716 363.905C333.845 364.197 334.001 364.169 333.751 364.355C333.501 364.54 333.075 364.821 332.748 365.056L331.701 365.781C331.587 365.865 331.167 366.248 330.997 366.233C330.827 366.218 330.572 365.685 330.488 365.571L329.645 364.436C328.912 363.378 327.311 364.567 328.044 365.625C328.477 366.47 329.047 367.237 329.731 367.896C330.123 368.16 330.591 368.289 331.063 368.264C331.535 368.239 331.987 368.061 332.349 367.757C333.166 367.22 333.986 366.664 334.778 366.094C335.191 365.843 335.503 365.455 335.66 364.998C335.816 364.54 335.806 364.043 335.632 363.592C335.147 361.882 334.144 360.188 332.387 359.696C330.63 359.204 328.318 359.863 326.556 360.503C324.674 361.078 322.899 361.956 321.3 363.103C319.841 364.291 318.541 365.662 317.433 367.182C316.287 368.69 315.428 370.397 314.901 372.216C314.765 372.693 314.737 373.195 314.818 373.684C314.9 374.173 315.089 374.638 315.373 375.046C315.791 375.902 316.314 376.703 316.931 377.429C317.278 377.801 317.748 378.035 318.254 378.085C318.76 378.136 319.267 378 319.681 377.703C320.583 377.06 321.442 376.36 322.254 375.607C322.652 375.317 322.968 374.929 323.171 374.48C323.373 374.032 323.456 373.538 323.41 373.048C323.255 372.115 322.535 371.514 322.181 370.693C321.679 369.507 319.82 370.254 320.334 371.431L320.293 371.435Z" fill="white"/>
<circle cx="303" cy="40" r="18" fill="url(#paint3_linear_1002_3912)"/>
<path d="M293.333 35.9355C298.381 34.2249 303.397 32.3879 308.487 30.8005C309.045 30.6111 309.564 30.6781 309.75 31.2274C310.19 32.5249 310.63 33.8225 311.07 35.12C311.904 37.5825 312.742 40.0544 313.576 42.5169C313.778 43.1135 313.977 43.7007 313.512 44.1964C312.804 44.943 311.54 45.139 310.602 45.4568L299.73 49.1411C299.076 49.3626 297.587 50.1732 297.006 49.61C296.765 49.3185 296.603 48.9697 296.536 48.5973C296.34 48.0195 296.148 47.4513 295.952 46.8736L294.467 42.7098L292.938 38.54C292.806 38.1517 292.675 37.7634 292.543 37.3751C292.412 36.9868 292.313 36.9461 292.341 36.7784C292.411 36.3005 292.964 36.0606 293.361 35.9258C293.613 35.8407 293.82 35.6593 293.937 35.4215C294.055 35.1837 294.073 34.909 293.988 34.6578C293.902 34.4066 293.721 34.1995 293.483 34.0821C293.245 33.9647 292.971 33.9465 292.72 34.0316C292.066 34.18 291.478 34.5362 291.044 35.0469C290.609 35.5576 290.352 36.1953 290.311 36.8644C290.387 37.4263 290.548 37.9735 290.787 38.4875L291.586 40.6876L293.125 44.9807C293.594 46.3635 294.214 47.7265 294.607 49.135C294.797 50.0853 295.35 50.9241 296.149 51.4737C296.584 51.7027 297.066 51.83 297.558 51.8462C298.05 51.8624 298.539 51.767 298.989 51.5672C300.22 51.1499 301.451 50.7327 302.673 50.3187L309.35 48.0561C310.648 47.6164 311.996 47.2334 313.271 46.7274C313.819 46.5366 314.317 46.2237 314.726 45.8125C315.135 45.4012 315.446 44.9023 315.634 44.3534C315.8 43.3801 315.674 42.3794 315.272 41.4775C314.778 40.019 314.284 38.5604 313.789 37.1019L312.31 32.7358C312.072 32.0349 311.832 31.3246 311.591 30.6143C311.453 30.1305 311.181 29.6956 310.807 29.3596C310.304 29.0067 309.716 28.7956 309.104 28.7486C308.491 28.7016 307.878 28.8203 307.327 29.0922L292.694 34.0507C292.469 34.1534 292.289 34.3362 292.191 34.5637C292.092 34.7912 292.082 35.0472 292.161 35.282C292.241 35.5168 292.405 35.7137 292.621 35.8344C292.838 35.9552 293.091 35.9912 293.333 35.9355Z" fill="white"/>
<path d="M292.057 37.3168L301.998 40.8851C302.236 41.0014 302.509 41.019 302.759 40.9342C303.01 40.8494 303.216 40.6691 303.334 40.4326C303.393 40.3144 303.428 40.1858 303.437 40.0541C303.446 39.9224 303.428 39.7902 303.386 39.6652C303.344 39.5402 303.277 39.4248 303.19 39.3256C303.103 39.2265 302.997 39.1456 302.878 39.0877L292.95 35.5256C292.831 35.4667 292.703 35.4318 292.571 35.4228C292.439 35.4138 292.307 35.431 292.182 35.4734C292.057 35.5157 291.942 35.5824 291.843 35.6696C291.744 35.7568 291.663 35.8628 291.605 35.9814C291.488 36.2186 291.471 36.4922 291.556 36.7424C291.64 36.9926 291.821 37.1991 292.057 37.3168Z" fill="white"/>
<path d="M308.529 30.0882C306.722 33.35 304.65 36.4572 302.333 39.3783C301.531 40.3784 303.033 41.6959 303.832 40.6864C306.255 37.6359 308.422 34.3907 310.31 30.9838C310.978 29.8389 309.143 28.972 308.519 30.0914L308.529 30.0882Z" fill="white"/>
<circle cx="69.5" cy="359.5" r="9.5" fill="url(#paint4_linear_1002_3912)"/>
<circle cx="339" cy="91" r="4" fill="url(#paint5_linear_1002_3912)"/>
<circle cx="314" cy="320" r="4" fill="url(#paint6_linear_1002_3912)"/>
<circle cx="492" cy="4" r="4" fill="url(#paint7_linear_1002_3912)"/>
<circle cx="4" cy="20" r="4" fill="url(#paint8_linear_1002_3912)"/>
<circle cx="74" cy="32" r="4" fill="url(#paint9_linear_1002_3912)"/>
<defs>
<linearGradient id="paint0_linear_1002_3912" x1="29" y1="198.5" x2="366" y2="198.5" gradientUnits="userSpaceOnUse">
<stop stop-color="#FFBD39"/>
<stop offset="1" stop-color="#FA9531"/>
<stop offset="1" stop-color="#FA9531"/>
</linearGradient>
<linearGradient id="paint1_linear_1002_3912" x1="7" y1="85" x2="43" y2="85" gradientUnits="userSpaceOnUse">
<stop stop-color="#FFBD39"/>
<stop offset="1" stop-color="#FA9531"/>
<stop offset="1" stop-color="#FA9531"/>
</linearGradient>
<linearGradient id="paint2_linear_1002_3912" x1="307.044" y1="369.045" x2="343.044" y2="369.045" gradientUnits="userSpaceOnUse">
<stop stop-color="#FFBD39"/>
<stop offset="1" stop-color="#FA9531"/>
<stop offset="1" stop-color="#FA9531"/>
</linearGradient>
<linearGradient id="paint3_linear_1002_3912" x1="285" y1="40" x2="321" y2="40" gradientUnits="userSpaceOnUse">
<stop stop-color="#FFBD39"/>
<stop offset="1" stop-color="#FA9531"/>
<stop offset="1" stop-color="#FA9531"/>
</linearGradient>
<linearGradient id="paint4_linear_1002_3912" x1="60" y1="359.5" x2="79" y2="359.5" gradientUnits="userSpaceOnUse">
<stop stop-color="#FFBD39"/>
<stop offset="1" stop-color="#FA9531"/>
<stop offset="1" stop-color="#FA9531"/>
</linearGradient>
<linearGradient id="paint5_linear_1002_3912" x1="335" y1="91" x2="343" y2="91" gradientUnits="userSpaceOnUse">
<stop stop-color="#FFBD39"/>
<stop offset="1" stop-color="#FA9531"/>
<stop offset="1" stop-color="#FA9531"/>
</linearGradient>
<linearGradient id="paint6_linear_1002_3912" x1="310" y1="320" x2="318" y2="320" gradientUnits="userSpaceOnUse">
<stop stop-color="#FFBD39"/>
<stop offset="1" stop-color="#FA9531"/>
<stop offset="1" stop-color="#FA9531"/>
</linearGradient>
<linearGradient id="paint7_linear_1002_3912" x1="488" y1="4" x2="496" y2="4" gradientUnits="userSpaceOnUse">
<stop stop-color="#FFBD39"/>
<stop offset="1" stop-color="#FA9531"/>
<stop offset="1" stop-color="#FA9531"/>
</linearGradient>
<linearGradient id="paint8_linear_1002_3912" x1="2.64157e-08" y1="20" x2="8" y2="20" gradientUnits="userSpaceOnUse">
<stop stop-color="#FFBD39"/>
<stop offset="1" stop-color="#FA9531"/>
<stop offset="1" stop-color="#FA9531"/>
</linearGradient>
<linearGradient id="paint9_linear_1002_3912" x1="70" y1="32" x2="78" y2="32" gradientUnits="userSpaceOnUse">
<stop stop-color="#FFBD39"/>
<stop offset="1" stop-color="#FA9531"/>
<stop offset="1" stop-color="#FA9531"/>
</linearGradient>
</defs>
</svg>
