<svg width="24" height="24" viewBox="0 0 24 24" fill="none" xmlns="http://www.w3.org/2000/svg">
<path d="M16.6739 6.07336C16.2402 5.63961 15.6618 5.63961 15.3727 6.07336L9.87849 11.5675L11.1797 12.8688L16.6739 7.37461C17.1077 7.08544 17.1077 6.50711 16.6739 6.07336ZM20.8668 6.07336L11.3243 15.6159L7.99891 12.2904C7.56516 11.8567 6.98682 11.8567 6.69766 12.2904C6.40849 12.7242 6.26391 13.3025 6.69766 13.5917L10.746 17.64C11.1797 18.0738 11.7581 18.0738 12.0472 17.64L22.3127 7.37461C22.7464 6.94086 22.7464 6.36253 22.3127 6.07336C21.7343 5.63961 21.156 5.63961 20.8668 6.07336ZM1.05891 13.5917L5.10724 17.64C5.54099 18.0738 6.11932 18.0738 6.40849 17.64L7.13141 16.9171L2.50474 12.2904C2.07099 11.8567 1.49266 11.8567 1.05891 12.2904C0.625159 12.7242 0.769742 13.3025 1.05891 13.5917Z" fill="white"/>
</svg>
