<svg width="142" height="20" viewBox="0 0 142 20" fill="none" xmlns="http://www.w3.org/2000/svg">
<path d="M32.9809 18.9051H39.263V1.18983H32.9809V18.9051ZM64.84 7.06879C64.84 3.85496 61.699 1.18983 55.1925 1.18983H42.0675V18.9051H48.1252V4.95236H55.6412C57.2118 4.87398 58.5579 5.65784 58.6701 6.75524C58.6701 6.83363 58.6701 6.9904 58.6701 7.06879C58.7823 8.16619 57.5483 9.10683 55.9778 9.10683C55.7534 9.10683 55.6412 9.10683 55.4169 9.10683H50.1444L58.1092 18.9051H64.5035L59.1188 12.4774C62.5964 11.8503 64.9522 9.57714 64.84 7.06879ZM13.3494 1.18983L0.560913 18.9051H8.18915L10.0962 16.0832H18.8462L16.1539 12.2423H12.6763L15.9296 7.38233L24.1187 18.9051H31.7469L18.3975 1.18983H13.3494ZM132.26 8.00942C127.1 7.22556 125.417 6.91201 125.417 5.73622C125.417 4.71721 127.324 4.24689 130.241 4.24689C133.045 4.32527 135.85 4.87398 138.318 5.893L140.337 2.28724C136.859 1.18983 132.933 0.64113 129.119 0.562744C122.949 0.562744 119.023 3.0711 119.023 6.20654C119.023 9.34198 122.276 10.6745 128.558 11.5368C133.494 12.2423 134.728 12.7126 134.728 13.7316C134.728 14.7506 132.709 15.2209 130.129 15.2209C126.763 15.1426 123.398 14.5155 120.257 13.4964L118.35 17.1022C122.164 18.4348 126.315 19.2186 130.577 19.297C138.206 19.297 141.347 16.7103 141.347 13.7316C141.347 11.0665 138.654 9.02844 132.26 8.00942ZM110.161 1.11145V11.0665C110.161 14.1235 107.581 15.3777 104.552 15.3777C101.523 15.3777 98.9427 14.1235 98.9427 11.0665V1.11145H92.5484V11.1449C92.5484 17.4941 97.9331 19.3754 104.552 19.3754C111.17 19.3754 116.555 17.4941 116.555 11.1449V1.11145H110.161ZM87.1638 9.8123C88.7343 8.95005 89.5196 7.5391 89.4074 6.20654C89.2952 3.38464 86.042 1.18983 82.0035 1.18983H67.1958V18.9051H82.6766C86.9394 18.9835 90.417 16.6319 90.6414 13.7316C90.5292 12.0855 89.2952 10.5178 87.1638 9.8123ZM73.2535 4.95236H82.0035C83.2375 4.95236 84.2471 5.57945 84.2471 6.4417C84.2471 7.30395 83.2375 7.93103 82.0035 7.93103H73.2535V4.95236ZM82.2279 15.1426H73.3657V11.6152H82.2279C83.6862 11.6152 84.808 12.399 84.9202 13.3397C84.808 14.4371 83.574 15.2209 82.2279 15.1426Z" fill="#B5B5B5"/>
</svg>
