<svg width="116" height="22" viewBox="0 0 116 22" fill="none" xmlns="http://www.w3.org/2000/svg">
<path d="M68.1883 20.6104C67.7396 20.6888 67.2909 20.6888 66.8422 20.6104C66.5056 20.6104 66.3934 20.5321 66.3934 20.4537C66.3934 20.3753 66.1691 13.4773 66.1691 10.8122V8.69578L66.73 8.61739C67.1787 8.53901 67.6274 8.46062 68.0761 8.53901C68.5248 8.53901 69.0858 8.61739 69.4223 8.77416C70.8806 9.24448 71.7781 10.4987 72.2268 12.3015C72.339 13.3989 72.339 14.5747 72.2268 15.6721C71.8903 17.7102 70.8806 19.2779 69.6467 20.0617C69.3101 20.3753 68.7492 20.5321 68.1883 20.6104ZM72.339 6.8929C71.6659 6.81451 71.105 6.81451 70.4319 6.81451C69.1979 6.81451 68.0761 6.97129 66.9543 7.36322L66.2813 7.59837C66.2813 7.59837 66.2813 6.10904 66.2813 4.22778C66.3934 3.13037 66.3934 2.03297 66.2813 0.857178C66.0569 0.857178 57.5312 1.95458 57.5312 2.03297C57.5312 2.11135 57.419 2.18974 57.419 2.4249C57.419 2.73844 57.419 2.73844 58.4287 2.89521C58.7652 2.89521 58.9896 2.9736 59.2139 3.13037C59.6626 3.44392 59.887 3.75746 59.9992 4.22778C60.1114 4.61971 60.2235 4.93325 60.2235 7.75515C60.2235 10.577 60.2235 13.6341 60.2235 19.0427V21.3159L60.7844 21.3943C61.6819 21.5511 64.1498 21.7862 64.9351 21.8646C66.6178 21.943 68.1883 21.943 69.871 21.8646C73.573 21.5511 76.714 19.905 78.0601 17.475C78.5089 16.6911 78.7332 15.9073 78.8454 15.1234C78.9576 14.026 78.9576 12.9286 78.7332 11.9096C77.948 9.16609 75.5922 7.36322 72.339 6.8929ZM58.8774 7.12806C58.8774 7.28483 56.8581 10.969 56.746 11.0474C56.4094 10.969 56.1851 10.8906 55.8485 10.8122C55.0633 10.4987 54.1658 10.4203 53.3806 10.3419C52.4831 10.3419 51.5857 10.4987 50.8004 10.969C50.5761 11.1257 50.5761 11.1257 50.5761 13.2422C50.5761 15.3586 50.5761 17.8669 50.8004 18.886C50.9126 19.7482 51.2491 20.2185 51.9222 20.3753C52.5953 20.4537 53.3806 20.5321 54.0536 20.6104C54.0536 20.7672 54.0536 20.924 54.0536 21.0808V21.5511H47.8838C44.5184 21.5511 41.7139 21.5511 41.7139 21.5511C41.7139 21.5511 41.6017 21.3943 41.6017 21.0808V20.6888H41.9382L42.7235 20.6104C43.5087 20.5321 44.0696 20.1401 44.1818 19.5914C44.5184 17.8669 44.6305 16.1424 44.5184 14.418C44.5184 10.577 44.4062 9.7148 43.8453 9.24448C43.5087 8.93093 43.2844 8.85255 42.6113 8.77416L41.7139 8.69578C41.4895 8.69578 41.4895 8.61739 41.4895 8.38223C41.4895 8.06869 41.4895 8.06869 41.7139 7.9903C41.9382 7.91192 50.1273 6.73613 50.3517 6.73613H50.5761V7.59837C50.5761 8.06869 50.5761 8.77416 50.4639 9.08771V9.7148L50.8004 9.32287C51.5857 8.30385 52.7075 7.4416 54.278 6.97129C54.9511 6.73613 55.7363 6.65774 56.5216 6.65774C57.6434 6.65774 58.7652 6.8929 58.7652 7.20644L58.8774 7.12806ZM91.2974 12.4583L88.2685 12.5367H86.698V12.3015C86.698 12.0664 86.8102 11.7528 86.8102 11.5177C87.3711 9.16609 88.6051 7.83353 90.0634 7.83353C91.6339 7.83353 92.4192 9.24448 92.5313 11.7528V12.4583H91.2974ZM94.4384 7.12806C91.7461 6.3442 88.7172 6.42258 86.1371 7.28483C83.6691 8.14708 81.8743 9.63641 81.089 11.4393C80.6403 12.4583 80.4159 13.4773 80.5281 14.5747C80.5281 15.1234 80.5281 15.6721 80.7525 16.2208C81.5377 19.0427 84.6788 21.2375 88.7172 21.7079C89.9512 21.7862 91.2974 21.7862 92.5313 21.7079C93.8775 21.5511 95.1115 21.2375 96.2333 20.6888C97.3551 20.1401 98.5891 19.3563 98.5891 19.0427C98.5891 18.7292 98.2525 18.5724 98.0282 18.5724C97.8038 18.6508 97.5794 18.7292 97.3551 18.8076C96.2333 19.2779 94.9993 19.5914 93.6532 19.513C91.8583 19.5914 90.1756 19.1211 88.9416 18.2589C88.4929 17.9453 88.1563 17.6318 87.8198 17.2399C87.1467 16.2992 86.698 15.2018 86.698 14.1044V13.6341H92.7557H98.8134V13.3206C98.8134 13.007 98.8134 12.6935 98.7012 12.3799C98.3647 9.79318 96.9064 7.9903 94.4384 7.12806ZM115.64 17.0831C115.753 17.5534 115.64 18.0237 115.416 18.494C114.631 20.1401 112.612 21.3159 110.256 21.6295C109.358 21.7862 108.349 21.8646 107.451 21.7862C106.442 21.7862 105.432 21.7862 105.208 21.7862C103.637 21.6295 102.067 21.3943 100.608 21.0808L100.272 21.0024V19.6698C100.272 18.9643 100.272 17.9453 100.16 17.475V16.6128L100.384 16.5344C100.496 16.5344 100.608 16.5344 100.833 16.5344H101.169L101.394 17.0047C102.515 18.886 103.862 19.9834 105.544 20.2185C106.329 20.3753 107.115 20.3753 107.9 20.2185C109.134 19.9834 110.031 19.1211 110.031 18.1805C110.031 17.0047 109.134 16.456 105.769 15.5154C104.31 15.2018 103.076 14.7315 102.067 13.9476C101.169 13.2422 100.608 12.3799 100.608 11.4393C100.496 10.1851 101.169 9.00932 102.403 8.06869C103.862 7.12806 105.769 6.57936 107.676 6.50097C109.919 6.42258 112.275 6.65774 114.406 7.12806L114.743 7.20644V8.38223C114.743 9.00932 114.855 9.87157 114.855 10.3419V11.1257L114.519 11.2041C113.846 11.3609 113.846 11.3609 113.509 10.7338C112.499 8.93094 111.378 8.06869 109.583 7.75515C108.124 7.51999 106.666 8.14708 106.329 9.16609C106.329 9.32287 106.217 9.47964 106.217 9.55802C106.105 10.0283 106.329 10.577 106.89 10.8906C108.012 11.5961 109.358 12.1448 110.817 12.4583C113.509 13.2422 114.743 13.9476 115.416 14.8883C115.64 15.6721 115.865 16.3776 115.64 17.0831ZM11.874 3.13037C11.7618 3.67907 11.6496 7.36322 11.6496 9.08771V10.8122H12.4349C12.8836 10.8122 13.6689 10.8122 14.2298 10.7338C14.7907 10.7338 15.2394 10.6554 15.8003 10.577C16.8099 10.1851 17.5952 9.40125 17.7074 8.53901L17.9317 7.9903H18.6048H19.2779V14.8883H18.6048H17.9317L17.7074 14.3396C17.483 13.4773 16.8099 12.7718 15.8003 12.3015C14.6785 12.1448 13.6689 12.0664 12.5471 12.0664H11.6496V13.3989C11.6496 14.8099 11.7618 16.7695 11.874 17.7886C12.0984 19.2779 12.5471 20.0617 13.5567 20.2969C14.0054 20.3753 14.4541 20.4537 14.7907 20.5321C15.1272 20.5321 15.5759 20.6104 15.9125 20.6888C16.1368 20.7672 16.1368 21.4727 15.9125 21.5511C15.6881 21.6295 1.21691 21.5511 1.10473 21.5511C0.992554 21.5511 0.992554 21.3159 0.992554 21.0024C0.992554 20.5321 0.992554 20.5321 2.22653 20.3753C2.89961 20.3753 3.57269 20.1401 4.02141 19.6698C4.91885 18.886 5.03103 17.3182 5.03103 11.0474C5.03103 5.09002 4.91885 3.91423 4.02141 2.9736C3.46051 2.50328 2.67525 2.26813 1.77781 2.26813L0.992554 2.18974V1.71942V1.24911H1.21691C1.32909 1.24911 6.60155 1.24911 12.8836 1.24911H24.2138V1.48427C24.2138 1.64104 24.326 2.89521 24.326 4.38455V7.04967L23.8773 7.12806C22.9798 7.28483 22.9798 7.28483 22.6433 6.57936C21.6337 4.77648 20.5119 3.75746 19.0535 3.20876C18.0439 2.81683 17.483 2.81683 14.5663 2.81683H11.874V3.13037ZM32.5151 20.6888C30.2715 21.1592 28.5888 19.6698 28.0279 16.5344C27.8036 14.8883 27.8036 13.2422 28.0279 11.5961C28.4766 9.08771 29.5984 7.75515 31.3933 7.75515C32.0664 7.75515 32.8516 7.91192 33.3004 8.30385C34.7587 9.32287 35.4318 11.3609 35.4318 14.418C35.4318 16.9263 35.0952 18.494 34.31 19.513C33.8613 20.0617 33.3004 20.4537 32.5151 20.6888ZM41.7139 13.007C41.2651 10.4203 39.6946 8.61739 37.2267 7.51999C34.0856 6.3442 30.2715 6.26581 27.0183 7.36322C24.6625 8.22546 22.9798 9.63641 22.1946 11.3609C21.4093 13.3206 21.4093 15.3586 22.1946 17.3182C22.6433 18.3373 23.4285 19.3563 24.5503 20.0617C25.8965 21.0024 27.6914 21.6295 29.5984 21.7862C30.8324 21.8646 32.0664 21.8646 33.3004 21.7862C33.7491 21.7079 34.1978 21.6295 34.6465 21.5511C38.2363 20.8456 41.0408 18.6508 41.6017 16.0641C41.9382 15.045 41.9382 13.9476 41.7139 13.007Z" fill="#B5B5B5"/>
</svg>
