<svg width="154" height="19" viewBox="0 0 154 19" fill="none" xmlns="http://www.w3.org/2000/svg">
<path d="M85.6396 0.424805L81.0402 2.85477L78.7966 8.42019L81.3768 11.0069H88.8928L87.3223 14.8478H81.1524L81.9377 12.9666H77.0017L75.9921 15.6317L78.5723 18.2185H87.2101L91.9217 15.7101L94.0531 10.0663L91.473 7.55794H84.0691L85.5274 3.79541H91.6973L90.9121 5.59829H95.848L96.9698 2.85477L94.3896 0.424805H85.6396Z" fill="#B5B5B5"/>
<path d="M104.373 0.424805L99.7737 2.85477L94.6134 15.7101L97.3057 18.2185H105.944L110.655 15.7101L112.001 12.1043H107.178L106.056 14.8478H99.8859L104.261 3.79541H110.431L109.309 6.53892H114.245L115.703 2.85477L113.123 0.424805H104.373Z" fill="#B5B5B5"/>
<path d="M138.252 0.424805L131.185 18.2185H136.121L138.252 12.8882H142.291L143.188 18.2185H148.012L147.002 12.1827L150.48 10.2231L153.397 2.93316L150.592 0.424805H138.252ZM141.73 3.79541H147.9L145.656 9.51759H139.486L141.73 3.79541Z" fill="#B5B5B5"/>
<path d="M55.5763 0.424805L51.65 10.4582L49.2942 0.424805H44.3583L37.291 18.2185H42.2269L46.2654 8.10664L48.7333 18.2185H53.4449L60.5122 0.424805H55.5763Z" fill="#B5B5B5"/>
<path d="M66.9073 0.424805L62.308 2.85477L56.2502 18.14H61.074L63.2054 12.8098H69.3753L67.2439 18.14H72.0676L78.2375 2.85477L75.6573 0.424805H66.9073ZM66.7951 3.7954H72.965L70.7214 9.51757H64.5515L66.7951 3.7954Z" fill="#B5B5B5"/>
<path d="M122.997 0.424805L118.398 2.85477L112.34 18.14H117.276L119.408 12.8098H125.577L123.446 18.14H128.382L134.44 2.85477L131.859 0.424805H122.997ZM122.997 3.7954H129.167L126.924 9.51757H120.754L122.997 3.7954Z" fill="#B5B5B5"/>
<path d="M32.0196 0.424805L24.9523 18.2185H34.7119L41.667 0.424805H32.0196Z" fill="#B5B5B5"/>
<path d="M17.9957 0.424805L10.9283 18.2185H15.6399L22.7072 0.424805H17.9957Z" fill="#B5B5B5"/>
<path d="M24.6136 0.424805L17.5463 18.2185H22.2579L29.213 0.424805H24.6136Z" fill="#B5B5B5"/>
<path d="M7.56316 0.424805L0.49585 18.2184H3.41252L10.4798 0.424805H7.56316Z" fill="#B5B5B5"/>
<path d="M12.3868 0.424805L5.31934 18.2185H8.23605L15.3035 0.424805H12.3868Z" fill="#B5B5B5"/>
</svg>
