<svg width="183" height="29" viewBox="0 0 183 29" fill="none" xmlns="http://www.w3.org/2000/svg">
<path d="M36.1349 4.38673C36.1349 3.91641 36.0227 3.68125 35.4618 3.68125H34.5643C34.4521 3.68125 34.4521 3.68125 34.4521 3.52448V3.28932C34.4521 3.21094 34.4521 3.21094 34.6765 3.21094C34.9009 3.21094 35.7983 3.21094 37.7054 3.21094C39.3881 3.21094 40.2855 3.21094 40.5099 3.21094C40.7342 3.21094 40.6221 3.21094 40.6221 3.28932V3.60287C40.6221 3.68125 40.6221 3.68125 40.5099 3.68125H39.7246C39.2759 3.68125 38.8272 3.91641 38.715 4.22996C38.715 4.38673 38.715 5.24897 38.715 6.03283V7.83571C38.715 8.54119 38.715 9.5602 38.715 10.0305C38.715 10.6576 38.9394 11.2847 39.3881 11.755C40.0612 12.3821 41.0708 12.6956 42.0804 12.6173C43.09 12.6173 43.9875 12.3821 44.7727 11.9118C45.558 11.2063 46.0067 10.4225 45.8945 9.48182V7.05185C45.8945 6.11122 45.7824 5.24897 45.6702 4.30834C45.6702 3.91641 45.3336 3.68125 44.8849 3.68125H44.2118C44.0996 3.68125 44.0997 3.68125 44.0997 3.60287V3.28932C44.0997 3.21094 44.0996 3.21094 44.2118 3.21094C44.324 3.21094 45.3336 3.21094 46.6798 3.21094C48.026 3.21094 48.5869 3.21094 48.699 3.21094C48.8112 3.21094 48.9234 3.21094 48.9234 3.28932V3.60287C48.9234 3.68125 48.9234 3.75964 48.8112 3.75964H48.1381C47.6894 3.75964 47.3529 3.9948 47.3529 4.30834C47.3529 4.30834 47.3529 4.30834 47.3529 4.38673C47.3529 4.5435 47.3529 6.58154 47.3529 6.73831C47.3529 6.89508 47.3529 9.40343 47.2407 9.95213C47.2407 10.9712 46.6798 11.9902 45.558 12.6956C44.5484 13.3227 43.2022 13.6363 41.9682 13.5579C40.9586 13.5579 40.0612 13.4795 39.1637 13.2443C38.0419 12.9308 37.1445 12.2253 36.8079 11.3631C36.4714 10.2657 36.3592 9.08989 36.4714 7.9141V4.38673H36.1349Z" fill="#B5B5B5"/>
<path d="M49.3715 10.109C49.4837 10.109 49.4837 10.109 49.4837 10.1873C49.4837 10.736 49.8203 11.2847 50.269 11.8334C50.8299 12.4605 51.8395 12.8525 52.8491 12.8525C54.1953 12.9308 55.317 12.147 55.4292 11.2064C55.4292 11.2064 55.4292 11.2064 55.4292 11.128C55.4292 9.79541 54.5318 9.40348 52.5126 8.85478C51.503 8.54123 50.4933 8.1493 49.5959 7.67899C48.9228 7.13029 48.4741 6.42481 48.5863 5.64095C48.5863 4.85709 49.035 4.15162 49.9324 3.6813C50.7177 3.21099 51.7273 2.97583 52.7369 2.97583C53.6344 2.97583 54.4196 3.05422 55.2049 3.28937C55.317 3.36776 55.5414 3.36776 55.6536 3.28937L55.8779 3.1326C55.9901 3.05422 56.1023 3.05422 56.1023 3.05422C56.2145 3.05422 56.2145 3.1326 56.2145 3.28937C56.2145 3.44615 56.551 5.48418 56.551 5.64095C56.551 5.79772 56.551 5.71934 56.4388 5.71934L56.1023 5.79772C55.9901 5.79772 55.9901 5.79772 55.8779 5.71934V5.64095C55.6536 5.09225 55.2049 4.54355 54.644 4.15162C54.0831 3.75969 53.41 3.52453 52.6247 3.60292C51.3908 3.52453 50.4933 4.23001 50.3812 5.01386C50.269 5.48418 50.4933 5.9545 50.9421 6.26804C51.6151 6.65997 52.5126 6.97351 53.41 7.13029C54.5318 7.28706 55.4292 7.67899 56.2145 8.22769C56.8876 8.77639 57.3363 9.48186 57.2241 10.2657C57.3363 11.9118 55.6536 13.3228 53.2978 13.4012C53.1856 13.4012 53.0735 13.4012 52.9613 13.4012C51.7273 13.4795 50.6055 13.2444 49.5959 12.6957C49.3715 12.6173 49.2594 12.5389 49.1472 12.5389C49.035 12.5389 48.9228 12.6173 48.8107 12.7741C48.6985 12.9308 48.5863 12.9308 48.4741 12.9308C48.3619 12.9308 48.2498 12.8525 48.2498 12.6957C48.2498 12.5389 48.5863 10.1873 48.5863 10.0306C48.5863 9.87379 48.5863 9.95218 48.6985 9.95218L49.3715 10.109Z" fill="#B5B5B5"/>
<path d="M71.4697 10.8931C71.4697 10.9715 71.4697 10.9715 71.4697 11.0499C70.2357 12.4608 67.9921 13.4015 65.5241 13.4015C63.617 13.4799 61.7099 13.0095 60.3638 12.0689C59.0176 11.0499 58.2323 9.63895 58.2323 8.228C58.2323 6.81705 58.9054 5.48449 60.2516 4.46547C61.5977 3.44645 63.5048 2.89775 65.4119 2.97614C66.7581 2.97614 68.2165 3.2113 69.4505 3.68161C69.6748 3.83838 69.787 3.83838 69.8992 3.68161V3.28968C69.8992 3.2113 70.0114 3.2113 70.2357 3.2113C70.4601 3.2113 70.4601 3.2113 70.4601 3.44645C70.4601 3.68161 70.9088 5.95481 70.9088 6.42512C70.9088 6.50351 70.9088 6.58189 70.7966 6.58189L70.4601 6.66028C70.3479 6.66028 70.3479 6.66028 70.2357 6.50351C69.8992 5.79803 69.4505 5.17095 68.6652 4.62224C67.7677 3.91677 66.5337 3.60323 65.1876 3.60323C62.0465 3.60323 60.7003 5.64126 60.7003 7.6793C60.7003 9.01186 61.3734 10.3444 62.4952 11.3634C63.2805 12.0689 64.5145 12.4608 65.8606 12.4608C67.7677 12.4608 69.4505 11.8338 70.5723 10.8147C70.6845 10.7364 70.7966 10.658 70.7966 10.7364L71.4697 10.8931Z" fill="#B5B5B5"/>
<path d="M78.0907 13.166C76.8567 12.8524 75.9593 12.1469 75.7349 11.2847C75.3984 10.1089 75.2862 9.01151 75.3984 7.83572V4.38674C75.3984 3.91643 75.2862 3.68127 74.6131 3.68127H73.7157C73.6035 3.68127 73.6035 3.68127 73.6035 3.5245V3.28934C73.6035 3.21095 73.6035 3.21095 73.8279 3.21095C74.0522 3.21095 75.0618 3.21095 76.5202 3.21095C77.9785 3.21095 78.9881 3.21095 79.2124 3.21095C79.4368 3.21095 79.4368 3.21095 79.4368 3.28934V3.60288C79.4368 3.68127 79.4368 3.68127 79.3246 3.68127H78.315C77.8663 3.68127 77.4176 3.91643 77.4176 4.22997C77.4176 4.38674 77.4176 5.32737 77.4176 6.03285V6.97347C77.4176 7.75733 77.5298 9.56021 77.5298 9.95214C77.5298 10.5792 77.6419 11.2063 78.0907 11.8334C78.8759 12.5389 79.9977 12.9308 81.2316 12.8524C82.3534 12.8524 83.363 12.6173 84.2605 12.0686C85.0457 11.3631 85.3822 10.5008 85.2701 9.56021V6.58155C85.2701 5.48414 85.2701 4.70029 85.1579 4.30836C85.1579 3.99481 84.7092 3.68127 84.2605 3.68127H83.363C83.2509 3.68127 83.2509 3.68127 83.2509 3.60288V3.21095C83.2509 3.13257 83.2509 3.13257 83.363 3.13257C83.4752 3.13257 84.4848 3.13257 85.831 3.13257C87.1771 3.13257 87.8502 3.13257 87.9624 3.13257C88.0745 3.13257 88.1867 3.21095 88.1867 3.21095V3.5245C88.1867 3.60288 88.1867 3.68127 88.0745 3.68127H87.2893C86.504 3.68127 86.504 4.0732 86.3919 4.22997C86.2797 4.38674 86.3919 6.42477 86.3919 6.58155C86.3919 6.73832 86.3919 9.24667 86.2797 9.79537C86.2797 10.8144 85.7188 11.8334 84.597 12.5389C83.5874 13.166 82.2413 13.4795 80.7829 13.4011C79.8855 13.4795 78.9881 13.4011 78.0907 13.166Z" fill="#B5B5B5"/>
<path d="M95.14 12.4604C95.14 12.6955 95.3644 12.7739 95.5887 12.7739H96.2618C96.4861 12.7739 96.4861 12.8523 96.4861 12.9307V13.1659C96.4861 13.2442 96.4861 13.3226 96.374 13.3226C96.2618 13.3226 95.4765 13.2442 94.3547 13.2442C93.233 13.2442 92.6721 13.3226 92.5599 13.3226C92.4477 13.3226 92.4477 13.2442 92.4477 13.1659V12.9307C92.4477 12.8523 92.5599 12.7739 92.6721 12.7739H93.233C93.4573 12.7739 93.5695 12.6955 93.5695 12.4604C93.5695 12.2252 93.5695 11.6765 93.5695 11.2846V9.40332C93.5695 8.85462 93.5695 8.46269 93.0086 8.14915C92.5599 7.91399 92.1112 7.8356 91.5503 7.91399C90.8772 7.91399 90.3163 8.14915 89.9798 8.46269C89.6432 8.69785 89.531 9.08978 89.531 9.40332V12.382C89.531 12.7739 89.531 12.8523 89.9798 12.8523H90.4285C90.5407 12.8523 90.6528 12.9307 90.6528 13.0091V13.2442C90.6528 13.3226 90.6528 13.401 90.5407 13.401C90.4285 13.401 89.8676 13.3226 88.858 13.3226C87.8484 13.3226 87.1753 13.401 87.0631 13.401C86.9509 13.401 86.9509 13.3226 86.9509 13.2442V13.0091C86.9509 12.9307 86.9509 12.8523 87.1753 12.8523H87.7362C87.9605 12.8523 88.0727 12.7739 88.0727 12.5388V9.24655C88.0727 8.85462 87.7362 8.54108 87.2875 8.3843L87.1753 8.30592C87.0631 8.22753 87.0631 8.22753 87.0631 8.14915V8.07076C87.0631 7.99237 87.1753 7.99237 87.2875 7.91399L88.9701 7.20851C89.0823 7.13013 89.1945 7.13013 89.3067 7.13013C89.4189 7.13013 89.4189 7.20851 89.4189 7.2869L89.531 8.14915C90.2041 7.52206 91.2137 7.20851 92.2233 7.13013C92.7842 7.13013 93.4573 7.20851 93.906 7.44367C94.4669 7.75722 94.9156 8.22753 95.0278 8.77623L95.14 12.4604Z" fill="#B5B5B5"/>
<path d="M97.4954 4.77871C97.6076 4.38679 98.1685 4.07324 98.7294 4.07324C99.2903 4.07324 99.739 4.38679 99.739 4.77871C99.739 5.24903 99.2903 5.56257 98.6172 5.56257C98.0563 5.56257 97.6076 5.24903 97.4954 4.77871ZM98.3928 9.16832C98.3928 8.698 98.2807 8.46284 97.2711 8.30607C97.1589 8.30607 97.0467 8.22769 97.0467 8.22769V8.07092C97.0467 7.99253 97.0467 7.99253 97.1589 7.99253C97.9441 7.75737 98.6172 7.52222 99.2903 7.28706C99.4024 7.20867 99.5146 7.20867 99.6268 7.20867C99.739 7.20867 99.739 7.28706 99.739 7.36544C99.739 7.6006 99.739 8.46284 99.739 9.63863V11.2063C99.739 11.755 99.739 12.3037 99.739 12.4605C99.739 12.7741 99.8511 12.8524 100.075 12.8524H101.085C101.197 12.8524 101.309 12.9308 101.309 13.0092V13.2444C101.309 13.3228 101.309 13.4011 101.085 13.4011C100.861 13.4011 99.9633 13.3228 99.1781 13.3228C98.0563 13.3228 97.2711 13.4011 97.0467 13.4011C96.8224 13.4011 96.9345 13.4011 96.9345 13.3228V13.0092C96.9345 12.9308 96.9345 12.9308 97.1589 12.9308H98.1685C98.3928 12.9308 98.505 12.8524 98.505 12.6173C98.505 12.2254 98.505 11.755 98.505 11.3631L98.3928 9.16832Z" fill="#B5B5B5"/>
<path d="M105.462 11.9119C105.799 11.3632 107.257 8.93322 107.482 8.38452C107.594 7.99259 107.482 7.75743 107.145 7.75743H106.696V7.67904V7.3655C106.696 7.28711 106.696 7.28711 106.809 7.28711C107.033 7.28711 107.482 7.3655 108.379 7.3655C109.277 7.3655 109.613 7.28711 109.837 7.28711C110.062 7.28711 110.062 7.28711 110.062 7.44388V7.67904C110.062 7.75743 110.062 7.83581 109.95 7.83581H109.613C109.389 7.83581 109.164 7.9142 108.94 7.99259C108.267 8.69806 107.818 9.48193 107.369 10.2658C107.145 10.6577 105.687 13.0877 105.575 13.1661C105.462 13.2445 105.35 13.4796 105.126 13.4796C104.902 13.4796 104.789 13.3229 104.677 13.1661C104.565 13.0093 103.219 10.4226 103.107 10.2658C102.994 10.109 102.209 8.54129 102.097 8.30613C101.873 7.9142 101.648 7.75743 101.312 7.75743H100.975C100.863 7.75743 100.863 7.67904 100.863 7.60065V7.3655C100.863 7.28711 100.863 7.28711 101.087 7.28711C101.312 7.28711 101.648 7.3655 102.77 7.3655C103.892 7.3655 104.341 7.28711 104.565 7.28711C104.789 7.28711 104.789 7.28711 104.789 7.3655V7.60065C104.789 7.67904 104.789 7.75743 104.677 7.75743H104.228C104.004 7.75743 103.892 7.83581 103.892 7.99259C104.004 8.54129 104.228 9.09 104.565 9.6387C104.453 10.0306 105.35 11.6767 105.462 11.9119Z" fill="#B5B5B5"/>
<path d="M114.101 9.01135C114.437 9.01135 114.662 8.93297 114.662 8.85458C114.662 8.54104 114.437 7.6004 113.091 7.6004C112.194 7.6004 111.408 7.99233 110.96 9.08974H114.101V9.01135ZM110.847 9.48167C110.847 9.71683 110.847 9.95199 110.847 10.1871C110.847 11.5981 112.081 12.6171 113.652 12.6171C114.662 12.6171 115.559 12.2252 116.12 11.6765C116.12 11.5981 116.232 11.5981 116.344 11.5981L116.569 11.6765C116.681 11.6765 116.681 11.7549 116.569 11.9116C115.783 13.2442 113.652 13.7929 111.745 13.2442C111.184 13.0874 110.623 12.7739 110.286 12.4603C109.613 11.8333 109.277 11.0494 109.389 10.1871C109.389 9.3249 109.838 8.54103 110.623 7.91395C111.408 7.36524 112.418 7.0517 113.428 7.13008C114.998 7.13008 116.344 8.07072 116.344 9.24651C116.344 9.40328 116.12 9.48167 115.783 9.48167H110.847Z" fill="#B5B5B5"/>
<path d="M118.25 9.48172C118.25 8.77625 118.026 8.61948 117.577 8.38433L117.24 8.22756C117.128 8.22756 117.128 8.14917 117.128 8.14917V8.07079C117.128 7.9924 117.128 7.9924 117.24 7.91401L119.035 7.20855C119.147 7.20855 119.26 7.13016 119.26 7.13016C119.372 7.13016 119.372 7.20855 119.372 7.28693L119.484 8.22756H119.596C120.045 7.60047 120.942 7.13016 121.952 6.97339C122.401 6.97339 122.849 7.20854 122.962 7.52209V7.60047C122.962 7.91401 122.625 8.22756 122.176 8.30594C121.952 8.30594 121.728 8.22756 121.615 8.22756C121.391 8.14917 121.167 8.07078 120.942 8.14917C120.494 8.22756 120.045 8.38433 119.821 8.77625C119.708 8.93303 119.708 9.0898 119.596 9.24657V12.2252C119.596 12.6955 119.708 12.8523 120.157 12.8523H121.055C121.167 12.8523 121.167 12.9307 121.167 13.0091V13.2442C121.167 13.3226 121.167 13.401 121.055 13.401C120.942 13.401 120.045 13.3226 118.923 13.3226C117.801 13.3226 116.904 13.401 116.68 13.401C116.455 13.401 116.567 13.401 116.567 13.2442V13.0091C116.567 12.9307 116.567 12.8523 116.792 12.8523H117.577C117.914 12.8523 118.026 12.7739 118.026 12.5388C118.026 12.0684 118.026 11.5981 118.026 10.8143L118.25 9.48172Z" fill="#B5B5B5"/>
<path d="M123.521 13.0091C123.409 12.9307 123.409 12.8524 123.409 12.774L123.073 11.4414C123.073 11.363 123.073 11.363 123.185 11.363L123.409 11.2846C123.521 11.2846 123.521 11.2846 123.634 11.363L124.082 12.0685C124.419 12.6172 124.755 12.9307 125.765 12.9307C126.55 13.0091 127.223 12.5388 127.335 11.9901C127.335 11.363 126.887 10.9711 125.428 10.6575C124.194 10.4224 123.073 9.95206 123.073 8.85466C123.185 7.83564 124.419 7.05177 125.877 7.13016C126.55 7.13016 127.111 7.20855 127.672 7.44371C128.009 7.52209 128.009 7.60048 128.009 7.67886L128.345 8.69788C128.345 8.77627 128.345 8.77627 128.233 8.85466L128.009 8.93304C127.896 8.93304 127.896 8.93304 127.784 8.85466L127.111 8.22757C126.887 7.83564 126.326 7.67886 125.765 7.67886C124.98 7.60048 124.307 8.0708 124.194 8.6195C124.194 9.48175 125.092 9.56013 126.101 9.79529C127.56 10.1088 128.457 10.5008 128.457 11.5982C128.457 12.6956 127.223 13.4794 125.653 13.4794C125.541 13.4794 125.541 13.4794 125.428 13.4794C124.755 13.4011 124.082 13.2443 123.521 13.0091Z" fill="#B5B5B5"/>
<path d="M129.694 4.77871C129.806 4.38679 130.254 4.07324 130.928 4.07324C131.488 4.07324 131.937 4.38679 131.937 4.77871C131.937 5.24903 131.488 5.56257 130.815 5.56257C130.254 5.56257 129.694 5.24903 129.694 4.77871ZM130.591 9.16832C130.591 8.698 130.479 8.46284 129.469 8.30607C129.357 8.30607 129.245 8.22769 129.245 8.22769V8.07092C129.245 7.99253 129.245 7.99253 129.357 7.99253C130.142 7.75737 130.815 7.52222 131.488 7.28706C131.601 7.20867 131.713 7.20867 131.825 7.20867C131.937 7.20867 131.937 7.28706 131.937 7.36544C131.937 7.6006 131.937 8.46284 131.937 9.63863V11.2063C131.937 11.755 131.937 12.3037 131.937 12.4605C131.937 12.7741 132.049 12.8524 132.274 12.8524H133.171C133.283 12.8524 133.396 12.9308 133.396 13.0092V13.2444C133.396 13.3228 133.396 13.4011 133.171 13.4011C132.947 13.4011 132.049 13.3228 131.264 13.3228C130.142 13.3228 129.357 13.4011 129.133 13.4011C128.908 13.4011 129.02 13.4011 129.02 13.3228V13.0092C129.02 12.9308 129.02 12.9308 129.245 12.9308H130.254C130.479 12.9308 130.591 12.8524 130.591 12.6173C130.591 12.2254 130.591 11.755 130.591 11.3631V9.16832Z" fill="#B5B5B5"/>
<path d="M135.975 11.4414C135.975 12.5388 136.648 12.6956 136.985 12.6956C137.434 12.6956 137.882 12.6172 138.331 12.5388C138.443 12.4604 138.555 12.4604 138.555 12.5388L138.667 12.6956C138.667 12.774 138.667 12.774 138.667 12.8524C137.994 13.2443 137.209 13.4011 136.424 13.4011C135.414 13.4011 134.629 12.8524 134.517 12.2253C134.517 11.6766 134.517 10.4224 134.517 10.1872V9.87369C134.517 9.63853 134.517 8.6979 134.517 8.07082H133.283C133.059 8.07082 132.946 7.99243 132.946 7.91404C132.946 7.83566 133.059 7.75727 133.283 7.67889C134.18 7.20857 134.966 6.58148 135.526 5.87601C135.526 5.79762 135.639 5.71924 135.751 5.71924C135.863 5.71924 135.975 5.79762 135.975 5.9544L135.863 7.36534H138.667C138.78 7.36534 138.892 7.44373 138.78 7.52211L138.555 7.99243C138.555 8.07082 138.555 8.07082 138.331 8.07082H135.751C135.751 8.6979 135.751 9.40338 135.751 10.0305L135.975 11.4414Z" fill="#B5B5B5"/>
<path d="M139.453 16.3799C139.453 16.0664 139.901 15.8312 140.35 15.8312C140.687 15.8312 141.023 15.9096 141.248 15.988C141.36 15.988 141.584 15.988 141.696 15.9096C142.257 15.1257 142.818 14.3419 143.267 13.4796C143.155 13.1661 141.023 8.69806 140.911 8.38452C140.799 8.07097 140.462 7.75743 140.014 7.75743H139.453C139.341 7.75743 139.341 7.67904 139.341 7.60065V7.3655C139.341 7.28711 139.341 7.28711 139.453 7.28711C139.565 7.28711 140.126 7.3655 141.248 7.3655C142.369 7.3655 142.818 7.28711 143.155 7.28711C143.491 7.28711 143.379 7.3655 143.379 7.3655V7.67904C143.379 7.75743 143.379 7.75743 143.267 7.75743H142.93C142.706 7.75743 142.594 7.83581 142.706 8.07097C142.818 8.30613 144.164 11.52 144.389 11.8335H144.501C144.725 11.5983 146.408 8.69806 146.52 8.30613C146.632 7.9142 146.52 7.75743 146.184 7.75743H145.847C145.735 7.75743 145.735 7.67904 145.735 7.67904V7.3655C145.735 7.28711 145.735 7.28711 145.847 7.28711C145.959 7.28711 146.52 7.3655 147.418 7.3655C147.979 7.3655 148.427 7.28711 148.652 7.28711C148.876 7.28711 148.764 7.3655 148.764 7.3655V7.67904C148.764 7.75743 148.764 7.83581 148.652 7.83581H148.203C147.979 7.83581 147.642 7.9142 147.53 8.07097C146.408 9.63869 145.286 11.2064 144.389 12.8525C143.379 14.4203 142.594 15.7528 142.257 16.2231C141.921 16.6934 141.584 17.1638 140.575 17.1638C140.014 17.2422 139.565 16.9286 139.453 16.5367C139.453 16.4583 139.453 16.4583 139.453 16.3799Z" fill="#B5B5B5"/>
<path d="M156.952 10.1872C156.952 8.61945 155.382 7.60043 154.372 7.60043C153.811 7.60043 153.25 7.7572 152.802 8.07075C152.016 8.69784 151.568 9.4817 151.792 10.2656C151.68 10.971 152.016 11.6765 152.577 12.2252C153.026 12.6955 153.699 13.0091 154.597 12.9307C155.943 13.0091 156.952 11.6765 156.952 10.1872ZM151.231 12.4604C150.446 11.8333 149.997 10.971 150.109 10.1872C150.109 9.24654 150.782 8.46268 151.792 7.91397C152.577 7.52204 153.475 7.2085 154.484 7.2085C155.494 7.2085 156.504 7.52204 157.289 7.99236C159.084 9.24654 159.084 11.2062 157.289 12.4604C156.504 13.0091 155.382 13.401 154.26 13.401C153.026 13.401 151.904 13.0091 151.231 12.4604Z" fill="#B5B5B5"/>
<path d="M160.653 7.99253H159.307C159.194 7.99253 159.194 7.99253 159.194 7.83575L159.307 7.44382C159.307 7.36544 159.419 7.36544 159.531 7.36544H160.653V7.0519C160.541 5.95449 161.101 4.93548 161.999 4.07323C162.784 3.36776 164.018 2.97583 165.252 2.97583C166.15 2.97583 167.047 3.21099 167.047 3.75969C167.047 4.07323 166.711 4.30839 166.15 4.38678C165.925 4.38678 165.813 4.38678 165.589 4.30839C165.364 4.23 165.252 4.07323 165.14 3.99485C164.916 3.75969 164.579 3.6813 164.243 3.6813C163.682 3.6813 163.121 3.83807 162.784 4.15162C162.111 4.85709 162.111 6.03288 162.111 7.0519V7.36544H164.467C164.579 7.36544 164.579 7.44382 164.579 7.44382L164.467 7.91414C164.467 7.99253 164.355 7.99253 164.243 7.99253H162.111V9.2467C162.111 10.8928 162.111 12.2254 162.111 12.3821C162.111 12.5389 162.223 12.7741 162.672 12.7741H163.794C164.018 12.7741 164.018 12.7741 164.018 12.8524V13.0876C164.018 13.166 164.018 13.2444 163.906 13.2444C163.794 13.2444 163.009 13.166 161.55 13.166C160.428 13.166 159.419 13.2444 159.307 13.2444C159.194 13.2444 159.194 13.2444 159.194 13.166V12.8524C159.194 12.7741 159.194 12.7741 159.419 12.7741H160.428C160.765 12.7741 160.877 12.6173 160.877 12.3037L160.653 7.99253Z" fill="#B5B5B5"/>
<path d="M36.8072 26.0214C36.5829 25.8646 36.4707 25.8646 36.3585 25.8646C36.2463 25.8646 36.1341 25.943 36.022 26.0998C35.9098 26.2566 35.7976 26.2566 35.6854 26.2566C35.5732 26.2566 35.4611 26.1782 35.4611 26.0214C35.5732 25.6295 35.6854 23.8266 35.7976 23.4347C35.7976 23.3563 35.7976 23.3563 35.9098 23.3563H36.2463C36.3585 23.3563 36.3585 23.3563 36.3585 23.4347C36.3585 23.9834 36.5829 24.6105 37.0316 25.0808C37.5925 25.7079 38.7143 26.1782 39.8361 26.0998C41.2944 26.1782 42.4162 25.3943 42.5284 24.4537C42.5284 24.4537 42.5284 24.4537 42.5284 24.3753C42.5284 22.886 41.07 22.3373 39.4995 21.9453C38.3777 21.7102 37.4803 21.3182 36.5829 20.7695C35.9098 20.2208 35.4611 19.437 35.5732 18.7315C35.6854 18.026 36.022 17.3989 36.8072 16.9286C37.5925 16.4583 38.6021 16.2231 39.6117 16.2231C40.3969 16.2231 41.1822 16.3015 41.9675 16.6151C42.1918 16.6935 42.1918 16.6935 42.304 16.6151L42.5284 16.4583C42.6405 16.3799 42.6405 16.3799 42.7527 16.3799C42.8649 16.3799 42.8649 16.4583 42.8649 16.6151C42.8649 17.0854 43.0893 18.5747 43.0893 18.8883C43.0893 18.9667 43.0893 18.9667 42.9771 18.9667H42.7527H42.6405C42.4162 18.3396 41.9675 17.7909 41.4066 17.3206C40.8457 16.9286 40.0604 16.6935 39.2752 16.6935C38.0412 16.6935 37.0316 17.3206 36.9194 18.1828C36.9194 18.2612 36.9194 18.3396 36.9194 18.3396C36.9194 18.8099 37.1437 19.2018 37.4803 19.5938C38.1534 19.9857 38.9386 20.2992 39.7239 20.456C40.9578 20.6128 42.0796 21.0047 42.8649 21.6318C43.4258 22.1805 43.7623 22.886 43.7623 23.5914C43.7623 25.2376 42.304 26.7269 39.7239 26.7269C38.8264 26.8053 37.7046 26.5701 36.8072 26.0214Z" fill="#B5B5B5"/>
<path d="M51.8385 23.4345C51.8385 21.8668 50.2679 20.8478 49.2583 20.8478C48.6974 20.8478 48.1365 21.0045 47.6877 21.3181C46.9025 21.9452 46.4537 22.729 46.6781 23.5913C46.5659 24.2967 46.9025 25.0022 47.4634 25.5509C47.9121 26.0212 48.5852 26.3347 49.4827 26.2564C50.8288 26.3347 51.8385 25.0022 51.8385 23.4345ZM46.1172 25.7861C44.4344 24.4535 44.6588 22.4155 46.6781 21.2397C46.6781 21.2397 46.7903 21.2397 46.7903 21.1613C48.3608 20.2207 50.7167 20.2991 52.175 21.3181C53.97 22.5723 53.97 24.5319 52.2872 25.7861C51.5019 26.3348 50.3801 26.7267 49.1461 26.7267C48.0243 26.7267 46.9025 26.3348 46.1172 25.7861Z" fill="#B5B5B5"/>
<path d="M61.5978 23.6696C61.5978 24.3751 61.5978 25.0805 61.5978 25.3157C61.7099 25.786 61.8221 25.786 62.1587 25.786C62.383 25.786 62.6074 25.786 62.8317 25.786C62.9439 25.786 63.0561 25.786 63.0561 25.8644V26.0212C63.0561 26.0996 63.0561 26.0996 62.9439 26.1779L60.8125 26.6483C60.7003 26.6483 60.5882 26.7266 60.3638 26.7266C60.2516 26.7266 60.2516 26.7266 60.1394 26.5699L60.0273 25.786C59.3542 26.4131 58.3446 26.7266 57.335 26.805C56.5497 26.805 55.8766 26.5699 55.4279 26.1779C54.6427 25.3941 54.6427 25.0021 54.6427 23.4344V21.7883C54.6427 21.3964 54.3061 21.318 53.8574 21.2396C53.4087 21.1612 53.4087 21.2396 53.4087 21.1612V20.926C53.4087 20.8477 53.4087 20.8477 53.6331 20.8477H55.4279C55.5401 20.8477 55.6523 20.8477 55.6523 20.8477H56.2132C56.3253 20.8477 56.4375 20.926 56.4375 21.0044C56.4375 21.0044 56.4375 21.0044 56.4375 21.0828C56.4375 21.2396 56.3253 21.8667 56.3253 22.7289V23.748C56.2132 24.4534 56.3253 25.2373 56.7741 25.8644C57.1106 26.2563 57.6715 26.4131 58.3446 26.4131C59.0176 26.3347 59.5785 26.0996 60.0273 25.7076C60.1394 25.6292 60.2516 25.4725 60.2516 25.3157V21.8667C60.2516 21.4747 59.9151 21.3964 59.3542 21.3964C58.7933 21.3964 58.9055 21.3964 58.9055 21.318V21.0828C58.9055 21.0044 58.9055 20.926 59.1298 20.926H60.9247C61.0369 20.926 61.149 20.926 61.2612 20.926H61.4856C61.5978 20.926 61.7099 21.0044 61.7099 21.0044C61.5978 21.6315 61.5978 22.2586 61.5978 22.8857V23.6696Z" fill="#B5B5B5"/>
<path d="M65.9755 24.7671C65.9755 25.8645 66.6486 26.0213 66.9851 26.0213C67.4339 26.0213 67.8826 25.9429 68.3313 25.8645C68.4435 25.7861 68.4435 25.7861 68.5557 25.8645L68.6678 26.0213C68.78 26.0997 68.78 26.0997 68.6678 26.178C67.9948 26.57 67.2095 26.7267 66.4242 26.7267C65.4146 26.7267 64.6294 26.178 64.5172 25.551C64.5172 24.9239 64.5172 23.7481 64.5172 23.5129V23.1994C64.5172 22.9642 64.5172 22.0236 64.5172 21.3965H63.3954C63.171 21.3965 63.0588 21.3181 63.0588 21.2397C63.0588 21.1613 63.171 21.083 63.3954 21.0046C64.2928 20.5343 65.0781 19.9072 65.639 19.2017C65.7512 19.1233 65.7512 19.0449 65.8633 19.0449C65.9755 19.0449 66.0877 19.1233 66.0877 19.2801L65.9755 20.691H68.78C68.8922 20.691 69.0044 20.7694 68.8922 20.8478L68.6678 21.3181C68.6678 21.3965 68.5557 21.3965 68.4435 21.3965H65.8633C65.8633 22.0236 65.8633 22.7291 65.8633 23.3561L65.9755 24.7671Z" fill="#B5B5B5"/>
<path d="M70.5742 18.8099C70.5742 17.9476 70.3498 17.7908 69.6767 17.6341L69.3402 17.5557C69.228 17.5557 69.228 17.5557 69.228 17.4773V17.3205C69.228 17.2421 69.228 17.2421 69.4524 17.1638L71.4716 16.3799C71.5838 16.3015 71.8082 16.3015 71.9203 16.3015C72.0325 16.3015 72.1447 16.3799 72.0325 16.6934C71.9203 17.007 72.0325 19.8289 72.0325 20.5344V21.475H72.1447C72.8178 20.9263 73.8274 20.6127 74.837 20.5344C75.6223 20.5344 76.2954 20.6911 76.8563 21.0831C77.5293 21.6318 77.8659 22.4156 77.7537 23.1995V23.9833C77.7537 24.7672 77.7537 25.6295 77.7537 25.943C77.7537 26.1782 78.0902 26.1782 78.539 26.1782H78.6511C78.7633 26.1782 78.8755 26.1782 78.8755 26.3349V26.5701C78.8755 26.6485 78.8755 26.7269 78.7633 26.7269C78.6511 26.7269 77.9781 26.7269 76.8563 26.7269C75.7345 26.7269 75.1736 26.7269 74.9492 26.7269C74.7248 26.7269 74.7248 26.7269 74.7248 26.5701V26.3349C74.7248 26.2565 74.7248 26.1782 74.837 26.1782H75.2857C75.6223 26.1782 76.071 26.1782 76.071 25.943C76.071 25.7078 76.071 25.0024 76.071 24.5321V23.4346C76.1832 22.8076 75.9588 22.1805 75.3979 21.7102C75.0614 21.475 74.6127 21.3182 74.0518 21.3182C73.3787 21.3182 72.7056 21.5534 72.2569 21.9453C72.0325 22.1021 71.9203 22.4156 71.8082 22.6508V25.7862C71.8082 26.2565 71.8082 26.3349 72.2569 26.3349H72.8178C72.93 26.3349 73.0421 26.3349 73.0421 26.4917V26.7269C73.0421 26.8052 73.0421 26.8836 72.8178 26.8836C72.5934 26.8836 71.8082 26.8836 70.9107 26.8836C70.0133 26.8836 69.1158 26.8836 69.0037 26.8836C68.8915 26.8836 68.8915 26.8836 68.8915 26.7269V26.4917C68.8915 26.4133 69.0037 26.3349 69.228 26.3349H69.6767C70.0133 26.3349 70.2376 26.2565 70.3498 26.0998C70.462 25.943 70.462 24.2969 70.462 23.3563L70.5742 18.8099Z" fill="#B5B5B5"/>
<path d="M83.4738 22.337C83.8103 22.337 84.0347 22.2586 84.0347 22.1803C84.0347 21.8667 83.8103 20.9261 82.4641 20.9261C81.5667 20.9261 80.7815 21.318 80.3327 22.4154H83.4738V22.337ZM80.3327 22.8074C80.3327 23.0425 80.2206 23.2777 80.2206 23.5128C80.2206 24.9238 81.4545 25.9428 83.025 25.9428C84.0347 25.9428 84.9321 25.5509 85.3808 25.0022C85.3808 24.9238 85.493 24.9238 85.6052 24.9238L85.8295 25.0022C85.8295 25.0022 85.9417 25.0806 85.8295 25.2373C85.0443 26.5699 82.9129 27.1186 81.0058 26.5699C80.4449 26.4131 79.884 26.0996 79.5475 25.786C78.8744 25.1589 78.5379 24.3751 78.65 23.5128C78.65 22.6506 79.0988 21.8667 79.884 21.2396C80.6693 20.6909 81.6789 20.3774 82.6885 20.4558C84.259 20.4558 85.6052 21.3964 85.6052 22.5722C85.6052 22.8074 85.3808 22.8074 85.0443 22.8074H80.3327Z" fill="#B5B5B5"/>
<path d="M87.6245 22.8077C87.6245 22.1022 87.5123 21.9454 86.9514 21.7103L86.5027 21.5535C86.3905 21.5535 86.3905 21.5535 86.3905 21.4751V21.3967C86.3905 21.3183 86.3905 21.3183 86.5027 21.2399L88.5219 20.5345C88.6341 20.5345 88.7462 20.4561 88.7462 20.4561C88.8584 20.4561 88.8584 20.5345 88.8584 20.6129L88.9706 21.5535H89.0828C89.5315 20.9264 90.4289 20.4561 91.4385 20.2993C91.8872 20.2993 92.3359 20.5345 92.4481 20.848V20.9264C92.4481 21.2399 92.1116 21.5535 91.6629 21.6319C91.4385 21.6319 91.2142 21.5535 91.102 21.5535C90.8776 21.4751 90.6533 21.4751 90.4289 21.4751C89.868 21.4751 89.4193 21.7103 89.1949 22.1022C89.0828 22.259 89.0828 22.4157 88.9706 22.5725V25.5512C88.9706 26.0215 89.0828 26.0999 89.5315 26.0999H90.4289C90.5411 26.0999 90.5411 26.1782 90.5411 26.2566V26.4918C90.5411 26.5702 90.5411 26.6486 90.4289 26.6486C90.3167 26.6486 89.4193 26.6486 88.2975 26.6486C87.1757 26.6486 86.2783 26.6486 86.1661 26.6486C86.054 26.6486 86.054 26.6486 86.054 26.4918V26.2566C86.054 26.1782 86.054 26.0999 86.2783 26.0999H87.0636C87.4001 26.0999 87.5123 26.0215 87.5123 25.8647C87.5123 25.3944 87.5123 24.9241 87.5123 24.1402L87.6245 22.8077Z" fill="#B5B5B5"/>
<path d="M101.086 25.7858C101.086 26.021 101.311 26.0994 101.535 26.0994H102.208C102.433 26.0994 102.433 26.1778 102.433 26.2562V26.4913C102.433 26.5697 102.433 26.6481 102.32 26.6481C102.208 26.6481 101.535 26.6481 100.413 26.6481C99.2915 26.6481 98.7306 26.6481 98.6185 26.6481C98.5063 26.6481 98.5063 26.6481 98.5063 26.4913V26.2562C98.5063 26.1778 98.5063 26.0994 98.7306 26.0994H99.2915C99.5159 26.0994 99.6281 26.021 99.7403 25.7858C99.8525 25.5507 99.7403 25.002 99.7403 24.6101V22.7288C99.7403 22.1801 99.7403 21.7882 99.1794 21.4747C98.7306 21.2395 98.2819 21.1611 97.721 21.2395C97.0479 21.2395 96.487 21.4747 96.1505 21.7882C95.8139 22.0234 95.7017 22.4153 95.7017 22.7288V25.7075C95.7017 26.0994 95.8139 26.1778 96.1505 26.1778H96.5992C96.8236 26.1778 96.8236 26.2562 96.8236 26.3345V26.5697C96.8236 26.6481 96.8236 26.7265 96.7114 26.7265C96.5992 26.7265 96.0383 26.7265 95.0287 26.7265C94.019 26.7265 93.3459 26.7265 93.2338 26.7265C93.1216 26.7265 93.1216 26.7265 93.1216 26.5697V26.3345C93.1216 26.2562 93.1216 26.1778 93.3459 26.1778H93.9068C94.1312 26.1778 94.2434 26.1778 94.2434 25.8642V22.572C94.2434 22.1801 93.9068 21.8666 93.4581 21.7098L93.2338 21.6314C93.1216 21.6314 93.1216 21.553 93.1216 21.4747V21.3963C93.1216 21.3179 93.2338 21.2395 93.3459 21.2395L95.0287 20.534C95.1408 20.4556 95.253 20.4556 95.3652 20.4556C95.4774 20.4556 95.4774 20.534 95.5896 20.6124L95.7017 21.4747C96.3748 20.8476 97.3845 20.534 98.3941 20.4556C99.7403 20.3773 100.974 21.0827 101.086 22.1017V25.7858Z" fill="#B5B5B5"/>
<path d="M110.845 25.4725C109.499 24.3751 108.713 22.9642 108.713 21.4748C108.713 20.0639 109.386 18.7313 110.733 17.7123C112.079 16.7717 113.874 16.223 115.669 16.3014C117.127 16.3014 118.473 16.6149 119.707 17.0852C119.931 17.1636 120.044 17.1636 120.156 17.0852L120.268 16.6933C120.268 16.6149 120.38 16.6149 120.492 16.6149C120.605 16.6149 120.717 16.6149 120.717 16.8501C120.717 17.0852 121.053 19.2016 121.165 19.5936C121.165 19.672 121.165 19.7503 121.053 19.7503L120.717 19.8287C120.605 19.8287 120.605 19.8287 120.492 19.7503C120.156 19.1232 119.595 18.4962 118.922 17.9475C118.024 17.242 116.903 16.8501 115.556 16.8501C111.967 16.8501 110.62 19.1232 110.62 21.1613C110.62 22.4938 111.294 23.748 112.528 24.8454C113.425 25.6293 114.883 26.0996 116.342 26.0212C118.249 26.0212 120.156 25.3157 121.278 24.2183C121.278 24.14 121.39 24.14 121.39 24.14L121.614 24.2967C121.614 24.2967 121.726 24.3751 121.614 24.4535C120.38 25.8644 118.137 26.8051 115.669 26.8051C113.986 26.8051 112.191 26.3348 110.845 25.4725Z" fill="#B5B5B5"/>
<path d="M126.665 23.4347C125.992 23.8266 123.972 24.1402 123.972 25.3159C123.86 25.7079 124.309 26.0214 124.87 26.0998C124.982 26.0998 124.982 26.0998 125.094 26.0998C125.655 26.0998 126.665 25.6295 126.665 25.2376V23.4347ZM128.123 24.8456C128.123 25.6295 128.347 25.943 128.684 25.943C128.908 25.943 129.245 25.8646 129.357 25.7079C129.469 25.6295 129.469 25.6295 129.581 25.6295L129.806 25.7079C129.806 25.7863 129.918 25.7863 129.806 25.943C129.581 26.335 128.908 26.6485 128.235 26.6485C127.45 26.6485 126.889 26.1782 126.889 25.7079C126.328 26.0998 125.655 26.4134 124.87 26.5701C124.533 26.6485 124.085 26.6485 123.748 26.6485C123.299 26.6485 122.514 26.335 122.514 25.4727C122.514 24.8456 122.963 24.2969 124.533 23.7482C125.319 23.5131 126.104 23.2779 126.777 22.9644V22.1021C126.777 21.867 126.665 21.5534 126.552 21.3183C126.216 21.0831 125.767 21.0047 125.319 21.0047C124.87 21.0047 124.421 21.0831 123.972 21.3183C123.748 21.475 123.86 21.7102 123.86 21.9453C123.86 22.4157 123.636 22.7292 122.851 22.7292C122.514 22.7292 122.402 22.5724 122.402 22.2589C122.514 21.7102 123.075 21.1615 123.748 20.9263C124.421 20.6128 125.319 20.456 126.216 20.456C126.777 20.3776 127.338 20.5344 127.786 20.8479C128.123 21.1615 128.235 21.475 128.235 21.867V24.8456H128.123Z" fill="#B5B5B5"/>
<path d="M133.17 22.3375C133.17 23.0429 133.17 25.2377 133.17 25.6297C133.17 25.8648 133.282 26.1 133.731 26.1H134.628C134.853 26.1 134.853 26.1784 134.853 26.2568V26.4919C134.853 26.5703 134.853 26.6487 134.741 26.6487C134.628 26.6487 133.731 26.6487 132.497 26.6487C131.263 26.6487 130.478 26.6487 130.254 26.6487C130.029 26.6487 130.141 26.5703 130.141 26.4919V26.2568C130.141 26.1784 130.141 26.1 130.366 26.1H131.263C131.487 26.1 131.712 26.0216 131.712 25.7081C131.712 25.2377 131.712 22.8078 131.712 22.0239V21.1617C131.712 20.1426 131.712 18.8885 131.712 18.4965C131.712 18.1046 131.263 17.7127 130.702 17.6343L130.254 17.5559C130.141 17.5559 130.141 17.5559 130.141 17.4775V17.3991C130.141 17.3207 130.254 17.3207 130.366 17.3207C131.151 17.0856 131.936 16.772 132.721 16.5369C132.834 16.4585 132.946 16.4585 133.17 16.4585C133.282 16.4585 133.395 16.5369 133.282 16.6937C133.282 17.4775 133.17 20.4562 133.17 21.24V22.3375Z" fill="#B5B5B5"/>
<path d="M135.638 18.1044C135.638 17.6341 136.199 17.3206 136.76 17.3206C137.321 17.3206 137.769 17.6341 137.769 18.026C137.769 18.4963 137.321 18.8099 136.647 18.8099C136.199 18.8099 135.638 18.4963 135.638 18.1044ZM136.535 22.4156C136.535 21.9453 136.423 21.7102 135.414 21.5534C135.301 21.5534 135.189 21.5534 135.189 21.475V21.3182C135.189 21.3182 135.189 21.2399 135.301 21.2399C136.087 21.0831 136.76 20.8479 137.433 20.5344C137.545 20.456 137.657 20.456 137.769 20.456C137.881 20.456 137.881 20.5344 137.881 20.6128C137.881 20.8479 137.881 21.7886 137.881 22.9644V24.5321C137.881 25.0808 137.881 25.6295 137.881 25.7863C137.881 25.943 137.994 26.1782 138.218 26.1782H139.115C139.228 26.1782 139.34 26.1782 139.34 26.335V26.5701C139.34 26.6485 139.34 26.7269 139.115 26.7269C138.891 26.7269 138.106 26.7269 137.208 26.7269C136.087 26.7269 135.301 26.7269 135.077 26.7269C134.853 26.7269 134.965 26.7269 134.965 26.6485V26.335C134.965 26.2566 135.077 26.1782 135.189 26.1782H136.199C136.423 26.1782 136.535 26.0998 136.535 25.8646C136.535 25.4727 136.535 25.0024 136.535 24.6105V22.4156Z" fill="#B5B5B5"/>
<path d="M141.582 21.3182H140.236C140.124 21.3182 140.124 21.3182 140.124 21.1614L140.236 20.7695C140.236 20.6911 140.348 20.6911 140.46 20.6911H141.582V20.3776C141.47 19.2802 141.918 18.2612 142.928 17.3989C143.713 16.6934 144.947 16.3015 146.181 16.3015C147.079 16.3015 147.976 16.5367 147.976 17.0854C147.976 17.3989 147.64 17.6341 147.079 17.7125C146.854 17.7125 146.742 17.7125 146.518 17.6341C146.294 17.5557 146.181 17.3989 146.069 17.3205C145.845 17.0854 145.508 17.007 145.172 17.007C144.611 17.007 144.05 17.1638 143.713 17.4773C142.928 18.1828 143.04 19.3586 143.04 20.3776V20.6911H145.396C145.508 20.6911 145.508 20.7695 145.508 20.8479L145.396 21.3182C145.396 21.3966 145.284 21.3966 145.172 21.3966H142.928V22.6508C142.928 24.2969 142.928 25.6294 142.928 25.7862C142.928 25.943 143.04 26.1781 143.489 26.1781H144.611C144.835 26.1781 144.835 26.1781 144.835 26.3349V26.5701C144.835 26.6485 144.835 26.7268 144.723 26.7268C144.611 26.7268 143.826 26.7268 142.367 26.7268C141.245 26.7268 140.236 26.7268 140.124 26.7268C140.011 26.7268 140.011 26.7268 140.011 26.6485V26.3349C140.011 26.2565 140.011 26.2565 140.236 26.2565H141.133C141.47 26.2565 141.582 26.0998 141.582 25.7862V21.3182Z" fill="#B5B5B5"/>
<path d="M151.567 23.4345C151.567 21.8668 149.997 20.8478 148.987 20.8478C148.426 20.8478 147.865 21.0045 147.417 21.3181C146.631 21.9452 146.183 22.729 146.407 23.5913C146.295 24.2967 146.631 25.0022 147.192 25.5509C147.641 26.0212 148.314 26.3347 149.211 26.2564C150.558 26.3347 151.567 25.0022 151.567 23.4345ZM145.846 25.7861C144.163 24.4535 144.388 22.4155 146.295 21.2397L146.407 21.1613C147.977 20.2207 150.333 20.2991 151.904 21.3181C153.699 22.5723 153.699 24.5319 151.904 25.7861C151.118 26.3348 149.997 26.7267 148.875 26.7267C147.641 26.7267 146.631 26.3348 145.846 25.7861Z" fill="#B5B5B5"/>
<path d="M154.708 22.8077C154.708 22.1022 154.596 21.9454 154.035 21.7103L153.698 21.5535C153.586 21.5535 153.586 21.5535 153.586 21.4751V21.3967C153.586 21.3183 153.586 21.3183 153.698 21.2399L155.718 20.5345C155.83 20.5345 155.942 20.4561 155.942 20.4561C156.054 20.4561 156.054 20.5345 156.054 20.6129L156.166 21.5535H156.278C156.727 20.9264 157.625 20.4561 158.634 20.2993C159.083 20.2993 159.532 20.5345 159.644 20.848V20.9264C159.644 21.2399 159.307 21.5535 158.859 21.6319C158.634 21.6319 158.41 21.5535 158.298 21.5535C158.073 21.4751 157.849 21.4751 157.625 21.4751C157.176 21.5535 156.727 21.7103 156.503 22.1022C156.391 22.259 156.278 22.4157 156.278 22.5725V25.5512C156.278 26.0215 156.391 26.0999 156.839 26.0999H157.737C157.849 26.0999 157.849 26.1782 157.849 26.2566V26.4918C157.849 26.5702 157.849 26.6486 157.737 26.6486C157.625 26.6486 156.727 26.6486 155.605 26.6486C154.484 26.6486 153.586 26.6486 153.474 26.6486C153.362 26.6486 153.362 26.6486 153.362 26.4918V26.2566C153.362 26.1782 153.362 26.0999 153.586 26.0999H154.371C154.708 26.0999 154.82 26.0215 154.82 25.8647C154.82 25.3944 154.82 24.9241 154.82 24.1402L154.708 22.8077Z" fill="#B5B5B5"/>
<path d="M168.059 25.7862C168.059 26.0213 168.283 26.0997 168.508 26.0997H169.181C169.405 26.0997 169.405 26.1781 169.405 26.2565V26.4916C169.405 26.57 169.405 26.6484 169.293 26.6484C169.181 26.6484 168.508 26.6484 167.386 26.6484C166.264 26.6484 165.703 26.6484 165.591 26.6484C165.479 26.6484 165.479 26.6484 165.479 26.4916V26.2565C165.479 26.1781 165.591 26.0997 165.703 26.0997H166.264C166.488 26.0997 166.601 26.0213 166.713 25.7862C166.825 25.551 166.713 25.0023 166.713 24.6104V22.7291C166.713 22.1804 166.713 21.7885 166.152 21.4749C165.703 21.2398 165.254 21.1614 164.694 21.2398C164.02 21.2398 163.46 21.4749 163.123 21.7885C162.786 22.0236 162.674 22.4155 162.674 22.7291V25.7078C162.674 26.0997 162.786 26.1781 163.123 26.1781H163.572C163.684 26.1781 163.796 26.2565 163.796 26.3349V26.57C163.796 26.6484 163.796 26.7268 163.684 26.7268C163.572 26.7268 163.011 26.7268 162.001 26.7268C160.992 26.7268 160.318 26.7268 160.206 26.7268C160.094 26.7268 160.094 26.7268 160.094 26.57V26.3349C160.094 26.2565 160.094 26.1781 160.318 26.1781H160.879C161.104 26.1781 161.328 26.1781 161.328 25.8645V22.5723C161.328 22.1804 160.992 21.8668 160.543 21.7101L160.431 21.6317C160.318 21.6317 160.318 21.5533 160.318 21.4749V21.3965C160.318 21.3181 160.431 21.2398 160.543 21.2398L162.226 20.5343C162.338 20.4559 162.45 20.4559 162.562 20.4559C162.674 20.4559 162.674 20.5343 162.674 20.6127L162.786 21.4749C163.46 20.9262 164.469 20.5343 165.479 20.4559C166.825 20.2991 168.171 21.0046 168.396 22.0236V22.102V25.7862H168.059Z" fill="#B5B5B5"/>
<path d="M170.413 18.1044C170.413 17.6341 170.974 17.3206 171.535 17.3206C172.095 17.3206 172.544 17.6341 172.544 18.026C172.544 18.4963 172.095 18.8099 171.422 18.8099C170.974 18.8099 170.525 18.4963 170.413 18.1044ZM171.31 22.4156C171.31 21.9453 171.198 21.7102 170.188 21.5534C170.076 21.5534 169.964 21.5534 169.964 21.475V21.3182C169.964 21.2399 169.964 21.2399 170.076 21.2399C170.861 21.0047 171.535 20.8479 172.208 20.5344C172.32 20.456 172.432 20.456 172.544 20.456C172.656 20.456 172.656 20.5344 172.656 20.6128C172.656 20.8479 172.656 21.7886 172.656 22.9644V24.5321C172.656 25.0808 172.656 25.6295 172.656 25.7863C172.656 25.943 172.769 26.1782 172.993 26.1782H173.89C174.002 26.1782 174.115 26.1782 174.115 26.335V26.5701C174.115 26.6485 174.115 26.7269 173.89 26.7269C173.666 26.7269 172.768 26.7269 171.983 26.7269C170.861 26.7269 170.076 26.7269 169.852 26.7269C169.628 26.7269 169.74 26.7269 169.74 26.6485V26.335C169.74 26.2566 169.852 26.1782 169.964 26.1782H170.974C171.198 26.1782 171.31 26.0998 171.31 25.8646C171.31 25.4727 171.31 25.0024 171.31 24.6105V22.4156Z" fill="#B5B5B5"/>
<path d="M179.052 23.4347C178.379 23.8266 176.359 24.1402 176.359 25.3159C176.247 25.7079 176.696 26.0214 177.257 26.0998C177.369 26.0998 177.369 26.0998 177.481 26.0998C178.042 26.0998 179.052 25.6295 179.052 25.2376V23.4347ZM180.51 24.8456C180.51 25.6295 180.734 25.943 181.071 25.943C181.295 25.943 181.632 25.8646 181.744 25.7079C181.856 25.6295 181.856 25.6295 181.968 25.6295L182.193 25.7079C182.305 25.7863 182.305 25.7863 182.193 25.943C181.968 26.335 181.295 26.6485 180.622 26.6485C179.837 26.6485 179.276 26.1782 179.164 25.7079C178.603 26.0998 177.93 26.4134 177.145 26.5701C176.808 26.6485 176.359 26.6485 176.023 26.6485C175.574 26.6485 174.789 26.335 174.789 25.4727C174.789 24.8456 175.238 24.2969 176.808 23.7482C177.593 23.5131 178.379 23.2779 179.052 22.9644V22.1021C179.052 21.867 178.94 21.5534 178.827 21.3183C178.491 21.0831 178.042 21.0047 177.593 21.0047C177.145 21.0047 176.696 21.0831 176.359 21.3183C176.135 21.475 176.247 21.7102 176.247 21.9453C176.247 22.4157 176.023 22.7292 175.238 22.7292C174.901 22.7292 174.789 22.5724 174.789 22.2589C174.901 21.7102 175.462 21.1615 176.135 20.9263C176.808 20.6128 177.706 20.456 178.603 20.456C179.164 20.3776 179.725 20.5344 180.174 20.8479C180.51 21.0831 180.734 21.475 180.622 21.867L180.51 24.8456Z" fill="#B5B5B5"/>
<path d="M9.65846 16.0662H8.08794C7.86358 16.0662 7.7514 16.0662 7.7514 15.9095C7.7514 15.8311 7.7514 15.7527 7.97576 15.6743C7.97576 15.6743 7.97576 15.6743 8.08794 15.6743C8.08794 15.7527 8.08794 15.8311 8.08794 15.8311C8.08794 15.9095 8.20012 15.9095 8.42448 15.9095H10.1072C9.995 16.0662 9.65846 16.0662 9.65846 16.0662Z" fill="#B5B5B5"/>
<path d="M9.21094 20.9253H8.53784C8.42566 20.9253 8.31348 20.9253 8.20129 20.8473C8.20129 20.7692 8.20129 20.6912 8.31348 20.6912V20.7692C8.31348 20.8473 8.42566 20.8473 8.53784 20.8473H9.4353C9.4353 20.9253 9.21094 20.9253 9.21094 20.9253Z" fill="#B5B5B5"/>
<path d="M10.2221 15.439C10.5587 15.2039 10.6708 14.8903 10.5587 14.5768C10.4465 14.2632 10.4465 13.9497 10.5587 13.6362L10.6708 13.4794H10.3343C10.1099 13.4794 9.88557 13.6362 9.66121 13.7929C9.32467 13.401 8.87595 13.0875 8.20286 12.8523C8.42722 13.3226 8.42722 13.5578 8.31504 13.7145C8.09068 13.5578 7.75414 13.401 7.4176 13.401H7.19323L7.30541 13.4794C7.4176 13.7145 7.4176 14.0281 7.19323 14.1849C7.08105 14.3416 6.96887 14.5768 6.96887 14.8119C6.96887 15.0471 7.08105 15.2823 7.4176 15.439C7.30541 15.5174 7.19323 15.6742 7.19323 15.831C7.19323 15.9877 7.30541 16.2229 7.52978 16.3013C7.64196 16.458 7.75414 16.6148 7.9785 16.6932L8.20286 20.299C7.86632 20.3773 7.52978 20.6125 7.64196 20.8477C7.64196 21.0828 7.9785 21.2396 8.31504 21.2396L8.42722 22.7289C8.42722 22.9641 8.65158 23.1208 8.98813 23.1208C9.32467 23.1208 9.54903 22.9641 9.54903 22.7289L9.66121 21.2396C9.99775 21.2396 10.2221 21.0044 10.2221 20.7693C10.2221 20.5341 9.99775 20.3773 9.66121 20.299L9.88557 16.6932C9.99775 16.6148 10.2221 16.458 10.2221 16.3013C10.5587 16.1445 10.6708 15.831 10.4465 15.5174C10.4465 15.5174 10.3343 15.439 10.2221 15.439ZM10.2221 13.7145C10.1099 14.0281 10.2221 14.3416 10.3343 14.5768C10.4465 14.8903 10.3343 15.1255 9.88557 15.2823H9.32467C9.66121 14.9687 9.88557 14.6552 9.88557 14.2632C9.88557 14.1849 9.88557 14.1065 9.88557 13.9497V13.8713C9.99775 13.8713 10.1099 13.7929 10.2221 13.7145ZM8.76376 13.1658C9.21249 13.401 9.54903 13.8713 9.66121 14.2632C9.66121 14.6552 9.32467 14.9687 8.98813 15.2823C8.87595 15.1255 8.76376 14.9687 8.76376 14.8119C8.76376 14.5768 8.87595 14.42 8.98813 14.2632C8.76376 14.42 8.65158 14.5768 8.5394 14.7336C8.5394 14.8903 8.5394 15.1255 8.76376 15.2823H8.5394C8.20286 15.0471 8.20286 14.6552 8.42722 14.42C8.42722 14.3416 8.76376 14.1065 8.76376 14.0281C8.76376 13.9497 8.76376 13.9497 8.76376 13.8713L8.65158 13.9497C8.5394 14.0281 8.31504 14.1849 8.20286 14.2632C7.9785 14.6552 7.9785 15.0471 8.20286 15.2823H8.09068C7.86632 15.1255 7.75414 14.8903 7.86632 14.6552C7.75414 14.1065 8.87595 14.0281 8.76376 13.1658ZM7.19323 14.8119C7.19323 14.6552 7.30541 14.42 7.4176 14.2632C7.64196 14.0281 7.64196 13.7929 7.64196 13.5578C7.86632 13.6362 7.9785 13.7145 8.09068 13.7929C7.9785 13.8713 7.86632 13.9497 7.86632 14.0281C7.4176 14.3416 7.30541 14.8903 7.75414 15.2823C7.4176 15.2823 7.19323 15.0471 7.19323 14.8119ZM9.10031 22.7289C9.10031 22.8073 8.98813 22.8857 8.87595 22.8857C8.76376 22.8857 8.65158 22.8073 8.65158 22.7289L8.5394 21.318H8.65158L8.76376 22.7289C8.76376 22.8073 8.87595 22.8857 8.87595 22.8857V21.3964H9.32467L9.10031 22.7289ZM9.77339 20.7693C9.77339 20.926 9.66121 21.0044 9.43685 21.0044H8.31504C8.09068 21.0044 7.9785 20.8477 7.9785 20.7693C7.9785 20.6909 8.09068 20.5341 8.31504 20.5341H9.43685C9.66121 20.5341 9.77339 20.6909 9.77339 20.7693ZM8.20286 16.7716H8.42722L8.65158 20.299H8.42722L8.20286 16.7716ZM8.65158 16.7716C8.87595 16.7716 9.21249 16.7716 9.54903 16.7716L9.32467 20.299H8.76376L8.65158 16.7716ZM9.43685 16.5364H8.31504C8.09068 16.5364 7.9785 16.458 7.86632 16.3797H9.88557C9.77339 16.458 9.54903 16.5364 9.43685 16.5364ZM9.88557 16.1445H7.75414C7.52978 16.1445 7.30541 15.9877 7.4176 15.831C7.4176 15.6742 7.52978 15.5174 7.75414 15.5174H9.88557C10.1099 15.5174 10.3343 15.6742 10.2221 15.9093C10.2221 15.9877 10.1099 16.1445 9.88557 16.1445Z" fill="#B5B5B5"/>
<path d="M22.3357 16.0662H20.7652C20.5409 16.0662 20.4287 16.0662 20.3165 15.9095C20.3165 15.8311 20.3165 15.6743 20.5409 15.6743C20.5409 15.7527 20.5409 15.8311 20.5409 15.8311C20.5409 15.9095 20.6531 15.9095 20.8774 15.9095H22.5601C22.5601 16.0662 22.3357 16.0662 22.3357 16.0662Z" fill="#B5B5B5"/>
<path d="M21.8882 20.9253H21.1029C20.9907 20.9253 20.8785 20.9253 20.7664 20.8473C20.7664 20.7692 20.7664 20.6912 20.8785 20.6912V20.7692C20.8785 20.8473 20.9907 20.8473 21.1029 20.8473H22.0004C22.1126 20.9253 21.8882 20.9253 21.8882 20.9253Z" fill="#B5B5B5"/>
<path d="M22.8957 15.439C23.2323 15.2039 23.3445 14.8903 23.2323 14.5768C23.1201 14.2632 23.1201 13.9497 23.2323 13.6362L23.3445 13.4794H23.1201C22.8957 13.4794 22.6714 13.6362 22.447 13.7929C22.1105 13.401 21.6618 13.0875 20.9887 12.8523C21.2131 13.3226 21.2131 13.5578 21.1009 13.7145C20.8765 13.5578 20.54 13.401 20.2035 13.401H19.9791L20.0913 13.5578C20.2035 13.7929 20.2035 14.1065 19.9791 14.2632C19.8669 14.42 19.7548 14.6552 19.7548 14.8903C19.7548 15.1255 19.8669 15.3606 20.2035 15.5174C19.8669 15.7526 19.8669 16.0661 20.2035 16.3013L20.3157 16.3797C20.4278 16.5364 20.54 16.6932 20.7644 16.7716L20.9887 20.3773C20.6522 20.4557 20.4278 20.6125 20.4278 20.8476C20.4278 21.0828 20.6522 21.3179 20.9887 21.3179L21.1009 22.8073C21.1009 23.0424 21.3253 23.1992 21.6618 23.1992C21.9983 23.1992 22.2227 23.0424 22.2227 22.8073L22.3349 21.3179C22.6714 21.3179 22.8957 21.0828 22.8957 20.8476C22.8957 20.6125 22.6714 20.4557 22.3349 20.3773L22.5592 16.7716C22.7836 16.6932 22.8957 16.5364 23.0079 16.3797C23.3445 16.2229 23.4566 15.831 23.2323 15.5958C23.0079 15.5174 23.0079 15.439 22.8957 15.439ZM22.7836 13.7145C22.6714 14.0281 22.7836 14.3416 22.8957 14.5768C23.0079 14.8903 22.8957 15.1255 22.447 15.2823H21.8861C22.2227 14.9687 22.447 14.6552 22.447 14.2632C22.447 14.1849 22.447 14.1065 22.447 13.9497V13.8713C22.6714 13.8713 22.7836 13.7929 22.7836 13.7145ZM21.4374 13.1658C21.8861 13.401 22.2227 13.8713 22.3349 14.2632C22.3349 14.6552 22.1105 14.9687 21.6618 15.2823C21.3253 14.9687 21.3253 14.5768 21.6618 14.1849C21.4374 14.3416 21.3253 14.4984 21.2131 14.6552C21.2131 14.8119 21.2131 15.0471 21.4374 15.2039H21.2131C20.8765 14.9687 20.8765 14.5768 21.1009 14.3416C21.1009 14.2632 21.4374 14.0281 21.4374 13.9497C21.4374 13.8713 21.4374 13.8713 21.4374 13.7929C21.4374 13.8713 21.3253 13.8713 21.3253 13.8713C21.2131 13.9497 20.9887 14.1065 20.8765 14.1849C20.54 14.4984 20.54 14.8903 20.8765 15.1255H20.6522C20.4278 14.9687 20.3157 14.7336 20.4278 14.4984C20.4278 14.1065 21.5496 14.0281 21.4374 13.1658ZM19.8669 14.8119C19.8669 14.6552 19.9791 14.42 20.0913 14.2632C20.3156 14.0281 20.3157 13.7929 20.3157 13.5578C20.54 13.6362 20.6522 13.7145 20.7644 13.7929L20.54 14.0281C20.0913 14.3416 19.9791 14.8903 20.4278 15.2823C20.0913 15.2823 19.8669 15.0471 19.8669 14.8119ZM21.774 22.7289C21.774 22.8073 21.774 22.8857 21.5496 22.964C21.4374 22.964 21.3253 22.964 21.2131 22.8073V22.7289L21.1009 21.3179H21.2131L21.3253 22.7289C21.3253 22.8073 21.4374 22.8857 21.4374 22.8857V21.3963H21.8861L21.774 22.7289ZM22.447 20.7692C22.447 20.926 22.3349 21.0044 22.1105 21.0044H20.9887C20.7644 21.0044 20.6522 20.8476 20.6522 20.7692C20.6522 20.6125 20.7644 20.5341 20.9887 20.5341H22.1105C22.3349 20.5341 22.447 20.6125 22.447 20.7692ZM20.8765 16.7716H21.1009L21.3253 20.2989H21.2131L20.8765 16.7716ZM21.3253 16.7716C21.5496 16.7716 21.8861 16.7716 22.2227 16.7716L21.9983 20.2989H21.4374L21.3253 16.7716ZM22.1105 16.5364H20.9887C20.7644 16.5364 20.6522 16.458 20.54 16.3797H22.5592C22.447 16.458 22.3349 16.5364 22.1105 16.5364ZM22.6714 16.1445H20.54C20.3157 16.1445 20.0913 15.9877 20.2035 15.831C20.2035 15.6742 20.3157 15.5174 20.54 15.5174H22.5592C22.7836 15.5174 23.0079 15.6742 22.8957 15.9093C22.8957 15.9877 22.7836 16.1445 22.6714 16.1445Z" fill="#B5B5B5"/>
<path d="M17.176 15.7528C17.6248 15.4392 17.8491 14.9689 17.6248 14.577C17.4004 14.1066 17.4004 13.6363 17.6248 13.166L17.7369 13.0092H17.5126C17.176 13.0876 16.8395 13.2444 16.6152 13.4012C16.2786 12.9309 15.7177 12.5389 15.0447 12.2254L14.7081 12.0686L14.8203 12.3821C14.9325 12.6173 14.9325 12.8525 14.8203 13.0876C14.8203 13.166 14.7081 13.2444 14.7081 13.3228C14.3716 13.0876 13.9229 12.9309 13.4742 12.8525H13.2498L13.362 13.0092C13.5863 13.3228 13.4742 13.7147 13.2498 14.0283C13.0254 14.2634 12.9133 14.577 12.9133 14.8905C12.9133 15.204 13.1376 15.5176 13.5863 15.7528C13.362 15.9095 13.2498 16.0663 13.2498 16.3015C13.2498 16.5366 13.4742 16.7718 13.8107 16.9285C13.8107 17.1637 14.0351 17.3205 14.3716 17.4772L14.7081 22.5723C13.9229 22.6507 13.5863 22.8859 13.5863 23.1994C13.5863 23.513 13.9229 23.7481 14.3716 23.8265L14.4838 25.8646C14.4838 26.1781 14.8203 26.3349 15.1568 26.3349C15.6055 26.3349 15.9421 26.0997 15.9421 25.8646L16.0543 23.8265C16.503 23.8265 16.8395 23.513 16.8395 23.1994C16.8395 22.8859 16.503 22.6507 16.0543 22.5723L16.3908 17.4772C16.7273 17.3989 16.9517 17.1637 16.9517 16.9285C17.4004 16.7718 17.6248 16.3015 17.2882 15.9879C17.4004 15.9095 17.2882 15.8311 17.176 15.7528ZM17.176 13.3228C17.0639 13.7931 17.0639 14.185 17.2882 14.6553C17.5126 15.0473 17.2882 15.5176 16.7273 15.6744H15.8299C16.2786 15.2824 16.6152 14.7337 16.6152 14.185C16.6152 14.0283 16.6152 13.8715 16.503 13.7147C16.7273 13.5579 16.9517 13.4796 17.176 13.3228ZM15.0447 13.2444C15.1568 13.0876 15.1568 12.8525 15.0447 12.6173C15.8299 13.0092 16.2786 13.5579 16.3908 14.185C16.3908 14.7337 16.0543 15.2824 15.4934 15.6744C15.269 15.4392 15.1568 15.2824 15.1568 14.9689C15.1568 14.6553 15.269 14.4202 15.4934 14.185C15.1568 14.3418 14.9325 14.577 14.9325 14.8905C14.9325 15.1257 14.9325 15.4392 15.1568 15.6744H14.8203C14.3716 15.2824 14.3716 14.8121 14.7081 14.4202C14.8203 14.3418 15.1568 13.9499 15.1568 13.8715C15.1568 13.7931 15.1568 13.7147 15.1568 13.7147C15.0447 13.7931 15.0447 13.8715 15.0447 13.8715C15.0447 13.8715 14.5959 14.2634 14.4838 14.3418C14.0351 14.7337 14.0351 15.2824 14.4838 15.6744H14.1472C13.5863 15.204 13.5863 14.4986 14.2594 14.0283L14.4838 13.8715C14.7081 13.7147 14.8203 13.4796 15.0447 13.2444ZM12.9133 14.9689C12.9133 14.7337 13.0254 14.4202 13.2498 14.2634C13.5863 13.9499 13.6985 13.5579 13.5863 13.2444C13.9229 13.3228 14.2594 13.4012 14.4838 13.6363L14.2594 13.7931L14.0351 13.9499C13.362 14.4202 13.2498 15.204 13.8107 15.7528H13.6985C13.2498 15.596 13.0254 15.2824 12.9133 14.9689ZM14.7081 17.634L15.0447 22.6507H14.7081L14.3716 17.634H14.7081ZM15.7177 25.8646C15.7177 26.0213 15.4934 26.1781 15.269 26.1781C15.0447 26.1781 14.8203 26.0213 14.8203 25.8646L14.7081 23.8265H14.9325L15.0447 25.7862C15.0447 25.9429 15.1568 25.9429 15.1568 25.9429V23.7481H15.8299L15.7177 25.8646ZM16.7273 23.1994C16.7273 23.4346 16.503 23.5914 16.1664 23.5914H14.4838C14.1472 23.5914 13.9229 23.4346 13.9229 23.1994C13.9229 22.9643 14.1472 22.8075 14.4838 22.8075H16.0543C16.3908 22.8075 16.7273 23.0427 16.7273 23.1994ZM15.9421 22.5723H15.1568L15.0447 17.5556H16.2786L15.9421 22.5723ZM16.1664 17.3989H14.4838C14.2594 17.3989 13.9229 17.3205 13.9229 17.0853H16.8395C16.6152 17.3205 16.3908 17.3989 16.1664 17.3989ZM16.7273 16.9285H13.9229C13.5863 16.9285 13.2498 16.6934 13.2498 16.4582C13.2498 16.2231 13.5863 15.9879 13.9229 15.9879H16.8395C17.176 16.0663 17.4004 16.3015 17.2882 16.5366C17.2882 16.6934 16.9517 16.8502 16.7273 16.9285Z" fill="#B5B5B5"/>
<path d="M13.6969 16.3797C13.5847 16.3013 13.5847 16.1446 13.6969 16.0662C13.4725 16.0662 13.3604 16.2229 13.3604 16.3797C13.3604 16.3797 13.3604 16.3797 13.3604 16.4581C13.4725 16.6933 13.6969 16.6933 13.9213 16.6933H16.3893C16.6136 16.6933 16.7258 16.6149 16.838 16.5365H14.0334C13.9213 16.5365 13.8091 16.5365 13.6969 16.3797Z" fill="#B5B5B5"/>
<path d="M14.3705 23.2779C14.2583 23.1995 14.2583 23.1211 14.3705 23.0427C14.1461 23.0427 14.0339 23.1995 14.1461 23.2779C14.2583 23.4346 14.3705 23.513 14.5948 23.513H15.9409C16.0531 23.513 16.1653 23.4346 16.2775 23.3563H14.707C14.4826 23.3563 14.3705 23.3563 14.3705 23.2779Z" fill="#B5B5B5"/>
<path d="M30.4135 7.05185V6.42477C30.4135 5.79768 30.3013 5.17059 30.0769 4.5435L29.9647 4.07318C29.9647 3.83803 29.8526 3.60287 29.7404 3.36771V3.21094L29.516 3.28932C29.1795 3.36771 28.7308 3.4461 28.282 3.4461L26.4872 3.60287C26.1506 3.60287 25.8141 3.60287 25.3654 3.60287C24.3557 3.60287 23.3461 3.52448 22.3365 3.4461L21.6634 3.28932C21.2147 3.21094 20.766 3.13255 20.4295 3.05417L19.6442 2.81901C18.5224 2.50546 17.625 2.19192 16.7275 1.7216L15.9423 1.32967L15.4936 1.01613L15.2692 0.937744L15.0448 1.09452C14.9327 1.1729 14.8205 1.25129 14.5961 1.32967L13.8109 1.7216C12.9134 2.11353 12.016 2.50546 11.0064 2.81901L10.2211 3.05417C9.77239 3.13255 9.43585 3.21094 8.98713 3.28932L8.20187 3.4461C7.30444 3.52448 6.407 3.60287 5.50956 3.60287C5.06084 3.60287 4.61213 3.60287 4.16341 3.60287L2.36853 3.4461C1.58327 3.36771 1.24674 3.28932 1.24674 3.28932L0.798017 3.21094V3.36771C0.798017 3.52448 0.685837 3.75964 0.685837 3.91641L0.461478 4.5435C0.349298 5.17059 0.237119 5.79768 0.237119 6.34638V6.97347C0.124939 7.3654 0.124939 7.67894 0.124939 7.99249V8.61957C0.124939 9.63859 0.237119 10.736 0.461478 11.755C0.910197 14.0282 1.80763 16.1446 3.04161 18.2611C4.94866 21.5533 8.53841 26.0213 15.0448 28.8432L15.2692 28.9999L15.4936 28.8432C22 26.0213 25.5897 21.5533 27.3846 18.2611C28.6186 16.1446 29.4038 13.9498 29.9647 11.755C30.1891 10.736 30.3013 9.63859 30.3013 8.61957V7.99249C30.4135 7.67894 30.4135 7.3654 30.4135 7.05185ZM23.4583 11.755L23.3461 11.5982C22.6731 11.755 22 11.8334 21.2147 11.8334C19.9807 11.8334 18.7468 11.6766 17.5128 11.3631C17.0641 11.2063 16.5032 11.1279 16.0545 11.0495C15.6057 10.9712 15.0448 10.9712 14.5961 11.0495C14.0352 11.1279 13.4743 11.2063 12.9134 11.3631C11.7916 11.755 10.5576 11.9118 9.32367 11.9118C8.42623 11.8334 7.5288 11.755 6.63136 11.5199L6.51918 11.6766L6.63136 11.5199L5.8461 11.3631L5.50956 11.2847C4.83649 11.1279 4.16341 11.0495 3.49033 11.0495C2.59289 11.0495 1.80763 11.2063 1.02238 11.5199C1.02238 11.4415 1.02238 11.2847 0.910197 11.1279C1.69545 10.8144 2.59289 10.6576 3.49033 10.6576C4.16341 10.6576 4.83648 10.736 5.39738 10.8144L6.407 11.0495L6.51918 10.8928L6.407 11.0495C7.30444 11.2847 8.31406 11.3631 9.21149 11.4415C10.5576 11.4415 11.7916 11.2847 13.1378 10.9712C13.5865 10.8144 14.1474 10.736 14.7083 10.6576H15.2692L16.0545 10.736C16.5032 10.8144 16.9519 10.8928 17.4006 10.9712C18.6346 11.2847 19.9807 11.4415 21.3269 11.4415C22.1122 11.4415 22.8974 11.3631 23.5705 11.1279L24.8045 10.8928L25.2532 10.8144C25.9263 10.736 26.5993 10.6576 27.2724 10.6576C28.1699 10.6576 29.0673 10.8144 29.8526 11.1279C29.8526 11.2847 29.8526 11.4415 29.7404 11.5199C28.9551 11.2847 28.1699 11.1279 27.2724 11.1279C26.5993 11.1279 25.8141 11.2063 25.141 11.3631L24.6923 11.4415L23.4583 11.6766V11.755ZM9.32367 10.5792C10.2211 10.5792 11.0064 10.5008 11.7916 10.3441C12.2403 10.2657 12.6891 10.1873 13.1378 10.0305C13.5865 9.87375 14.1474 9.79536 14.7083 9.71698H15.2692L16.0545 9.79536C16.5032 9.87375 16.9519 9.95214 17.4006 10.0305C17.9615 10.1873 18.5224 10.2657 19.0833 10.3441C19.8686 10.4225 20.5416 10.5008 21.3269 10.5008C22.1122 10.5008 22.8974 10.4225 23.5705 10.1873L24.8045 9.95214L25.2532 9.87375C25.9263 9.71698 26.5993 9.71698 27.2724 9.71698C28.1699 9.71698 29.0673 9.87375 29.9647 10.1873C29.9647 10.3441 29.9647 10.5008 29.9647 10.5792C29.1795 10.2657 28.282 10.1089 27.3846 10.1089C26.7115 10.1089 25.9263 10.1873 25.2532 10.2657L24.8045 10.3441L23.5705 10.5792C22.8974 10.736 22.2243 10.8144 21.4391 10.8144C20.2051 10.8144 18.9711 10.6576 17.7371 10.3441L16.9519 10.4225C16.7275 10.3441 16.391 10.3441 16.1666 10.2657C15.8301 10.2657 15.6057 10.1873 15.2692 10.1873C15.0448 10.1873 14.8205 10.1873 14.5961 10.1873C14.2596 10.1873 13.923 10.2657 13.6987 10.3441L12.9134 10.5008C11.6794 10.8144 10.4455 10.9712 9.21149 10.9712C8.31406 10.8928 7.41662 10.8144 6.51918 10.5792L5.50956 10.3441C4.83649 10.2657 4.16341 10.1873 3.49033 10.1873C2.59289 10.1873 1.69545 10.3441 0.910197 10.6576C0.910197 10.5008 0.910197 10.4225 0.798017 10.2657C1.58327 9.95214 2.48071 9.79536 3.49033 9.79536C4.16341 9.79536 4.83648 9.87375 5.39738 9.95214L6.407 10.1873L6.51918 10.0305L6.407 10.1873C7.41662 10.4225 8.31405 10.5792 9.32367 10.5792ZM15.2692 9.40343C15.0448 9.40343 14.8205 9.40343 14.5961 9.40343C14.0352 9.48182 13.4743 9.56021 12.9134 9.71698C11.9038 9.95214 10.782 10.1089 9.66021 10.1873C9.99675 8.22764 12.3525 6.65992 15.2692 6.73831C18.0737 6.73831 20.5416 8.22764 20.8782 10.1873C19.7564 10.1873 18.6346 10.0305 17.625 9.71698C17.1763 9.56021 16.7275 9.48182 16.1666 9.40343C15.9423 9.40343 15.6057 9.40343 15.2692 9.40343ZM23.5705 10.1089L23.4583 9.95214C22.7852 10.1089 22.1122 10.1873 21.4391 10.1873C21.3269 9.79536 21.2147 9.40343 20.9904 9.08989L29.9647 8.61957C29.9647 9.08989 29.9647 9.48182 29.8526 9.79536C29.0673 9.48182 28.0577 9.40343 27.1602 9.40343C26.4872 9.40343 25.7019 9.48182 25.0288 9.56021L24.5801 9.63859L23.3461 9.87375L23.5705 10.1089ZM29.9647 7.99249L20.8782 8.85473C20.766 8.77635 20.766 8.61957 20.6538 8.54119L29.9647 7.13024C29.9647 7.3654 29.9647 7.67894 29.9647 7.99249ZM29.516 4.62189C29.6282 5.24898 29.7404 5.87606 29.7404 6.42477L20.3173 8.30603C20.3173 8.14926 20.0929 7.99249 19.8686 7.83571L29.516 4.62189ZM27.1602 3.83803C27.8333 3.75964 28.5064 3.68125 29.2917 3.60287L29.4038 3.9948L19.7564 7.67894L19.4198 7.44378L27.1602 3.83803ZM22.3365 3.75964C23.3461 3.91641 24.3557 3.91641 25.3654 3.91641H25.7019L19.1955 7.3654C18.9711 7.20863 18.6346 7.05185 18.4102 6.97347L22.3365 3.75964ZM20.0929 3.36771C20.6538 3.52448 21.1025 3.60287 21.3269 3.60287L17.9615 6.8167L17.4006 6.65992L20.0929 3.36771ZM16.6154 2.19192C17.4006 2.58385 18.298 2.89739 19.3077 3.21094L17.0641 6.58154C16.6154 6.42477 16.2788 6.42477 15.8301 6.34638L16.6154 2.19192ZM15.2692 1.40806C15.4936 1.48645 15.7179 1.64322 15.8301 1.7216L15.4936 6.34638H15.0448L14.7083 1.79999C14.9327 1.64322 15.157 1.56483 15.2692 1.40806ZM13.923 2.19192L14.7083 6.34638C14.2596 6.34638 13.8109 6.42477 13.4743 6.50315L11.2307 3.13255C12.1282 2.89739 13.0256 2.58385 13.923 2.19192ZM10.4455 3.36771L13.0256 6.65992C12.8012 6.73831 12.6891 6.73831 12.4647 6.8167L9.09931 3.60287C9.66021 3.52448 9.99675 3.4461 10.4455 3.36771ZM5.39738 3.9948C6.29482 3.9948 7.30444 3.91641 8.20187 3.83803L12.1282 6.97347C11.9038 7.05185 11.5673 7.20863 11.3429 7.3654L4.83648 3.9948H5.39738ZM1.24674 3.68125C1.91981 3.75964 2.59289 3.83803 3.26597 3.91641L11.1185 7.52217C11.0064 7.60056 10.8942 7.60056 10.8942 7.67894L1.13456 3.9948L1.24674 3.68125ZM1.02238 4.70027L10.6698 7.9141C10.4455 7.99249 10.3333 8.14926 10.1089 8.38442L0.685837 6.50315C0.685837 5.87606 0.910197 5.32736 1.02238 4.70027ZM0.685837 7.13024L9.99675 8.61957C9.88457 8.69796 9.77239 8.77635 9.77239 8.85473L0.685837 7.99249C0.685837 7.67894 0.685837 7.3654 0.685837 7.13024ZM9.54803 9.08989C9.32367 9.48182 9.21149 9.79536 9.09931 10.1873C8.20188 10.1089 7.41662 10.0305 6.51918 9.79536L5.50956 9.56021C4.83649 9.40343 4.16341 9.40343 3.49033 9.40343C2.59289 9.40343 1.58327 9.56021 0.685837 9.87375C0.685837 9.48182 0.573658 9.08989 0.573658 8.61957L9.54803 9.08989ZM27.0481 18.1043C25.2532 21.3181 21.6634 25.7077 15.2692 28.4512C8.98713 25.7077 5.39738 21.3181 3.60251 18.1043C2.48071 16.1446 1.58327 14.0282 1.13456 11.9118C1.80763 11.5982 2.70507 11.4415 3.60251 11.4415C4.27559 11.4415 4.94867 11.5199 5.50956 11.5982L5.73392 11.6766L6.51918 11.8334C7.41662 12.0686 8.31405 12.1469 9.32367 12.2253C10.6698 12.2253 12.016 12.0686 13.25 11.755C13.6987 11.5982 14.2596 11.5199 14.7083 11.4415H15.2692L16.0545 11.5199C16.5032 11.5982 16.9519 11.6766 17.4006 11.755C18.6346 12.0686 19.9807 12.2253 21.3269 12.2253C22.1122 12.2253 22.8974 12.0686 23.5705 11.9118L24.8045 11.6766L25.2532 11.5982C25.9263 11.5199 26.5993 11.4415 27.2724 11.4415C28.0577 11.4415 28.9551 11.5982 29.6282 11.9118C29.0673 14.0282 28.1699 16.0662 27.0481 18.1043Z" fill="#B5B5B5"/>
</svg>
