<svg width="1380" height="544" viewBox="0 0 1380 544" fill="none" xmlns="http://www.w3.org/2000/svg">
<g opacity="0.4" filter="url(#filter0_f_1002_4110)">
<g opacity="0.4" filter="url(#filter1_f_1002_4110)">
<path fill-rule="evenodd" clip-rule="evenodd" d="M220.206 -387.001C219.594 -386.999 218.982 -386.955 218.375 -386.869C215.852 -386.521 213.489 -385.44 211.588 -383.764C209.687 -382.087 208.332 -379.89 207.695 -377.452C207.058 -375.013 207.169 -372.443 208.012 -370.067C208.855 -367.69 210.393 -365.615 212.431 -364.103L390.06 -232.002C391.41 -230.996 392.949 -230.263 394.586 -229.845C396.224 -229.427 397.929 -229.332 399.603 -229.565C401.278 -229.798 402.89 -230.354 404.347 -231.203C405.804 -232.052 407.078 -233.175 408.096 -234.51C409.113 -235.846 409.855 -237.366 410.278 -238.984C410.701 -240.602 410.797 -242.287 410.562 -243.942C410.326 -245.597 409.763 -247.19 408.904 -248.63C408.045 -250.07 406.908 -251.329 405.557 -252.334L227.943 -384.426C225.717 -386.095 223 -386.999 220.206 -387.001ZM-119.929 788.449C-123.256 788.443 -126.455 789.715 -128.85 791.997L-203.048 862.079C-204.889 863.82 -206.165 866.062 -206.715 868.521C-207.266 870.98 -207.065 873.545 -206.139 875.892C-205.214 878.238 -203.604 880.26 -201.515 881.702C-199.425 883.143 -196.95 883.94 -194.402 883.991C-190.989 884.017 -187.694 882.753 -185.194 880.457L-111.001 810.358C-109.161 808.617 -107.885 806.375 -107.335 803.917C-106.785 801.459 -106.986 798.894 -107.911 796.549C-108.837 794.203 -110.446 792.181 -112.535 790.74C-114.623 789.298 -117.098 788.502 -119.645 788.451L-119.929 788.449ZM1539.77 249.234C1538.56 249.233 1537.37 249.397 1536.21 249.724L1437.49 277.423C1434.21 278.347 1431.43 280.523 1429.77 283.472C1428.11 286.421 1427.7 289.9 1428.64 293.146C1429.57 296.392 1431.78 299.137 1434.76 300.778C1437.74 302.419 1441.26 302.822 1444.55 301.897L1543.27 274.2C1546.26 273.363 1548.85 271.485 1550.54 268.914C1552.24 266.342 1552.94 263.251 1552.52 260.209C1552.09 257.167 1550.56 254.381 1548.22 252.364C1545.88 250.347 1542.87 249.235 1539.77 249.234ZM-364.742 -291.775C-367.135 -291.776 -369.526 -291.612 -371.896 -291.286C-384.973 -289.471 -396.825 -282.712 -404.958 -272.432C-413.09 -262.151 -416.867 -249.153 -415.493 -236.175C-414.118 -223.197 -407.7 -211.253 -397.589 -202.86C-387.479 -194.466 -374.467 -190.279 -361.294 -191.179C-348.121 -192.08 -335.816 -197.998 -326.972 -207.687C-318.127 -217.377 -313.434 -230.08 -313.881 -243.122C-314.328 -256.163 -319.881 -268.524 -329.368 -277.599C-338.856 -286.675 -351.538 -291.758 -364.742 -291.775ZM-364.936 -210.401C-373.106 -210.414 -380.952 -213.559 -386.82 -219.176C-392.689 -224.792 -396.122 -232.441 -396.396 -240.51C-396.67 -248.579 -393.764 -256.437 -388.289 -262.43C-382.815 -268.423 -375.201 -272.082 -367.05 -272.635C-358.9 -273.189 -350.85 -270.594 -344.598 -265.398C-338.345 -260.202 -334.378 -252.81 -333.532 -244.78C-332.687 -236.75 -335.028 -228.709 -340.064 -222.352C-345.099 -215.995 -352.436 -211.818 -360.527 -210.701C-361.988 -210.504 -363.461 -210.403 -364.936 -210.401ZM1049.33 777.917C1038.95 777.929 1028.83 781.07 1020.32 786.919C1011.8 792.768 1005.29 801.047 1001.67 810.65C998.039 820.252 997.464 830.72 1000.02 840.653C1002.57 850.587 1008.14 859.513 1015.96 866.239C1023.79 872.964 1033.51 877.169 1043.82 878.29C1054.12 879.41 1064.53 877.394 1073.65 872.511C1082.77 867.628 1090.16 860.11 1094.84 850.963C1099.52 841.815 1101.26 831.474 1099.84 821.322C1098.13 809.285 1092.07 798.263 1082.79 790.286C1073.51 782.31 1061.63 777.918 1049.33 777.917ZM1049.28 859.291C1041.7 859.28 1034.38 856.568 1028.66 851.654C1022.95 846.74 1019.22 839.953 1018.15 832.539C1017.01 824.385 1019.2 816.116 1024.22 809.551C1029.25 802.986 1036.71 798.662 1044.96 797.531C1049.04 796.968 1053.2 797.205 1057.19 798.229C1061.18 799.254 1064.93 801.045 1068.22 803.5C1071.51 805.956 1074.28 809.028 1076.37 812.541C1078.46 816.054 1079.82 819.939 1080.39 823.975C1080.96 828.011 1080.72 832.118 1079.69 836.062C1078.65 840.007 1076.84 843.71 1074.35 846.962C1071.87 850.214 1068.76 852.951 1065.21 855.016C1061.65 857.08 1057.72 858.433 1053.64 858.996C1052.19 859.191 1050.73 859.289 1049.28 859.291ZM1394.41 798.097C1390.67 798.607 1386.86 798.01 1383.46 796.382C1380.07 794.753 1377.24 792.166 1375.33 788.948C1373.42 785.729 1372.52 782.024 1372.74 778.3C1372.96 774.576 1374.29 771.001 1376.57 768.025C1378.85 765.05 1381.97 762.809 1385.53 761.585C1389.1 760.361 1392.95 760.208 1396.6 761.148C1400.26 762.087 1403.55 764.075 1406.06 766.861C1408.57 769.647 1410.19 773.106 1410.71 776.801C1411.4 781.76 1410.07 786.789 1407.02 790.782C1403.96 794.775 1399.42 797.406 1394.41 798.097ZM1391.82 756.675C1390.74 756.676 1389.66 756.754 1388.59 756.909C1385.6 757.321 1382.72 758.312 1380.11 759.825C1377.51 761.337 1375.23 763.342 1373.41 765.724C1369.74 770.535 1368.14 776.592 1368.99 782.563C1369.83 788.533 1373.04 793.928 1377.91 797.561C1382.78 801.194 1388.9 802.766 1394.95 801.933C1400.74 801.167 1406.01 798.253 1409.71 793.782C1413.4 789.311 1415.24 783.619 1414.84 777.86C1414.44 772.102 1411.84 766.708 1407.57 762.775C1403.29 758.842 1397.66 756.656 1391.82 756.675ZM1391.75 794.407C1388.09 794.4 1384.55 793.088 1381.79 790.712C1379.03 788.337 1377.22 785.056 1376.71 781.472C1376.15 777.525 1377.21 773.522 1379.64 770.343C1382.07 767.164 1385.68 765.069 1389.67 764.52C1393.67 763.971 1397.72 765.013 1400.93 767.415C1404.15 769.818 1406.27 773.385 1406.83 777.332C1407.38 781.276 1406.32 785.273 1403.89 788.448C1401.46 791.623 1397.85 793.715 1393.86 794.266C1393.16 794.363 1392.46 794.405 1391.75 794.407ZM1687.15 548.935C1684.63 548.878 1682.19 548.085 1680.12 546.657C1678.06 545.228 1676.48 543.228 1675.56 540.908C1674.65 538.589 1674.46 536.055 1675 533.626C1675.55 531.197 1676.81 528.982 1678.63 527.261C1680.45 525.541 1682.74 524.391 1685.22 523.958C1687.7 523.525 1690.25 523.828 1692.56 524.829C1694.86 525.829 1696.82 527.483 1698.17 529.58C1699.53 531.677 1700.22 534.124 1700.17 536.611C1700.13 538.266 1699.77 539.897 1699.1 541.413C1698.42 542.928 1697.45 544.297 1696.24 545.441C1695.03 546.586 1693.61 547.484 1692.05 548.083C1690.49 548.683 1688.82 548.972 1687.15 548.935ZM1687.4 519.904C1683.02 519.919 1678.83 521.637 1675.73 524.684C1672.62 527.732 1670.86 531.865 1670.81 536.189C1670.77 540.513 1672.45 544.68 1675.49 547.788C1678.53 550.897 1682.69 552.697 1687.06 552.799C1691.48 552.87 1695.74 551.219 1698.93 548.204C1702.11 545.188 1703.97 541.052 1704.09 536.693C1704.18 532.326 1702.5 528.104 1699.44 524.955C1696.37 521.807 1692.17 519.991 1687.75 519.906L1687.4 519.904ZM1687.24 545.074C1685.49 545.04 1683.79 544.495 1682.36 543.508C1680.93 542.52 1679.82 541.135 1679.19 539.528C1678.55 537.92 1678.41 536.162 1678.79 534.476C1679.16 532.791 1680.04 531.253 1681.3 530.058C1683.04 528.526 1685.27 527.665 1687.6 527.632C1688.76 527.653 1689.9 527.901 1690.97 528.36C1692.03 528.818 1692.99 529.48 1693.79 530.305C1694.6 531.131 1695.23 532.106 1695.65 533.173C1696.08 534.24 1696.28 535.379 1696.26 536.525C1696.19 538.832 1695.21 541.021 1693.52 542.619C1691.84 544.217 1689.58 545.096 1687.24 545.067L1687.24 545.074ZM1795.84 -35.5121C1795.06 -35.5101 1794.27 -35.457 1793.5 -35.3531C1789.22 -34.7783 1785.33 -32.5847 1782.66 -29.2343C1779.98 -25.8839 1778.73 -21.6383 1779.16 -17.3922C1779.59 -13.1461 1781.67 -9.23097 1784.97 -6.47169C1788.26 -3.71247 1792.51 -2.32459 1796.82 -2.60047C1801.13 -2.87629 1805.16 -4.79426 1808.07 -7.95045C1810.97 -11.1066 1812.53 -15.2545 1812.4 -19.52C1812.27 -23.7855 1810.48 -27.8356 1807.39 -30.8171C1804.3 -33.7985 1800.16 -35.4784 1795.84 -35.5028L1795.84 -35.5121ZM1492.43 -445.669C1489.94 -445.33 1487.4 -445.728 1485.13 -446.815C1482.87 -447.902 1480.98 -449.628 1479.71 -451.776C1478.43 -453.923 1477.83 -456.395 1477.98 -458.879C1478.13 -461.363 1479.02 -463.748 1480.54 -465.732C1482.06 -467.717 1484.14 -469.211 1486.52 -470.028C1488.9 -470.843 1491.47 -470.944 1493.91 -470.317C1496.34 -469.69 1498.54 -468.363 1500.21 -466.504C1501.88 -464.645 1502.96 -462.337 1503.31 -459.872C1503.77 -456.563 1502.89 -453.209 1500.85 -450.546C1498.81 -447.882 1495.78 -446.128 1492.43 -445.669ZM1490.7 -474.592C1489.92 -474.591 1489.15 -474.537 1488.38 -474.431C1486.2 -474.147 1484.1 -473.44 1482.2 -472.351C1480.3 -471.262 1478.63 -469.812 1477.3 -468.084C1475.97 -466.356 1475 -464.386 1474.44 -462.285C1473.89 -460.185 1473.76 -457.997 1474.06 -455.846C1474.36 -453.696 1475.09 -451.626 1476.21 -449.756C1477.33 -447.886 1478.81 -446.253 1480.57 -444.951C1482.32 -443.649 1484.32 -442.703 1486.45 -442.169C1488.58 -441.635 1490.8 -441.522 1492.97 -441.838C1497.14 -442.423 1500.93 -444.544 1503.57 -447.776C1506.22 -451.007 1507.53 -455.109 1507.24 -459.257C1506.96 -463.405 1505.09 -467.292 1502.02 -470.136C1498.95 -472.98 1494.91 -474.575 1490.7 -474.592ZM1490.65 -449.411C1488.52 -449.417 1486.47 -450.181 1484.86 -451.564C1483.26 -452.947 1482.21 -454.856 1481.91 -456.94C1481.67 -458.655 1481.94 -460.405 1482.7 -461.966C1483.46 -463.528 1484.68 -464.831 1486.19 -465.711C1487.7 -466.59 1489.44 -467.007 1491.19 -466.908C1492.94 -466.809 1494.62 -466.198 1496.02 -465.154C1497.42 -464.109 1498.47 -462.678 1499.05 -461.041C1499.63 -459.404 1499.7 -457.634 1499.25 -455.958C1498.81 -454.281 1497.87 -452.772 1496.56 -451.622C1495.25 -450.472 1493.62 -449.733 1491.88 -449.498C1491.48 -449.442 1491.06 -449.411 1490.65 -449.411ZM14.0059 774.058C11.5107 774.398 8.9694 774 6.70338 772.913C4.43733 771.826 2.54829 770.099 1.27491 767.952C0.00156745 765.804 -0.598897 763.331 -0.450551 760.847C-0.302236 758.362 0.588206 755.976 2.10826 753.991C3.62828 752.006 5.70967 750.511 8.08927 749.695C10.4689 748.879 13.04 748.779 15.4775 749.406C17.915 750.034 20.1094 751.361 21.7835 753.221C23.4577 755.081 24.5363 757.39 24.883 759.855C25.3423 763.165 24.4535 766.519 22.4119 769.182C20.3702 771.845 17.3427 773.598 13.9941 774.056L14.0059 774.058ZM12.2535 745.137C9.96714 745.132 7.70439 745.593 5.60612 746.49C3.50788 747.388 1.61912 748.702 0.0575048 750.353C-1.50408 752.003 -2.7051 753.953 -3.47057 756.082C-4.23607 758.211 -4.54967 760.473 -4.39187 762.727C-4.23409 764.981 -3.6083 767.179 -2.55346 769.183C-1.49862 771.188 -0.0372808 772.956 1.73936 774.378C3.51603 775.8 5.56999 776.845 7.7733 777.449C9.97657 778.052 12.282 778.2 14.5459 777.885C18.7267 777.315 22.5324 775.196 25.1931 771.959C27.8539 768.722 29.1711 764.606 28.8784 760.446C28.5856 756.285 26.7048 752.39 23.6163 749.547C20.5277 746.705 16.462 745.128 12.2416 745.135L12.2535 745.137ZM12.2535 770.316C10.1214 770.315 8.06147 769.553 6.45189 768.171C4.84227 766.79 3.79106 764.88 3.49119 762.794C3.33122 761.659 3.39927 760.503 3.69148 759.394C3.98365 758.284 4.49421 757.243 5.19407 756.328C5.8939 755.414 6.7693 754.645 7.77009 754.065C8.77091 753.485 9.87751 753.106 11.0267 752.949C13.347 752.636 15.6983 753.243 17.5678 754.637C19.4373 756.03 20.6733 758.098 21.0063 760.389C21.166 761.524 21.0977 762.68 20.8054 763.789C20.5131 764.899 20.0025 765.941 19.3027 766.855C18.6029 767.77 17.7277 768.539 16.7271 769.119C15.7264 769.699 14.6199 770.079 13.4707 770.237C13.0601 770.291 12.6463 770.316 12.2321 770.314L12.2535 770.316ZM715.785 -405.805C719.522 -406.326 723.019 -407.93 725.834 -410.415C728.649 -412.899 730.656 -416.153 731.601 -419.764C732.545 -423.375 732.386 -427.182 731.142 -430.703C729.899 -434.225 727.627 -437.303 724.613 -439.549C721.6 -441.795 717.981 -443.109 714.212 -443.323C710.444 -443.537 706.697 -442.643 703.443 -440.753C700.188 -438.863 697.574 -436.062 695.93 -432.705C694.286 -429.347 693.686 -425.584 694.206 -421.889C694.552 -419.432 695.385 -417.067 696.657 -414.928C697.93 -412.789 699.616 -410.919 701.62 -409.425C703.624 -407.931 705.907 -406.843 708.338 -406.222C710.768 -405.6 713.299 -405.459 715.785 -405.805ZM713.208 -447.228C712.125 -447.225 711.044 -447.152 709.971 -447.01C704.049 -446.208 698.673 -443.166 694.976 -438.525C691.279 -433.884 689.55 -428.005 690.152 -422.129C690.755 -416.252 693.642 -410.836 698.206 -407.022C702.77 -403.207 708.654 -401.293 714.618 -401.681C720.583 -402.07 726.161 -404.732 730.179 -409.105C734.197 -413.478 736.339 -419.222 736.156 -425.126C735.973 -431.03 733.477 -436.633 729.195 -440.754C724.914 -444.876 719.18 -447.194 713.203 -447.22L713.208 -447.228ZM713.111 -409.493C709.266 -409.496 705.566 -410.94 702.757 -413.535C699.949 -416.129 698.241 -419.681 697.98 -423.471C697.718 -427.262 698.922 -431.009 701.348 -433.957C703.774 -436.904 707.242 -438.831 711.051 -439.35C713.026 -439.624 715.037 -439.512 716.968 -439.018C718.9 -438.525 720.714 -437.66 722.307 -436.473C723.9 -435.286 725.241 -433.801 726.253 -432.103C727.265 -430.404 727.929 -428.524 728.206 -426.572C728.758 -422.63 727.703 -418.632 725.274 -415.458C722.845 -412.284 719.24 -410.192 715.252 -409.643C714.543 -409.539 713.827 -409.493 713.111 -409.493ZM1804.75 -349.179C1808.49 -349.7 1811.99 -351.304 1814.8 -353.789C1817.62 -356.273 1819.62 -359.527 1820.57 -363.138C1821.51 -366.75 1821.36 -370.557 1820.11 -374.078C1818.87 -377.6 1816.6 -380.679 1813.58 -382.925C1810.57 -385.171 1806.95 -386.484 1803.18 -386.698C1799.41 -386.912 1795.66 -386.018 1792.41 -384.127C1789.16 -382.237 1786.54 -379.436 1784.9 -376.078C1783.26 -372.72 1782.66 -368.956 1783.18 -365.262C1783.52 -362.804 1784.35 -360.439 1785.63 -358.3C1786.9 -356.161 1788.58 -354.291 1790.59 -352.797C1792.59 -351.302 1794.87 -350.213 1797.31 -349.591C1799.74 -348.969 1802.27 -348.834 1804.75 -349.179ZM1802.15 -390.602C1801.07 -390.599 1800 -390.527 1798.93 -390.385C1795.94 -389.973 1793.06 -388.982 1790.46 -387.47C1787.85 -385.958 1785.57 -383.954 1783.75 -381.571C1781.93 -379.189 1780.6 -376.476 1779.84 -373.586C1779.08 -370.697 1778.91 -367.688 1779.32 -364.731C1779.74 -361.774 1780.74 -358.927 1782.27 -356.352C1783.8 -353.778 1785.83 -351.527 1788.24 -349.728C1790.65 -347.928 1793.4 -346.615 1796.32 -345.864C1799.25 -345.113 1802.29 -344.939 1805.28 -345.351C1811.04 -346.152 1816.28 -349.08 1819.94 -353.544C1823.61 -358.008 1825.42 -363.677 1825.03 -369.411C1824.63 -375.144 1822.05 -380.517 1817.81 -384.448C1813.56 -388.378 1807.97 -390.575 1802.16 -390.595L1802.15 -390.602ZM1802.11 -352.858C1798.16 -352.847 1794.36 -354.352 1791.51 -357.056C1788.67 -359.759 1786.99 -363.45 1786.84 -367.35C1786.7 -371.25 1788.09 -375.054 1790.72 -377.96C1793.36 -380.867 1797.03 -382.648 1800.97 -382.929C1804.91 -383.21 1808.81 -381.968 1811.84 -379.466C1814.87 -376.963 1816.8 -373.396 1817.22 -369.515C1817.64 -365.635 1816.52 -361.745 1814.09 -358.665C1811.66 -355.586 1808.12 -353.557 1804.21 -353.008C1803.52 -352.906 1802.82 -352.854 1802.12 -352.852L1802.11 -352.858ZM569.531 764.521C567.792 764.525 566.085 764.988 564.588 765.862C563.09 766.735 561.855 767.988 561.01 769.49C560.166 770.992 559.742 772.69 559.783 774.409C559.823 776.127 560.327 777.803 561.243 779.265L582.585 813.126L548.298 834.156C547.207 834.824 546.261 835.698 545.512 836.728C544.764 837.759 544.228 838.924 543.936 840.159C543.644 841.394 543.601 842.674 543.81 843.925C544.019 845.176 544.475 846.374 545.153 847.451L566.49 881.315L532.197 902.352C531.105 903.019 530.157 903.893 529.408 904.923C528.659 905.954 528.123 907.12 527.831 908.355C527.538 909.591 527.496 910.871 527.705 912.122C527.915 913.374 528.373 914.573 529.052 915.649L550.387 949.511L516.117 970.54C513.916 971.894 512.35 974.057 511.763 976.552C511.176 979.047 511.616 981.67 512.986 983.845C514.356 986.019 516.544 987.567 519.069 988.147C521.594 988.728 524.249 988.293 526.449 986.939L569.046 960.814C570.138 960.147 571.085 959.273 571.834 958.243C572.583 957.212 573.12 956.046 573.411 954.81C573.703 953.575 573.746 952.295 573.536 951.043C573.326 949.791 572.868 948.593 572.188 947.517L550.853 913.653L585.142 892.628C587.343 891.277 588.911 889.117 589.501 886.624C590.091 884.131 589.655 881.508 588.29 879.333L566.948 845.469L601.229 824.442C602.32 823.773 603.266 822.898 604.015 821.868C604.763 820.838 605.299 819.672 605.591 818.437C605.883 817.202 605.926 815.923 605.718 814.671C605.51 813.42 605.054 812.221 604.377 811.144L577.858 769.075C576.976 767.679 575.749 766.528 574.292 765.732C572.835 764.935 571.196 764.518 569.531 764.521ZM681.616 356.543C682.229 356.545 682.841 356.589 683.447 356.674C685.971 357.024 688.333 358.106 690.233 359.783C692.134 361.46 693.489 363.657 694.126 366.095C694.762 368.534 694.652 371.104 693.809 373.48C692.966 375.857 691.429 377.933 689.391 379.445L511.763 511.535C510.412 512.541 508.874 513.274 507.236 513.692C505.598 514.11 503.893 514.206 502.218 513.973C500.543 513.74 498.931 513.183 497.473 512.334C496.016 511.486 494.742 510.362 493.725 509.026C492.707 507.691 491.965 506.171 491.542 504.553C491.119 502.934 491.022 501.249 491.258 499.594C491.494 497.939 492.057 496.345 492.916 494.905C493.775 493.465 494.912 492.206 496.263 491.201L673.877 359.108C676.106 357.443 678.823 356.542 681.616 356.543ZM1123.15 165.185C1125.54 165.186 1127.93 165.35 1130.3 165.675C1143.38 167.489 1155.22 174.247 1163.36 184.525C1171.49 194.803 1175.26 207.798 1173.89 220.773C1172.51 233.747 1166.1 245.689 1155.99 254.08C1145.88 262.472 1132.87 266.659 1119.7 265.758C1106.53 264.858 1094.23 258.942 1085.39 249.255C1076.55 239.568 1071.85 226.868 1072.3 213.83C1072.75 200.791 1078.3 188.433 1087.78 179.359C1097.27 170.286 1109.94 165.204 1123.15 165.185ZM1123.34 246.557C1131.52 246.549 1139.37 243.404 1145.25 237.784C1151.13 232.165 1154.57 224.51 1154.85 216.433C1155.12 208.356 1152.22 200.487 1146.74 194.485C1141.27 188.483 1133.64 184.817 1125.49 184.258C1117.33 183.7 1109.27 186.294 1103.01 191.492C1096.74 196.691 1092.77 204.089 1091.92 212.127C1091.07 220.165 1093.41 228.215 1098.45 234.582C1103.48 240.948 1110.83 245.133 1118.93 246.255C1120.39 246.456 1121.86 246.557 1123.34 246.557ZM188.622 296.316C189.703 296.319 190.784 296.391 191.857 296.531C197.791 297.325 203.181 300.364 206.892 305.008C210.604 309.652 212.346 315.539 211.752 321.427C211.158 327.315 208.274 332.746 203.708 336.574C199.142 340.403 193.25 342.33 187.274 341.951C181.299 341.571 175.705 338.914 171.673 334.539C167.641 330.165 165.484 324.414 165.658 318.499C165.832 312.584 168.322 306.966 172.604 302.83C176.887 298.694 182.627 296.362 188.615 296.325L188.622 296.316Z" fill="#FA9531"/>
</g>
<g filter="url(#filter2_f_1002_4110)">
<path fill-rule="evenodd" clip-rule="evenodd" d="M1627.89 38.4136C1627.5 38.4136 1627.1 38.4323 1626.7 38.4625C1624.16 38.6914 1621.74 39.6545 1619.75 41.2302C1617.77 42.8059 1616.3 44.9235 1615.54 47.3155C1614.78 49.7076 1614.76 52.2667 1615.48 54.6699C1616.2 57.0732 1617.64 59.213 1619.6 60.8185L1790.84 200.825C1792.8 202.433 1795.21 203.433 1797.75 203.7C1800.29 203.966 1802.86 203.488 1805.13 202.324C1807.39 201.16 1809.25 199.363 1810.48 197.161C1811.7 194.958 1812.23 192.45 1812 189.953C1811.85 188.292 1811.37 186.677 1810.58 185.202C1809.78 183.727 1808.7 182.422 1807.39 181.362L1636.15 41.3439C1633.84 39.4433 1630.91 38.4057 1627.88 38.4136L1627.89 38.4136ZM-369.853 228.311C-371.42 228.312 -372.986 228.419 -374.538 228.63C-381.16 229.528 -387.361 232.332 -392.357 236.687C-397.353 241.042 -400.919 246.751 -402.602 253.094C-404.286 259.436 -404.012 266.125 -401.816 272.315C-399.62 278.505 -395.599 283.917 -390.263 287.865C-386.727 290.501 -382.692 292.422 -378.392 293.516C-374.092 294.61 -369.614 294.856 -365.216 294.238C-356.741 293.085 -349.027 288.822 -343.633 282.31C-338.24 275.798 -335.568 267.522 -336.156 259.154C-336.745 250.785 -340.55 242.948 -346.805 237.223C-353.059 231.498 -361.296 228.313 -369.853 228.311ZM-369.901 275.33C-373.578 275.326 -377.109 273.922 -379.751 271.415C-382.393 268.908 -383.939 265.494 -384.063 261.891C-384.186 258.289 -382.879 254.78 -380.415 252.104C-377.951 249.428 -374.524 247.795 -370.855 247.548C-367.187 247.301 -363.564 248.46 -360.751 250.78C-357.937 253.101 -356.152 256.401 -355.772 259.987C-355.393 263.572 -356.448 267.161 -358.715 269.999C-360.982 272.837 -364.285 274.7 -367.927 275.198C-368.581 275.287 -369.241 275.329 -369.901 275.33ZM1508.99 -238.092C1500.09 -238.086 1491.55 -234.639 1485.23 -228.498C1478.91 -222.358 1475.31 -214.02 1475.22 -205.296C1475.13 -196.571 1478.56 -188.165 1484.76 -181.902C1490.95 -175.64 1499.42 -172.026 1508.32 -171.847C1517.26 -171.79 1525.89 -175.089 1532.43 -181.069C1537.26 -185.606 1540.6 -191.445 1542.04 -197.845C1543.48 -204.246 1542.95 -210.921 1540.52 -217.027C1538.08 -223.132 1533.86 -228.392 1528.37 -232.142C1522.89 -235.892 1516.39 -237.962 1509.71 -238.092C1509.47 -238.092 1509.23 -238.092 1508.99 -238.092ZM1508.71 -191.079C1504.95 -191.158 1501.38 -192.695 1498.78 -195.353C1496.17 -198.011 1494.75 -201.573 1494.83 -205.257C1494.96 -208.923 1496.55 -212.393 1499.25 -214.931C1501.95 -217.469 1505.56 -218.876 1509.3 -218.853C1512.1 -218.797 1514.82 -217.928 1517.12 -216.356C1519.42 -214.783 1521.19 -212.578 1522.21 -210.02C1523.23 -207.461 1523.45 -204.663 1522.85 -201.98C1522.25 -199.298 1520.85 -196.85 1518.83 -194.946C1516.05 -192.493 1512.45 -191.118 1508.71 -191.079ZM1365.58 929.383C1361.82 929.893 1358 929.3 1354.59 927.68C1351.18 926.06 1348.34 923.485 1346.42 920.281C1344.51 917.077 1343.6 913.388 1343.82 909.68C1344.04 905.972 1345.38 902.412 1347.67 899.45C1349.95 896.487 1353.08 894.256 1356.66 893.037C1360.24 891.818 1364.11 891.667 1367.77 892.602C1371.44 893.538 1374.74 895.518 1377.26 898.293C1379.78 901.068 1381.4 904.512 1381.93 908.191C1382.62 913.126 1381.29 918.131 1378.23 922.105C1375.16 926.079 1370.61 928.697 1365.58 929.383ZM1362.94 888.143C1361.87 888.147 1360.81 888.22 1359.75 888.36C1353.68 889.196 1348.2 892.355 1344.51 897.144C1340.82 901.934 1339.22 907.963 1340.05 913.909C1340.46 916.853 1341.47 919.688 1343 922.249C1344.54 924.81 1346.58 927.047 1349.01 928.829C1353.9 932.438 1360.05 934.003 1366.12 933.183C1371.89 932.377 1377.14 929.457 1380.81 925.011C1384.48 920.565 1386.3 914.922 1385.9 909.217C1385.49 903.512 1382.9 898.167 1378.65 894.258C1374.39 890.348 1368.78 888.163 1362.94 888.143ZM1362.89 925.723C1358.89 925.738 1355.04 924.228 1352.15 921.513C1349.26 918.798 1347.56 915.089 1347.41 911.169C1347.25 907.249 1348.66 903.423 1351.33 900.498C1353.99 897.574 1357.71 895.779 1361.71 895.492C1365.7 895.205 1369.65 896.448 1372.72 898.96C1375.8 901.472 1377.75 905.056 1378.19 908.956C1378.62 912.857 1377.49 916.769 1375.03 919.868C1372.58 922.967 1368.99 925.011 1365.03 925.57C1364.32 925.674 1363.61 925.725 1362.89 925.723ZM1649.69 -314.931C1645.94 -314.421 1642.11 -315.014 1638.7 -316.634C1635.29 -318.254 1632.45 -320.829 1630.53 -324.033C1628.61 -327.237 1627.71 -330.927 1627.93 -334.635C1628.15 -338.344 1629.49 -341.905 1631.78 -344.868C1634.06 -347.831 1637.19 -350.063 1640.77 -351.282C1644.35 -352.501 1648.22 -352.653 1651.89 -351.717C1655.55 -350.781 1658.86 -348.801 1661.37 -346.026C1663.89 -343.251 1665.52 -339.806 1666.04 -336.126C1666.74 -331.191 1665.41 -326.185 1662.34 -322.21C1659.28 -318.235 1654.72 -315.617 1649.69 -314.931ZM1647.09 -356.167C1646.01 -356.165 1644.93 -356.093 1643.87 -355.95C1640.86 -355.541 1637.97 -354.557 1635.36 -353.052C1632.74 -351.547 1630.46 -349.553 1628.63 -347.182C1626.8 -344.811 1625.47 -342.11 1624.7 -339.234C1623.94 -336.358 1623.76 -333.362 1624.18 -330.419C1624.6 -327.475 1625.6 -324.64 1627.13 -322.077C1628.67 -319.514 1630.7 -317.272 1633.12 -315.48C1635.54 -313.688 1638.3 -312.38 1641.23 -311.632C1644.16 -310.883 1647.22 -310.708 1650.22 -311.118C1656.02 -311.901 1661.29 -314.809 1664.98 -319.256C1668.67 -323.703 1670.5 -329.357 1670.1 -335.076C1669.7 -340.795 1667.11 -346.153 1662.84 -350.068C1658.56 -353.983 1652.94 -356.162 1647.09 -356.167ZM1647.04 -318.589C1643.36 -318.597 1639.81 -319.906 1637.04 -322.274C1634.27 -324.642 1632.46 -327.91 1631.94 -331.48C1631.53 -334.409 1632 -337.393 1633.32 -340.054C1634.63 -342.716 1636.72 -344.936 1639.32 -346.434C1641.92 -347.932 1644.92 -348.639 1647.93 -348.468C1650.94 -348.297 1653.83 -347.254 1656.24 -345.471C1658.64 -343.689 1660.46 -341.247 1661.45 -338.454C1662.44 -335.661 1662.56 -332.643 1661.8 -329.781C1661.04 -326.92 1659.43 -324.344 1657.18 -322.378C1654.93 -320.413 1652.13 -319.147 1649.14 -318.741C1648.45 -318.638 1647.74 -318.588 1647.04 -318.589ZM230.259 793.185C227.732 793.132 225.278 792.345 223.207 790.925C221.135 789.505 219.54 787.515 218.623 785.206C217.705 782.898 217.506 780.374 218.052 777.955C218.597 775.536 219.861 773.329 221.685 771.614C223.51 769.899 225.812 768.753 228.3 768.32C230.789 767.887 233.352 768.188 235.667 769.183C237.981 770.178 239.943 771.824 241.304 773.912C242.665 776 243.363 778.436 243.312 780.913C243.277 782.559 242.911 784.182 242.236 785.69C241.562 787.198 240.59 788.56 239.378 789.7C238.166 790.839 236.737 791.733 235.172 792.331C233.607 792.929 231.938 793.219 230.259 793.185ZM230.52 764.278C226.128 764.291 221.917 765.999 218.799 769.032C215.681 772.066 213.908 776.181 213.862 780.487C213.816 784.793 215.502 788.943 218.555 792.039C221.608 795.136 225.782 796.929 230.173 797.031C232.383 797.102 234.585 796.742 236.651 795.972C238.718 795.202 240.608 794.038 242.212 792.547C243.817 791.056 245.103 789.267 245.997 787.285C246.892 785.303 247.376 783.167 247.421 781C247.467 778.833 247.074 776.679 246.264 774.663C245.454 772.646 244.245 770.807 242.705 769.252C241.165 767.697 239.325 766.457 237.293 765.604C235.261 764.751 233.076 764.302 230.865 764.283C230.751 764.276 230.634 764.278 230.52 764.278ZM230.337 789.343C227.989 789.293 225.756 788.333 224.128 786.673C222.5 785.012 221.61 782.787 221.653 780.484C221.742 778.194 222.736 776.026 224.424 774.44C226.112 772.853 228.363 771.971 230.701 771.98C231.865 772.003 233.012 772.25 234.079 772.707C235.145 773.164 236.109 773.823 236.915 774.646C237.722 775.468 238.355 776.439 238.779 777.501C239.203 778.564 239.409 779.698 239.385 780.839C239.308 783.134 238.318 785.309 236.628 786.898C234.937 788.488 232.68 789.362 230.337 789.343ZM-62.4306 195.653C-63.2164 195.656 -64.0013 195.709 -64.7801 195.811C-69.0592 196.4 -72.9382 198.594 -75.6 201.93C-78.2618 205.267 -79.4986 209.486 -79.0498 213.699C-78.601 217.912 -76.5017 221.79 -73.1941 224.516C-69.8864 227.241 -65.6288 228.602 -61.318 228.311C-57.0072 228.02 -52.9798 226.1 -50.0843 222.956C-47.1888 219.812 -45.6512 215.689 -45.7955 211.455C-45.9397 207.222 -47.7545 203.209 -50.8575 200.261C-53.9606 197.313 -58.1096 195.661 -62.4306 195.653ZM1554.99 569.449C1554.65 569.449 1554.3 569.465 1553.96 569.498L1503.89 574.643C1502.58 574.734 1501.3 575.083 1500.12 575.669C1498.95 576.256 1497.91 577.068 1497.06 578.057C1496.22 579.045 1495.58 580.191 1495.2 581.425C1494.82 582.659 1494.69 583.957 1494.83 585.24C1494.96 586.523 1495.36 587.767 1496 588.895C1496.64 590.024 1497.5 591.015 1498.54 591.81C1499.58 592.605 1500.77 593.187 1502.04 593.522C1503.31 593.856 1504.64 593.937 1505.94 593.758L1546.25 589.618L1550.48 629.047C1550.61 630.305 1550.99 631.526 1551.6 632.639C1552.21 633.751 1553.05 634.734 1554.05 635.529C1555.05 636.324 1556.21 636.917 1557.44 637.273C1558.68 637.629 1559.98 637.741 1561.26 637.603L1601.57 633.462L1605.8 672.896C1606.07 675.432 1607.36 677.757 1609.39 679.361C1611.41 680.965 1614 681.718 1616.58 681.454L1656.89 677.321L1661.12 716.755C1661.42 719.278 1662.72 721.585 1664.73 723.183C1666.74 724.782 1669.31 725.544 1671.9 725.308C1674.48 725.041 1676.86 723.778 1678.49 721.796C1680.13 719.814 1680.9 717.275 1680.63 714.738L1675.37 665.747C1675.24 664.491 1674.86 663.272 1674.24 662.163C1673.63 661.053 1672.79 660.074 1671.79 659.282C1669.77 657.682 1667.18 656.928 1664.59 657.184L1624.29 661.334L1620.06 621.902C1619.78 619.371 1618.49 617.051 1616.47 615.448C1614.45 613.846 1611.86 613.09 1609.28 613.345L1568.97 617.485L1564.74 578.058C1564.49 575.695 1563.35 573.508 1561.55 571.919C1559.75 570.329 1557.41 569.449 1554.99 569.449ZM-147.392 846.374C-149.993 846.372 -152.489 847.383 -154.33 849.185C-156.171 850.986 -157.206 853.431 -157.209 855.981L-157.278 923.514C-157.281 924.776 -157.031 926.026 -156.541 927.193C-156.051 928.36 -155.332 929.421 -154.424 930.316C-153.513 931.21 -152.431 931.919 -151.241 932.403C-150.05 932.887 -148.774 933.137 -147.485 933.137L-78.5562 933.183C-75.9548 933.185 -73.4592 932.174 -71.618 930.373C-69.7767 928.571 -68.7406 926.127 -68.7375 923.577L-68.6614 856.043C-68.6614 853.492 -69.695 851.045 -71.5349 849.241C-73.3748 847.436 -75.8703 846.422 -78.473 846.42L-147.402 846.374L-147.392 846.374ZM-137.642 913.914L-137.588 865.61L-88.2894 865.648L-88.3488 913.952L-137.642 913.914ZM389.366 156.515C390.411 157.655 391.373 158.865 392.245 160.138C397.238 167.438 399.071 176.382 397.342 185.006C395.613 193.63 390.464 201.229 383.024 206.135C375.585 211.04 366.464 212.85 357.664 211.169C348.864 209.487 341.104 204.451 336.089 197.166C331.323 190.195 329.428 181.713 330.787 173.427C332.146 165.142 336.658 157.669 343.413 152.515C350.169 147.361 358.666 144.907 367.193 145.65C375.719 146.392 383.643 150.274 389.366 156.515ZM353.61 187.951C356.066 190.622 359.484 192.253 363.144 192.503C366.803 192.752 370.419 191.598 373.228 189.286C376.037 186.973 377.821 183.682 378.203 180.106C378.586 176.529 377.537 172.947 375.279 170.113C373.02 167.28 369.727 165.417 366.094 164.916C362.462 164.416 358.773 165.317 355.805 167.43C352.837 169.544 350.822 172.704 350.184 176.245C349.546 179.787 350.335 183.432 352.385 186.414C352.757 186.954 353.166 187.467 353.61 187.951ZM758.003 146.817C758.227 147.05 758.448 147.33 758.655 147.603L788.17 187.536C789.697 189.607 790.321 192.188 789.906 194.71C789.492 197.233 788.072 199.49 785.959 200.986C784.913 201.727 783.728 202.259 782.472 202.551C781.216 202.843 779.914 202.89 778.64 202.688C776.067 202.282 773.764 200.89 772.238 198.818L748.474 166.67L715.651 189.925C714.609 190.672 713.426 191.21 712.171 191.506C710.916 191.803 709.613 191.853 708.338 191.654C707.063 191.454 705.841 191.009 704.742 190.345C703.644 189.68 702.69 188.808 701.937 187.78L678.178 155.641L645.348 178.899C643.238 180.393 640.61 181.007 638.039 180.605C635.469 180.204 633.165 178.82 631.634 176.756L607.88 144.61L575.049 167.87C572.931 169.339 570.31 169.937 567.748 169.537C565.185 169.136 562.885 167.768 561.338 165.725C560.583 164.702 560.042 163.542 559.744 162.314C559.447 161.085 559.399 159.81 559.605 158.563C559.81 157.317 560.264 156.121 560.941 155.047C561.618 153.972 562.505 153.039 563.55 152.3L604.342 123.394C606.452 121.902 609.079 121.289 611.649 121.691C614.219 122.093 616.521 123.476 618.053 125.539L641.807 157.685L674.638 134.427C676.751 132.942 679.376 132.333 681.944 132.734C684.512 133.136 686.814 134.514 688.352 136.57L712.115 168.719L744.931 145.465C746.895 144.067 749.318 143.432 751.732 143.682C754.146 143.931 756.38 145.048 758.003 146.817Z" fill="#BEC2C9"/>
</g>
<path fill-rule="evenodd" clip-rule="evenodd" d="M271.132 -151.693C270.065 -151.692 268.998 -151.62 267.94 -151.478C261.893 -150.645 256.429 -147.474 252.75 -142.664C249.071 -137.854 247.478 -131.798 248.322 -125.829C249.167 -119.86 252.378 -114.466 257.251 -110.834C262.124 -107.202 268.258 -105.63 274.305 -106.463C280.087 -107.246 285.353 -110.168 289.035 -114.638C292.717 -119.108 294.542 -124.791 294.14 -130.539C293.738 -136.287 291.138 -141.669 286.868 -145.596C282.598 -149.524 276.969 -151.703 271.132 -151.693ZM1808.4 288.529C1807.62 288.528 1806.85 288.582 1806.09 288.69C1803.38 289.069 1800.81 290.101 1798.6 291.696C1796.39 293.29 1794.61 295.398 1793.42 297.832C1792.23 300.266 1791.67 302.952 1791.78 305.652C1791.89 308.351 1792.68 310.982 1794.07 313.311C1795.46 315.639 1797.41 317.594 1799.74 319.003C1802.08 320.411 1804.73 321.229 1807.46 321.385C1810.2 321.541 1812.93 321.03 1815.41 319.896C1817.9 318.763 1820.06 317.042 1821.71 314.887C1823.03 313.169 1824 311.208 1824.55 309.119C1825.11 307.029 1825.23 304.853 1824.92 302.714C1824.36 298.782 1822.38 295.183 1819.34 292.577C1816.3 289.971 1812.42 288.534 1808.4 288.529ZM8.60906 -390.108C11.1041 -390.457 13.4383 -391.528 15.317 -393.186C17.1957 -394.844 18.5345 -397.014 19.1644 -399.423C19.7942 -401.831 19.6868 -404.37 18.8558 -406.718C18.0247 -409.067 16.5073 -411.119 14.4951 -412.617C12.483 -414.114 10.0664 -414.989 7.55058 -415.132C5.0348 -415.274 2.53272 -414.678 0.360341 -413.417C-1.81204 -412.156 -3.55724 -410.288 -4.6548 -408.049C-5.75236 -405.81 -6.15307 -403.3 -5.80628 -400.836C-5.57519 -399.197 -5.01872 -397.618 -4.16877 -396.191C-3.31883 -394.764 -2.19213 -393.517 -0.853109 -392.52C0.485917 -391.524 2.01096 -390.798 3.63462 -390.384C5.25828 -389.97 6.94867 -389.876 8.60906 -390.108ZM6.88036 -419.018C6.09655 -419.015 5.3138 -418.961 4.53748 -418.854C2.3693 -418.559 0.281345 -417.844 -1.60718 -416.752C-3.49571 -415.66 -5.14782 -414.211 -6.46907 -412.489C-7.79032 -410.766 -8.75486 -408.804 -9.3076 -406.713C-9.86035 -404.623 -9.99047 -402.445 -9.69053 -400.305C-9.04436 -395.995 -6.70776 -392.109 -3.18486 -389.485C0.338034 -386.861 4.7648 -385.709 9.14026 -386.278C13.3202 -386.848 17.1254 -388.962 19.7878 -392.194C22.4502 -395.425 23.7713 -399.533 23.4845 -403.689C23.1976 -407.845 21.3242 -411.738 18.2423 -414.583C15.1605 -417.428 11.0999 -419.013 6.88036 -419.018ZM6.84241 -393.844C4.70771 -393.848 2.64581 -394.61 1.03443 -395.993C-0.576944 -397.375 -1.62991 -399.284 -1.93153 -401.37C-2.17354 -403.123 -1.86852 -404.907 -1.05712 -406.484C-0.245722 -408.062 1.03352 -409.358 2.61001 -410.199C4.18649 -411.04 5.98534 -411.387 7.76672 -411.194C9.54809 -411 11.2273 -410.275 12.5806 -409.115C13.9339 -407.955 14.8969 -406.416 15.3411 -404.702C15.7854 -402.988 15.6899 -401.181 15.0673 -399.522C14.4447 -397.863 13.3246 -396.431 11.8564 -395.417C10.3882 -394.402 8.63453 -393.854 6.84241 -393.844ZM297.257 441.677C295.565 441.672 293.889 441.998 292.325 442.635C290.761 443.272 289.34 444.208 288.144 445.39L261.042 472.09L233.95 445.404C231.529 443.027 228.253 441.693 224.838 441.693C221.423 441.693 218.147 443.027 215.726 445.404C214.529 446.581 213.58 447.979 212.932 449.519C212.284 451.058 211.951 452.709 211.951 454.377C211.951 456.044 212.284 457.695 212.932 459.235C213.58 460.774 214.529 462.172 215.726 463.349L242.821 490.035L215.717 516.721C214.52 517.897 213.571 519.295 212.923 520.835C212.275 522.374 211.941 524.025 211.941 525.692C211.941 527.359 212.275 529.01 212.923 530.549C213.571 532.089 214.52 533.487 215.717 534.663C218.172 536.967 221.43 538.252 224.818 538.252C228.205 538.252 231.464 536.967 233.919 534.663L233.931 534.663L261.023 507.966L288.125 534.652C290.582 536.958 293.842 538.244 297.232 538.244C300.623 538.244 303.883 536.958 306.34 534.652C308.746 532.27 310.097 529.043 310.097 525.679C310.097 522.315 308.746 519.089 306.34 516.707L279.226 490.021L306.34 463.335C308.134 461.56 309.355 459.3 309.85 456.841C310.345 454.381 310.09 451.832 309.118 449.515C308.147 447.198 306.502 445.217 304.391 443.822C302.28 442.427 299.798 441.681 297.257 441.677ZM870.318 297.789C868.207 297.79 866.132 298.33 864.295 299.357C862.457 300.385 860.921 301.863 859.834 303.65C858.747 305.437 858.148 307.472 858.094 309.555C858.039 311.639 858.532 313.7 859.524 315.54L883.46 359.696L858.914 372.402C857.485 373.14 856.218 374.15 855.186 375.374C854.154 376.599 853.379 378.012 852.904 379.534C852.429 381.056 852.264 382.656 852.419 384.241C852.574 385.826 853.046 387.365 853.807 388.769L883.55 443.623C885.077 446.452 887.68 448.566 890.786 449.5C893.892 450.434 897.247 450.113 900.113 448.605C902.979 447.098 905.12 444.528 906.067 441.462C907.013 438.396 906.687 435.084 905.16 432.255L881.224 388.109L905.772 375.401C907.201 374.663 908.468 373.653 909.5 372.429C910.531 371.205 911.307 369.792 911.782 368.271C912.257 366.749 912.421 365.15 912.267 363.565C912.112 361.981 911.641 360.442 910.88 359.038L881.136 304.171C880.088 302.239 878.528 300.625 876.622 299.501C874.717 298.377 872.538 297.786 870.318 297.789Z" fill="#BEC2C9"/>
<g filter="url(#filter3_f_1002_4110)">
<path fill-rule="evenodd" clip-rule="evenodd" d="M443.986 -435.2C441.435 -435.205 438.941 -434.466 436.819 -433.079C434.697 -431.692 433.042 -429.717 432.065 -427.407C431.089 -425.096 430.833 -422.553 431.331 -420.1C431.83 -417.647 433.059 -415.394 434.865 -413.627L462.002 -387.048L434.862 -360.469C432.45 -358.1 431.094 -354.888 431.094 -351.539C431.094 -348.19 432.45 -344.978 434.862 -342.608C437.32 -340.307 440.588 -339.024 443.986 -339.024C447.383 -339.024 450.651 -340.307 453.109 -342.608L480.246 -369.187L507.393 -342.608C509.851 -340.307 513.118 -339.024 516.516 -339.024C519.914 -339.024 523.181 -340.307 525.64 -342.608C528.049 -344.978 529.402 -348.188 529.402 -351.534C529.402 -354.881 528.049 -358.091 525.64 -360.46L498.49 -387.039L525.635 -413.617C526.832 -414.79 527.782 -416.183 528.43 -417.715C529.078 -419.248 529.412 -420.892 529.412 -422.551C529.412 -424.21 529.078 -425.853 528.43 -427.386C527.782 -428.919 526.832 -430.311 525.635 -431.484C523.211 -433.85 519.931 -435.178 516.511 -435.178C513.092 -435.178 509.812 -433.85 507.388 -431.484L480.246 -404.889L453.099 -431.484C451.904 -432.66 450.484 -433.594 448.92 -434.232C447.356 -434.87 445.679 -435.199 443.986 -435.2ZM693.087 -112.064L618.683 -42.2965C617.834 -41.4742 616.828 -40.8256 615.721 -40.3883C614.615 -39.9511 613.43 -39.7339 612.238 -39.7495C611.045 -39.7652 609.867 -40.0131 608.773 -40.4792C607.678 -40.9452 606.69 -41.6199 605.864 -42.4641C605.038 -43.3084 604.391 -44.3054 603.962 -45.3969C603.532 -46.4885 603.328 -47.6528 603.361 -48.8224C603.395 -49.9919 603.665 -51.1434 604.156 -52.2097C604.647 -53.276 605.349 -54.2359 606.222 -55.0335L680.626 -124.8C681.475 -125.623 682.481 -126.271 683.588 -126.709C684.694 -127.146 685.878 -127.363 687.071 -127.347C688.264 -127.332 689.442 -127.084 690.536 -126.618C691.63 -126.152 692.619 -125.477 693.445 -124.633C694.271 -123.788 694.917 -122.792 695.347 -121.7C695.777 -120.608 695.981 -119.444 695.948 -118.275C695.914 -117.105 695.644 -115.954 695.153 -114.887C694.662 -113.821 693.96 -112.861 693.087 -112.064ZM686.856 -131.093C683.524 -131.099 680.319 -129.841 677.911 -127.582L603.507 -57.8126C602.28 -56.6631 601.297 -55.2876 600.612 -53.7647C599.928 -52.2419 599.556 -50.6017 599.519 -48.938C599.482 -47.2742 599.78 -45.6195 600.395 -44.0686C601.01 -42.5178 601.931 -41.1011 603.106 -39.8998C605.486 -37.4824 608.744 -36.0858 612.169 -36.0142C615.595 -35.9426 618.91 -37.2018 621.393 -39.5175L695.797 -109.284C697.664 -111.031 698.954 -113.287 699.5 -115.761C700.047 -118.235 699.824 -120.812 698.862 -123.16C697.899 -125.509 696.241 -127.52 694.1 -128.934C691.96 -130.348 689.437 -131.1 686.856 -131.093ZM612.453 -43.6955C611.44 -43.6928 610.449 -43.9878 609.609 -44.5426C608.769 -45.0974 608.117 -45.8867 607.738 -46.8081C607.36 -47.7295 607.271 -48.7409 607.484 -49.7121C607.698 -50.6833 608.203 -51.5695 608.934 -52.2566L683.338 -122.021C684.313 -122.933 685.616 -123.429 686.963 -123.402C688.31 -123.374 689.591 -122.825 690.527 -121.874C690.988 -121.403 691.35 -120.848 691.593 -120.239C691.835 -119.63 691.953 -118.981 691.938 -118.327C691.924 -117.674 691.779 -117.03 691.511 -116.432C691.242 -115.834 690.856 -115.294 690.375 -114.843L615.971 -45.0757C615.023 -44.189 613.763 -43.6947 612.453 -43.6955ZM1752.51 -211.624C1745.49 -211.64 1738.55 -210.239 1732.11 -207.508C1725.67 -204.776 1719.87 -200.773 1715.07 -195.748C1710.28 -190.723 1706.59 -184.783 1704.24 -178.299C1701.89 -171.815 1700.93 -164.926 1701.41 -158.061C1701.9 -151.195 1703.82 -144.501 1707.05 -138.396C1710.29 -132.29 1714.77 -126.903 1720.23 -122.572C1725.68 -118.24 1731.98 -115.056 1738.74 -113.219C1745.5 -111.381 1752.58 -110.929 1759.53 -111.891C1772.35 -113.624 1784.03 -120.069 1792.2 -129.923C1800.36 -139.777 1804.41 -152.305 1803.52 -164.974C1802.63 -177.642 1796.86 -189.506 1787.39 -198.166C1777.92 -206.826 1765.45 -211.636 1752.51 -211.624ZM1752.39 -130.631C1744.18 -130.635 1736.29 -133.765 1730.39 -139.362C1724.48 -144.96 1721.02 -152.587 1720.74 -160.636C1720.45 -168.686 1723.36 -176.53 1728.86 -182.514C1734.36 -188.499 1742.01 -192.157 1750.2 -192.718C1758.39 -193.278 1766.49 -190.698 1772.78 -185.52C1779.07 -180.342 1783.06 -172.971 1783.92 -164.961C1784.78 -156.951 1782.43 -148.926 1777.38 -142.579C1772.32 -136.231 1764.95 -132.056 1756.82 -130.934C1755.35 -130.735 1753.87 -130.634 1752.39 -130.631ZM931.703 823.657C930.41 823.657 929.13 823.907 927.936 824.393C926.742 824.88 925.658 825.592 924.745 826.49L876.059 874.285C875.149 875.179 874.428 876.24 873.936 877.407C873.445 878.575 873.193 879.826 873.195 881.089C873.196 882.352 873.452 883.602 873.947 884.768C874.442 885.934 875.166 886.993 876.078 887.884L924.869 935.561C926.714 937.36 929.211 938.369 931.813 938.366C934.415 938.364 936.91 937.35 938.751 935.547L987.434 887.752C988.345 886.858 989.066 885.798 989.558 884.63C990.05 883.463 990.302 882.212 990.301 880.949C990.299 879.686 990.043 878.436 989.548 877.27C989.053 876.104 988.328 875.045 987.415 874.154L938.632 826.464C937.722 825.572 936.642 824.865 935.453 824.384C934.264 823.902 932.989 823.655 931.703 823.657ZM896.897 881.046L931.722 846.872L966.613 880.972L931.789 915.139L896.897 881.046ZM1078.72 -385.908C1074.97 -385.401 1071.15 -385.995 1067.74 -387.616C1064.33 -389.237 1061.49 -391.812 1059.58 -395.016C1057.67 -398.22 1056.76 -401.909 1056.99 -405.615C1057.21 -409.322 1058.55 -412.881 1060.83 -415.843C1063.11 -418.804 1066.24 -421.035 1069.82 -422.253C1073.4 -423.471 1077.26 -423.622 1080.92 -422.686C1084.59 -421.751 1087.89 -419.771 1090.4 -416.997C1092.92 -414.223 1094.54 -410.779 1095.07 -407.101C1095.76 -402.166 1094.43 -397.162 1091.36 -393.188C1088.3 -389.215 1083.75 -386.597 1078.72 -385.908ZM1076.14 -427.133C1075.05 -427.131 1073.96 -427.059 1072.89 -426.919C1066.93 -426.111 1061.53 -423.069 1057.82 -418.432C1054.11 -413.795 1052.38 -407.927 1053 -402.064C1053.61 -396.201 1056.52 -390.8 1061.12 -387.001C1065.71 -383.202 1071.63 -381.301 1077.63 -381.698C1083.62 -382.095 1089.23 -384.76 1093.26 -389.131C1097.29 -393.501 1099.44 -399.237 1099.24 -405.128C1099.05 -411.019 1096.53 -416.605 1092.21 -420.71C1087.9 -424.815 1082.13 -427.118 1076.12 -427.133L1076.14 -427.133ZM1076.06 -389.571C1072.38 -389.579 1068.84 -390.887 1066.06 -393.253C1063.29 -395.62 1061.48 -398.887 1060.97 -402.455C1060.69 -404.398 1060.81 -406.375 1061.32 -408.273C1061.82 -410.171 1062.7 -411.953 1063.91 -413.517C1065.12 -415.081 1066.63 -416.396 1068.35 -417.387C1070.08 -418.378 1071.99 -419.026 1073.97 -419.293C1075.95 -419.585 1077.98 -419.482 1079.92 -418.988C1081.86 -418.495 1083.68 -417.623 1085.27 -416.423C1087.67 -414.644 1089.49 -412.205 1090.48 -409.415C1091.47 -406.625 1091.59 -403.609 1090.83 -400.749C1090.08 -397.89 1088.47 -395.316 1086.22 -393.353C1083.96 -391.39 1081.17 -390.128 1078.19 -389.725C1077.48 -389.62 1076.76 -389.568 1076.05 -389.571L1076.06 -389.571ZM732.873 -28.2379C728.463 -28.2567 724.224 -26.563 721.083 -23.5268C717.941 -20.4906 716.153 -16.3586 716.107 -12.0332C716.062 -7.70774 717.763 -3.54044 720.84 -0.441261C723.916 2.65792 728.119 4.43697 732.528 4.50753C736.95 4.56576 741.222 2.93648 744.442 -0.0364172C746.831 -2.27897 748.487 -5.16642 749.201 -8.33293C749.915 -11.4994 749.654 -14.8024 748.452 -17.8236C747.251 -20.8448 745.161 -23.448 742.45 -25.3036C739.738 -27.1593 736.526 -28.1838 733.22 -28.2472L732.873 -28.2472L732.873 -28.2379ZM870.175 663C867.65 662.945 865.199 662.156 863.13 660.735C861.062 659.313 859.469 657.322 858.554 655.013C857.639 652.704 857.442 650.181 857.989 647.763C858.536 645.344 859.801 643.139 861.625 641.425C863.449 639.712 865.75 638.567 868.237 638.136C870.724 637.705 873.286 638.006 875.599 639.003C877.911 639.999 879.87 641.645 881.229 643.733C882.588 645.821 883.285 648.258 883.233 650.734C883.197 652.381 882.831 654.004 882.155 655.512C881.48 657.019 880.508 658.381 879.295 659.52C878.083 660.66 876.653 661.553 875.088 662.15C873.524 662.747 871.854 663.036 870.175 663ZM870.437 634.09C866.047 634.103 861.839 635.811 858.724 638.844C855.609 641.877 853.837 645.992 853.791 650.297C853.746 654.602 855.431 658.752 858.482 661.847C861.533 664.943 865.704 666.736 870.092 666.838C872.289 666.901 874.475 666.531 876.523 665.748C878.57 664.965 880.436 663.787 882.009 662.282C884.398 660.041 886.054 657.153 886.767 653.987C887.481 650.821 887.219 647.518 886.015 644.498C884.811 641.477 882.719 638.876 880.005 637.024C877.292 635.172 874.078 634.152 870.772 634.095C870.665 634.104 870.551 634.104 870.437 634.104L870.437 634.09ZM870.263 659.151C868.806 659.123 867.378 658.743 866.107 658.044C864.835 657.345 863.759 656.349 862.974 655.145C862.188 653.94 861.719 652.564 861.606 651.138C861.493 649.713 861.74 648.282 862.326 646.973C862.912 645.664 863.819 644.517 864.965 643.634C866.111 642.751 867.462 642.159 868.898 641.911C870.333 641.662 871.809 641.765 873.194 642.21C874.58 642.656 875.831 643.429 876.838 644.463C878.464 646.125 879.35 648.353 879.301 650.656C879.253 652.959 878.274 655.149 876.58 656.745C874.842 658.274 872.598 659.133 870.263 659.16L870.263 659.151ZM1692.09 952.767C1689.56 952.712 1687.11 951.924 1685.04 950.503C1682.97 949.082 1681.38 947.091 1680.46 944.782C1679.55 942.474 1679.35 939.951 1679.9 937.532C1680.44 935.114 1681.71 932.908 1683.53 931.194C1685.35 929.48 1687.65 928.335 1690.14 927.903C1692.63 927.471 1695.19 927.772 1697.5 928.767C1699.81 929.763 1701.78 931.408 1703.13 933.496C1704.49 935.583 1705.19 938.019 1705.14 940.496C1705.1 942.143 1704.74 943.766 1704.06 945.274C1703.39 946.782 1702.42 948.144 1701.2 949.284C1699.99 950.423 1698.56 951.317 1697 951.915C1695.43 952.512 1693.76 952.802 1692.09 952.767ZM1692.34 923.856C1687.93 923.838 1683.69 925.531 1680.55 928.568C1677.41 931.605 1675.62 935.737 1675.57 940.063C1675.53 944.389 1677.23 948.557 1680.3 951.657C1683.38 954.757 1687.58 956.536 1691.99 956.606C1694.19 956.686 1696.39 956.322 1698.43 955.538C1700.48 954.754 1702.35 953.566 1703.91 952.048C1706.3 949.807 1707.95 946.92 1708.67 943.754C1709.38 940.588 1709.12 937.286 1707.91 934.266C1706.71 931.247 1704.62 928.646 1701.91 926.793C1699.19 924.941 1695.98 923.92 1692.68 923.861L1692.34 923.856ZM1692.17 948.917C1690.42 948.882 1688.72 948.339 1687.28 947.356C1685.84 946.373 1684.74 944.994 1684.1 943.394C1683.46 941.794 1683.32 940.045 1683.69 938.367C1684.07 936.689 1684.94 935.157 1686.2 933.966C1687.93 932.402 1690.19 931.538 1692.53 931.548C1694.28 931.583 1695.98 932.127 1697.42 933.111C1698.86 934.095 1699.96 935.474 1700.6 937.074C1701.23 938.675 1701.37 940.424 1700.99 942.102C1700.62 943.779 1699.74 945.309 1698.47 946.497C1696.72 947.994 1694.49 948.85 1692.16 948.917L1692.17 948.917ZM1876.71 -109.295C1875.17 -109.298 1873.65 -108.944 1872.27 -108.263C1870.89 -107.581 1869.7 -106.591 1868.79 -105.373L1843 -70.9606L1807.82 -96.0473C1805.72 -97.5404 1803.1 -98.1592 1800.54 -97.7688C1797.97 -97.3784 1795.67 -96.0104 1794.13 -93.9628L1768.34 -59.5573L1733.17 -84.6416C1731.07 -86.1403 1728.45 -86.7623 1725.89 -86.3717C1723.32 -85.9811 1721.02 -84.6095 1719.48 -82.5573L1687.92 -40.4277C1686.41 -38.3676 1685.8 -35.8085 1686.2 -33.3062C1686.61 -30.8039 1688.01 -28.5602 1690.09 -27.062C1692.18 -25.5638 1694.78 -24.9319 1697.33 -25.3037C1699.89 -25.6755 1702.19 -27.0208 1703.74 -29.0477L1729.52 -63.4603L1764.7 -38.376C1766.81 -36.8834 1769.42 -36.265 1771.99 -36.6553C1774.55 -37.0457 1776.85 -38.4132 1778.39 -40.4603L1804.18 -74.8657L1839.36 -49.7792C1841.46 -48.2882 1844.08 -47.671 1846.64 -48.0617C1849.21 -48.4525 1851.51 -49.8195 1853.05 -51.8659L1878.83 -86.2737L1914.01 -61.1894C1915.05 -60.4273 1916.23 -59.8751 1917.49 -59.565C1918.75 -59.2548 1920.06 -59.1929 1921.34 -59.3827C1922.63 -59.5725 1923.86 -60.0104 1924.97 -60.6709C1926.08 -61.3313 1927.04 -62.2012 1927.81 -63.2301C1928.57 -64.2591 1929.12 -65.4266 1929.42 -66.6651C1929.72 -67.9035 1929.77 -69.1883 1929.56 -70.4447C1929.35 -71.7012 1928.89 -72.9043 1928.2 -73.9846C1927.52 -75.065 1926.62 -76.0008 1925.56 -76.7379L1882.48 -107.457C1880.8 -108.654 1878.78 -109.297 1876.71 -109.295ZM313.234 821.54C307.339 821.544 301.585 823.313 296.743 826.611C291.9 829.908 288.2 834.577 286.136 839.993C284.073 845.409 283.744 851.314 285.195 856.919C286.645 862.523 289.806 867.559 294.253 871.354C298.701 875.149 304.224 877.521 310.084 878.155C315.943 878.788 321.86 877.651 327.044 874.896C332.227 872.142 336.429 867.901 339.089 862.741C341.748 857.581 342.738 851.747 341.925 846.02C340.967 839.228 337.533 833.006 332.258 828.505C326.983 824.005 320.225 821.53 313.234 821.54ZM313.205 859.1C311.412 859.098 309.657 858.589 308.15 857.636C306.643 856.682 305.448 855.323 304.706 853.722C303.965 852.12 303.709 850.343 303.97 848.603C304.23 846.862 304.995 845.232 306.174 843.906C307.353 842.581 308.895 841.616 310.618 841.127C312.341 840.638 314.171 840.645 315.889 841.148C317.608 841.651 319.142 842.628 320.31 843.963C321.478 845.297 322.23 846.934 322.476 848.676C322.646 849.869 322.574 851.083 322.264 852.248C321.955 853.413 321.414 854.507 320.672 855.468C319.931 856.428 319.004 857.235 317.944 857.843C316.884 858.451 315.713 858.848 314.496 859.011C314.068 859.07 313.637 859.101 313.205 859.105L313.205 859.1ZM1096.99 477.97C1096.27 479.021 1095.78 480.201 1095.52 481.441C1095.27 482.681 1095.27 483.958 1095.53 485.198L1109.08 551.381C1109.6 553.882 1111.1 556.079 1113.27 557.49C1115.44 558.901 1118.09 559.411 1120.64 558.907L1188.22 545.594C1190.77 545.093 1193.01 543.619 1194.46 541.497C1195.9 539.375 1196.42 536.778 1195.91 534.277L1182.36 468.089C1181.84 465.588 1180.34 463.389 1178.17 461.977C1176 460.566 1173.35 460.056 1170.8 460.561L1103.22 473.874C1101.96 474.121 1100.76 474.61 1099.69 475.313C1098.62 476.016 1097.7 476.919 1096.99 477.97ZM1126.41 538.164L1116.71 490.835L1165.05 481.318L1174.74 528.647L1126.41 538.164Z" fill="#FA9531"/>
</g>
<g filter="url(#filter4_f_1002_4110)">
<path fill-rule="evenodd" clip-rule="evenodd" d="M348.52 676.989C346.131 676.991 343.791 677.65 341.764 678.892C338.855 680.666 336.78 683.502 335.993 686.779C335.205 690.056 335.77 693.506 337.564 696.373L454.246 882.954C455.129 884.387 456.292 885.634 457.667 886.623C459.043 887.612 460.604 888.323 462.26 888.716C463.916 889.108 465.635 889.174 467.317 888.909C469 888.644 470.612 888.055 472.061 887.174C473.511 886.293 474.769 885.139 475.762 883.777C476.756 882.415 477.466 880.874 477.851 879.241C478.236 877.608 478.289 875.916 478.006 874.263C477.723 872.61 477.11 871.029 476.203 869.61L359.542 683.023C358.656 681.598 357.491 680.361 356.115 679.383C354.739 678.405 353.179 677.706 351.526 677.326C350.541 677.096 349.532 676.98 348.52 676.98L348.52 676.989ZM612.36 -127.709C609.733 -127.707 607.169 -126.919 605.007 -125.45C602.846 -123.981 601.19 -121.901 600.258 -119.484L563.908 -25.0229C563.313 -23.4663 563.035 -21.8095 563.09 -20.1472C563.145 -18.485 563.533 -16.8496 564.23 -15.3347C564.928 -13.8197 565.922 -12.4548 567.155 -11.3178C568.389 -10.1808 569.838 -9.29397 571.42 -8.70804C573.002 -8.1221 574.686 -7.84854 576.375 -7.90286C578.065 -7.95718 579.727 -8.33835 581.266 -9.02469C582.806 -9.71103 584.193 -10.689 585.349 -11.9028C586.504 -13.1166 587.406 -14.5425 588.001 -16.099L624.341 -110.579C625.079 -112.49 625.335 -114.549 625.087 -116.58C624.838 -118.61 624.093 -120.55 622.915 -122.235C621.737 -123.919 620.161 -125.297 618.323 -126.251C616.484 -127.204 614.438 -127.705 612.36 -127.709ZM-149.164 93.0086C-150.063 93.0075 -150.959 93.099 -151.838 93.2818L-252.268 114.153C-253.924 114.495 -255.496 115.155 -256.892 116.096C-258.289 117.036 -259.483 118.239 -260.406 119.635C-261.329 121.03 -261.963 122.591 -262.272 124.228C-262.581 125.866 -262.559 127.547 -262.206 129.175C-261.478 132.458 -259.462 135.325 -256.596 137.153C-253.731 138.982 -250.248 139.623 -246.905 138.937L-146.464 118.066C-143.348 117.416 -140.589 115.653 -138.717 113.118C-136.846 110.583 -135.996 107.455 -136.332 104.339C-136.668 101.224 -138.166 98.3409 -140.536 96.2481C-142.905 94.1554 -145.98 93.0012 -149.164 93.0086ZM11.4514 556.586C9.08411 556.586 6.71967 556.747 4.37515 557.069C-8.72162 558.871 -20.5959 565.605 -28.7446 575.853C-36.8932 586.101 -40.6794 599.061 -39.3051 612.002C-37.9308 624.943 -31.5033 636.854 -21.3776 645.223C-11.2519 653.592 1.78096 657.766 14.9732 656.864C28.1656 655.962 40.4867 650.056 49.3392 640.39C58.1916 630.724 62.8837 618.053 62.4264 605.049C61.9691 592.045 56.398 579.724 46.8877 570.683C37.3773 561.643 24.6755 556.588 11.4514 556.586ZM7.07325 576.161C13.2393 575.313 19.5226 576.283 25.1285 578.948C30.7343 581.614 35.4107 585.855 38.5663 591.136C41.7218 596.417 43.2148 602.5 42.8562 608.616C42.4976 614.732 40.3036 620.606 36.5518 625.494C32.8 630.383 27.6589 634.067 21.7787 636.081C15.8985 638.095 9.54356 638.347 3.51756 636.806C-2.50841 635.266 -7.93468 632.001 -12.0748 627.426C-16.215 622.851 -18.883 617.17 -19.7415 611.102C-20.8687 602.974 -18.6815 594.738 -13.6574 588.191C-8.63333 581.644 -1.1806 577.32 7.07325 576.161ZM935.124 -222.726C934.347 -222.724 933.57 -222.671 932.801 -222.567C928.541 -221.979 924.68 -219.786 922.031 -216.451C919.382 -213.117 918.152 -208.9 918.601 -204.691C919.049 -200.482 921.141 -196.608 924.435 -193.887C927.729 -191.165 931.968 -189.808 936.26 -190.101C940.551 -190.394 944.559 -192.315 947.439 -195.459C950.319 -198.602 951.846 -202.723 951.699 -206.953C951.551 -211.183 949.741 -215.191 946.649 -218.134C943.557 -221.076 939.425 -222.723 935.124 -222.726ZM788.103 615.959C784.601 615.951 781.186 617.027 778.34 619.035C775.494 621.042 773.363 623.88 772.247 627.146C771.131 630.412 771.088 633.94 772.123 637.232C773.159 640.523 775.22 643.411 778.015 645.485C779.755 646.794 781.742 647.747 783.861 648.289C785.98 648.831 788.188 648.951 790.355 648.642C794.534 648.066 798.337 645.954 800.997 642.73C803.657 639.507 804.977 635.412 804.692 631.269C804.406 627.126 802.536 623.244 799.458 620.403C796.38 617.562 792.323 615.974 788.103 615.959ZM8.22404 -353.735C5.72282 -353.392 3.17445 -353.787 0.901167 -354.869C-1.37212 -355.951 -3.26821 -357.672 -4.54738 -359.814C-5.82656 -361.957 -6.43135 -364.424 -6.2853 -366.905C-6.13924 -369.386 -5.24889 -371.768 -3.72683 -373.751C-2.20476 -375.734 -0.119343 -377.228 2.26573 -378.044C4.6508 -378.861 7.22847 -378.963 9.67271 -378.339C12.117 -377.714 14.318 -376.39 15.9977 -374.535C17.6773 -372.679 18.76 -370.375 19.1089 -367.914C19.3406 -366.28 19.2429 -364.617 18.8212 -363.02C18.3996 -361.423 17.6624 -359.923 16.6516 -358.606C15.6408 -357.289 14.3763 -356.181 12.9303 -355.346C11.4843 -354.51 9.88508 -353.962 8.22404 -353.735ZM6.46565 -382.601C3.06681 -382.601 -0.251271 -381.581 -3.0447 -379.676C-5.83815 -377.771 -7.97371 -375.072 -9.16576 -371.94C-10.3578 -368.808 -10.5495 -365.393 -9.71511 -362.151C-8.88075 -358.909 -7.06017 -355.996 -4.4969 -353.799C-1.93361 -351.603 1.25017 -350.23 4.62843 -349.862C8.0067 -349.495 11.4183 -350.152 14.4071 -351.744C17.3958 -353.337 19.8191 -355.789 21.3527 -358.773C22.8863 -361.758 23.4571 -365.132 22.9888 -368.444C22.443 -372.372 20.4674 -375.972 17.4288 -378.575C14.3901 -381.178 10.4948 -382.609 6.46565 -382.601ZM6.44191 -357.475C4.14799 -357.481 1.94575 -358.362 0.299055 -359.933C-1.34761 -361.504 -2.3102 -363.643 -2.38582 -365.899C-2.46147 -368.155 -1.64428 -370.352 -0.106433 -372.027C1.43141 -373.701 3.5699 -374.723 5.85847 -374.877C8.14705 -375.032 10.4071 -374.306 12.1625 -372.853C13.9179 -371.4 15.0316 -369.333 15.2691 -367.088C15.5065 -364.843 14.8491 -362.595 13.4353 -360.818C12.0216 -359.04 9.9619 -357.872 7.69011 -357.559C7.27647 -357.503 6.85945 -357.475 6.44191 -357.475ZM1690.53 160.315C1689.75 160.317 1688.97 160.37 1688.19 160.474C1683.92 161.063 1680.05 163.26 1677.39 166.602C1674.74 169.945 1673.5 174.17 1673.95 178.39C1674.4 182.61 1676.49 186.494 1679.79 189.224C1683.09 191.953 1687.34 193.316 1691.64 193.025C1695.95 192.734 1699.97 190.811 1702.85 187.662C1705.74 184.513 1707.28 180.383 1707.13 176.143C1706.99 171.903 1705.18 167.883 1702.08 164.931C1698.99 161.978 1694.85 160.323 1690.53 160.315ZM-449.285 103.345C-450.068 103.347 -450.849 103.4 -451.625 103.506C-456.004 104.114 -459.959 106.405 -462.624 109.878C-465.29 113.35 -466.447 117.72 -465.844 122.031C-465.208 126.331 -462.878 130.212 -459.356 132.834C-455.834 135.456 -451.404 136.607 -447.026 136.04C-442.644 135.434 -438.686 133.143 -436.018 129.67C-433.351 126.196 -432.193 121.823 -432.797 117.51C-433.092 115.372 -433.815 113.312 -434.925 111.451C-436.035 109.59 -437.51 107.964 -439.264 106.667C-442.145 104.511 -445.665 103.344 -449.285 103.345ZM1777.37 -236.088L1840.63 -227.192L1849.68 -289.551C1849.84 -290.702 1850.24 -291.809 1850.84 -292.81C1851.44 -293.81 1852.23 -294.684 1853.17 -295.382C1854.12 -296.079 1855.19 -296.586 1856.34 -296.873C1857.48 -297.16 1858.67 -297.221 1859.84 -297.053C1861.01 -296.886 1862.13 -296.493 1863.14 -295.897C1864.16 -295.301 1865.04 -294.513 1865.74 -293.58C1866.45 -292.646 1866.95 -291.585 1867.24 -290.458C1867.52 -289.331 1867.58 -288.159 1867.4 -287.011L1857.13 -216.241C1857.13 -216.15 1857.15 -216.062 1857.14 -215.971C1856.88 -214.253 1856.12 -212.648 1854.94 -211.355C1853.76 -210.062 1852.23 -209.139 1850.52 -208.7C1849.36 -208.398 1848.15 -208.33 1846.96 -208.502L1774.79 -218.651C1773.61 -218.804 1772.48 -219.185 1771.45 -219.772C1770.43 -220.36 1769.53 -221.142 1768.82 -222.073C1768.1 -223.005 1767.58 -224.067 1767.28 -225.197C1766.99 -226.328 1766.93 -227.506 1767.1 -228.661C1767.27 -229.816 1767.67 -230.926 1768.28 -231.927C1768.89 -232.928 1769.7 -233.799 1770.66 -234.49C1771.61 -235.181 1772.7 -235.678 1773.85 -235.952C1775.01 -236.227 1776.2 -236.273 1777.37 -236.088ZM1858.51 -300.976C1855.41 -300.971 1852.43 -299.868 1850.09 -297.869C1847.76 -295.87 1846.24 -293.11 1845.8 -290.095L1837.3 -231.551L1777.93 -239.912C1774.54 -240.379 1771.11 -239.512 1768.37 -237.501C1765.64 -235.489 1763.82 -232.496 1763.31 -229.172C1763.07 -227.525 1763.16 -225.847 1763.58 -224.235C1763.99 -222.622 1764.73 -221.107 1765.75 -219.775C1766.76 -218.444 1768.03 -217.322 1769.49 -216.475C1770.94 -215.628 1772.55 -215.071 1774.23 -214.838L1846.39 -204.691C1848.1 -204.437 1849.84 -204.532 1851.51 -204.971C1853.96 -205.603 1856.16 -206.931 1857.85 -208.79C1859.54 -210.648 1860.63 -212.955 1861 -215.422L1861.09 -215.994L1861.06 -216.193L1871.26 -286.472C1871.74 -289.799 1870.86 -293.178 1868.82 -295.872C1866.78 -298.566 1863.74 -300.357 1860.36 -300.854C1859.75 -300.939 1859.13 -300.979 1858.51 -300.976ZM1843.96 -222.835L1853.55 -289C1853.64 -289.65 1853.86 -290.277 1854.2 -290.843C1854.54 -291.409 1854.99 -291.904 1855.52 -292.298C1856.05 -292.693 1856.66 -292.979 1857.31 -293.141C1857.95 -293.303 1858.62 -293.337 1859.28 -293.241C1859.94 -293.145 1860.58 -292.921 1861.15 -292.582C1861.72 -292.243 1862.22 -291.796 1862.61 -291.267C1863 -290.737 1863.29 -290.136 1863.44 -289.498C1863.6 -288.86 1863.63 -288.198 1863.52 -287.55L1853.18 -216.228L1853.18 -216.153C1852.97 -215.263 1852.52 -214.446 1851.87 -213.788C1851.23 -213.13 1850.42 -212.656 1849.52 -212.417C1848.87 -212.272 1848.19 -212.232 1847.52 -212.3L1775.34 -222.459C1774.02 -222.651 1772.83 -223.348 1772.02 -224.399C1771.63 -224.918 1771.34 -225.509 1771.17 -226.137C1771.01 -226.765 1770.98 -227.419 1771.07 -228.061C1771.27 -229.368 1771.99 -230.543 1773.07 -231.331C1774.15 -232.118 1775.5 -232.453 1776.83 -232.263L1843.96 -222.835ZM1500.05 31.8517C1497.43 31.8547 1494.87 32.6437 1492.71 34.1138C1490.55 35.5839 1488.89 37.6656 1487.97 40.0821L1451.69 134.578C1451.09 136.132 1450.81 137.786 1450.87 139.446C1450.92 141.105 1451.31 142.739 1452 144.252C1452.7 145.765 1453.69 147.128 1454.92 148.264C1456.15 149.4 1457.6 150.287 1459.18 150.873C1460.76 151.459 1462.44 151.733 1464.13 151.68C1465.81 151.627 1467.47 151.248 1469.01 150.563C1470.55 149.879 1471.93 148.904 1473.09 147.692C1474.24 146.481 1475.14 145.058 1475.74 143.504L1512.01 48.9989C1512.75 47.0887 1513.01 45.0296 1512.77 42.9985C1512.52 40.9675 1511.78 39.0251 1510.61 37.3382C1509.43 35.6513 1507.86 34.2704 1506.02 33.3139C1504.18 32.3574 1502.13 31.8588 1500.05 31.8517ZM147.848 43.5518C145.481 43.5511 143.118 43.7134 140.774 44.0375C127.679 45.8429 115.807 52.5808 107.662 62.8306C99.5168 73.0805 95.7345 86.0416 97.1124 98.9819C98.4903 111.922 104.921 123.83 115.048 132.197C125.176 140.563 138.209 144.733 151.4 143.829C164.592 142.924 176.911 137.016 185.762 127.348C194.612 117.681 199.302 105.01 198.842 92.0071C198.383 79.0038 192.81 66.684 183.299 57.6447C173.788 48.6053 161.081 43.5527 147.858 43.5518L147.848 43.5518ZM143.472 63.1271C149.638 62.2786 155.922 63.2484 161.528 65.9139C167.133 68.5794 171.81 72.8209 174.965 78.1018C178.121 83.3827 179.614 89.4658 179.255 95.5817C178.897 101.698 176.703 107.571 172.951 112.46C169.199 117.349 164.058 121.033 158.178 123.047C152.298 125.06 145.943 125.313 139.917 123.772C133.891 122.232 128.464 118.967 124.324 114.392C120.184 109.816 117.516 104.136 116.658 98.0682C115.53 89.9401 117.718 81.7034 122.742 75.1567C127.766 68.6101 135.218 64.2854 143.472 63.1271ZM924.504 102.925C921.003 102.917 917.588 103.993 914.743 106C911.897 108.008 909.766 110.845 908.65 114.11C907.534 117.376 907.49 120.904 908.525 124.195C909.559 127.486 911.62 130.374 914.415 132.449C916.154 133.758 918.141 134.711 920.26 135.254C922.379 135.796 924.587 135.917 926.754 135.608C930.932 135.032 934.734 132.921 937.394 129.699C940.054 126.476 941.376 122.382 941.092 118.241C940.808 114.099 938.94 110.216 935.864 107.375C932.789 104.533 928.733 102.943 924.514 102.925L924.504 102.925ZM170.839 -396.317C168.338 -395.974 165.79 -396.369 163.518 -397.451C161.245 -398.533 159.349 -400.253 158.07 -402.395C156.791 -404.537 156.186 -407.005 156.332 -409.485C156.478 -411.965 157.368 -414.347 158.89 -416.329C160.412 -418.312 162.497 -419.805 164.881 -420.622C167.266 -421.439 169.843 -421.541 172.287 -420.917C174.731 -420.292 176.931 -418.969 178.611 -417.113C180.29 -415.258 181.373 -412.955 181.722 -410.494C182.189 -407.194 181.305 -403.847 179.264 -401.189C177.223 -398.53 174.193 -396.778 170.839 -396.317ZM169.088 -425.185C168.32 -425.187 167.553 -425.136 166.793 -425.031C162.505 -424.449 158.615 -422.251 155.942 -418.901C153.269 -415.551 152.023 -411.311 152.466 -407.075C152.91 -402.838 155.008 -398.936 158.318 -396.192C161.629 -393.449 165.893 -392.077 170.212 -392.367C174.53 -392.657 178.565 -394.586 181.466 -397.747C184.367 -400.908 185.907 -405.054 185.762 -409.31C185.616 -413.567 183.796 -417.602 180.685 -420.563C177.574 -423.525 173.416 -425.182 169.088 -425.185ZM169.064 -400.06C166.78 -400.07 164.588 -400.952 162.952 -402.521C161.315 -404.089 160.361 -406.221 160.29 -408.468C160.22 -410.714 161.038 -412.9 162.573 -414.565C164.108 -416.23 166.239 -417.244 168.519 -417.393C170.798 -417.543 173.048 -416.816 174.793 -415.365C176.539 -413.915 177.644 -411.855 177.876 -409.619C178.109 -407.383 177.45 -405.145 176.039 -403.377C174.628 -401.61 172.575 -400.449 170.312 -400.142C169.896 -400.084 169.475 -400.056 169.055 -400.055L169.064 -400.06Z" fill="#BEC2C9"/>
</g>
<path fill-rule="evenodd" clip-rule="evenodd" d="M790.058 -275.032C787.323 -275.031 784.63 -274.367 782.215 -273.099C779.8 -271.831 777.737 -269.997 776.207 -267.757C774.676 -265.518 773.725 -262.942 773.437 -260.255C773.149 -257.569 773.532 -254.853 774.553 -252.347C775.575 -249.84 777.203 -247.62 779.295 -245.879C781.387 -244.139 783.88 -242.933 786.554 -242.365C789.228 -241.798 792.002 -241.887 794.633 -242.626C797.264 -243.364 799.671 -244.728 801.644 -246.6C804.029 -248.863 805.682 -251.773 806.393 -254.964C807.104 -258.155 806.841 -261.482 805.638 -264.526C804.435 -267.569 802.345 -270.191 799.633 -272.061C796.922 -273.932 793.709 -274.965 790.403 -275.032L790.058 -275.032ZM1446.41 547.053C1443.88 546.998 1441.43 546.203 1439.35 544.769C1437.28 543.336 1435.69 541.328 1434.77 539C1433.86 536.672 1433.66 534.128 1434.21 531.689C1434.75 529.25 1436.02 527.025 1437.85 525.297C1439.67 523.569 1441.97 522.414 1444.46 521.978C1446.95 521.543 1449.52 521.846 1451.83 522.85C1454.15 523.854 1456.11 525.514 1457.47 527.619C1458.84 529.724 1459.53 532.181 1459.48 534.678C1459.45 536.339 1459.08 537.977 1458.41 539.498C1457.73 541.019 1456.76 542.394 1455.54 543.543C1454.33 544.692 1452.9 545.594 1451.33 546.196C1449.76 546.799 1448.09 547.09 1446.41 547.053ZM1446.65 517.907C1442.25 517.925 1438.04 519.65 1434.93 522.71C1431.81 525.77 1430.04 529.919 1430 534.259C1429.96 538.599 1431.65 542.781 1434.7 545.9C1437.75 549.02 1441.93 550.826 1446.32 550.928C1448.52 550.995 1450.71 550.622 1452.76 549.832C1454.81 549.041 1456.67 547.85 1458.25 546.33C1460.63 544.068 1462.28 541.158 1462.99 537.968C1463.7 534.779 1463.44 531.453 1462.23 528.411C1461.03 525.37 1458.94 522.75 1456.23 520.881C1453.52 519.013 1450.31 517.982 1447 517.917L1446.65 517.917L1446.65 517.907ZM1446.48 543.174C1444.72 543.138 1443.02 542.59 1441.58 541.599C1440.15 540.608 1439.04 539.217 1438.4 537.604C1437.76 535.991 1437.62 534.228 1438 532.537C1438.38 530.845 1439.25 529.303 1440.52 528.103C1442.27 526.588 1444.51 525.726 1446.84 525.666C1448.59 525.7 1450.3 526.246 1451.74 527.237C1453.17 528.228 1454.28 529.618 1454.92 531.231C1455.56 532.845 1455.7 534.609 1455.32 536.301C1454.95 537.993 1454.07 539.537 1452.81 540.737C1451.08 542.294 1448.82 543.162 1446.49 543.174L1446.48 543.174ZM-278.187 -111.309C-278.973 -111.308 -279.759 -111.253 -280.538 -111.147C-282.727 -110.865 -284.838 -110.158 -286.749 -109.066C-288.659 -107.974 -290.332 -106.519 -291.671 -104.785C-293.009 -103.05 -293.987 -101.071 -294.547 -98.962C-295.107 -96.8527 -295.239 -94.6545 -294.934 -92.4946C-294.63 -90.3347 -293.895 -88.2557 -292.773 -86.3777C-291.65 -84.4998 -290.163 -82.8601 -288.396 -81.5532C-286.628 -80.2463 -284.617 -79.2983 -282.476 -78.7637C-280.336 -78.2291 -278.11 -78.1185 -275.926 -78.4384C-271.74 -79.0176 -267.93 -81.1423 -265.266 -84.3848C-262.601 -87.6272 -261.279 -91.7465 -261.565 -95.9133C-261.852 -100.08 -263.726 -103.985 -266.81 -106.842C-269.894 -109.698 -273.959 -111.295 -278.187 -111.309ZM150.171 927.234C147.666 927.577 145.113 927.179 142.837 926.089C140.561 924.999 138.663 923.267 137.383 921.112C136.103 918.957 135.499 916.475 135.646 913.98C135.794 911.486 136.687 909.091 138.213 907.097C139.738 905.104 141.828 903.603 144.217 902.782C146.606 901.962 149.188 901.86 151.636 902.489C154.084 903.119 156.288 904.451 157.97 906.317C159.652 908.184 160.735 910.501 161.084 912.976C161.55 916.296 160.662 919.663 158.616 922.337C156.569 925.011 153.532 926.772 150.171 927.234ZM148.438 898.203C147.654 898.203 146.871 898.257 146.095 898.365C143.92 898.665 141.827 899.384 139.935 900.483C138.042 901.582 136.387 903.038 135.064 904.769C133.741 906.499 132.776 908.47 132.224 910.569C131.672 912.668 131.544 914.854 131.848 917.002C132.151 919.15 132.879 921.218 133.992 923.087C135.104 924.957 136.578 926.592 138.33 927.899C140.082 929.206 142.077 930.159 144.202 930.704C146.326 931.249 148.539 931.376 150.713 931.076C154.905 930.5 158.719 928.376 161.387 925.131C164.055 921.886 165.379 917.763 165.09 913.592C164.801 909.421 162.922 905.514 159.832 902.658C156.742 899.802 152.67 898.21 148.438 898.203ZM148.403 923.479C146.158 923.478 143.997 922.635 142.356 921.121C140.716 919.608 139.717 917.536 139.562 915.323C139.407 913.111 140.107 910.923 141.521 909.2C142.935 907.478 144.958 906.349 147.181 906.042C148.918 905.802 150.688 906.077 152.267 906.832C153.846 907.586 155.163 908.785 156.052 910.279C156.941 911.772 157.362 913.493 157.262 915.222C157.161 916.952 156.544 918.614 155.489 919.997C154.662 921.081 153.592 921.96 152.362 922.565C151.132 923.169 149.776 923.482 148.403 923.479ZM1328.26 171.915C1323.84 171.896 1319.6 173.604 1316.45 176.666C1313.3 179.729 1311.51 183.898 1311.47 188.261C1311.42 192.625 1313.12 196.829 1316.21 199.956C1319.29 203.082 1323.5 204.877 1327.91 204.948C1332.33 204.94 1336.59 203.297 1339.84 200.343C1341.43 198.847 1342.71 197.053 1343.59 195.066C1344.47 193.079 1344.95 190.939 1344.99 188.769C1345.07 184.391 1343.39 180.16 1340.32 177.002C1337.25 173.843 1333.04 172.015 1328.61 171.915L1328.26 171.915Z" fill="#FA9531"/>
</g>
<defs>
<filter id="filter0_f_1002_4110" x="-511" y="-519.593" width="2485.69" height="1552.99" filterUnits="userSpaceOnUse" color-interpolation-filters="sRGB">
<feFlood flood-opacity="0" result="BackgroundImageFix"/>
<feBlend mode="normal" in="SourceGraphic" in2="BackgroundImageFix" result="shape"/>
<feGaussianBlur stdDeviation="22.5" result="effect1_foregroundBlur_1002_4110"/>
</filter>
<filter id="filter1_f_1002_4110" x="-419.073" y="-477.896" width="2247.46" height="1469.6" filterUnits="userSpaceOnUse" color-interpolation-filters="sRGB">
<feFlood flood-opacity="0" result="BackgroundImageFix"/>
<feBlend mode="normal" in="SourceGraphic" in2="BackgroundImageFix" result="shape"/>
<feGaussianBlur stdDeviation="1.65167" result="effect1_foregroundBlur_1002_4110"/>
</filter>
<filter id="filter2_f_1002_4110" x="-416.905" y="-369.381" width="2242.17" height="1315.99" filterUnits="userSpaceOnUse" color-interpolation-filters="sRGB">
<feFlood flood-opacity="0" result="BackgroundImageFix"/>
<feBlend mode="normal" in="SourceGraphic" in2="BackgroundImageFix" result="shape"/>
<feGaussianBlur stdDeviation="6.60667" result="effect1_foregroundBlur_1002_4110"/>
</filter>
<filter id="filter3_f_1002_4110" x="280.305" y="-439.2" width="1653.38" height="1399.82" filterUnits="userSpaceOnUse" color-interpolation-filters="sRGB">
<feFlood flood-opacity="0" result="BackgroundImageFix"/>
<feBlend mode="normal" in="SourceGraphic" in2="BackgroundImageFix" result="shape"/>
<feGaussianBlur stdDeviation="2" result="effect1_foregroundBlur_1002_4110"/>
</filter>
<filter id="filter4_f_1002_4110" x="-492.427" y="-451.612" width="2390.24" height="1367.11" filterUnits="userSpaceOnUse" color-interpolation-filters="sRGB">
<feFlood flood-opacity="0" result="BackgroundImageFix"/>
<feBlend mode="normal" in="SourceGraphic" in2="BackgroundImageFix" result="shape"/>
<feGaussianBlur stdDeviation="13.2133" result="effect1_foregroundBlur_1002_4110"/>
</filter>
</defs>
</svg>
